<?xml version="1.0" standalone="no"?>
<!DOCTYPE svg PUBLIC "-//W3C//DTD SVG 1.1//EN" "http://www.w3.org/Graphics/SVG/1.1/DTD/svg11.dtd" >
<svg xmlns="http://www.w3.org/2000/svg" xmlns:xlink="http://www.w3.org/1999/xlink" version="1.1">
<metadata>
Created by FontForge 20230101 at Sun Nov  3 18:28:57 2024
 By Clara ...
(c) Clara Bougon
</metadata>
<defs>
<font id="Banana-Outline-Light" horiz-adv-x="593" >
  <font-face 
    font-family="Banana"
    font-weight="300"
    font-stretch="normal"
    units-per-em="1000"
    panose-1="0 0 0 0 0 0 0 0 0 0"
    ascent="800"
    descent="-200"
    x-height="500.799"
    cap-height="700"
    bbox="-379 -415.596 3208 955.404"
    underline-thickness="50"
    underline-position="-100"
    unicode-range="U+0020-FA200"
  />
<missing-glyph horiz-adv-x="400" 
 />
    <glyph glyph-name="A_E" unicode="A&#xb7;E" horiz-adv-x="975" 
d="M31 -1c10 17 19 35 27 53c58 141 26 300 53 450c19 109 77 212 185 212c109 0 169 -106 187 -215M907 715c-27 -114 -163 -159 -251 -85c-37 32 -62 85 -112 85c-60 0 -73 -71 -68 -140c8 -166 79 -325 40 -487c-7 -34 -24 -66 -55 -71c-27 -4 -53 15 -56 43
c-15 113 135 58 273 -35c90 -60 220 -18 256 84M50 325h792" />
    <glyph glyph-name="A_L" unicode="A&#xb7;L" horiz-adv-x="997" 
d="M614 661c-5 27 -33 55 -62 55c-63 0 -83 -57 -79 -127c9 -170 85 -335 44 -500c-7 -34 -23 -67 -56 -72c-27 -4 -54 14 -57 43c-15 116 138 60 279 -35c93 -61 225 -19 262 86M31 -1c10 17 19 35 27 53c58 141 26 300 53 450c19 109 77 212 185 212
c109 0 169 -106 187 -215M50 325h516" />
    <glyph glyph-name="A_O" unicode="A&#xb7;O" horiz-adv-x="1058" 
d="M31 -1c10 17 19 35 27 53c58 141 26 300 53 450c19 109 77 212 185 212c109 0 166 -103 185 -212c10 -52 13 -106 14 -159M58 284h476M494.155 351.205c0 -190.427 105.05 -366.205 266.444 -366.205c161.396 0 267.4 175.778 267.4 366.205
c0 189.381 -106.005 365.158 -267.4 365.158c-161.395 0 -266.444 -175.777 -266.444 -365.158" />
    <glyph glyph-name="A_U_L_A" unicode="AU&#xb7;LA" horiz-adv-x="1957" 
d="M1398.84 47.1047c26.78 24.3209 46.61 73.7713 52.3 108.226c10.21 61.848 10.4 123.731 12.06 187.707c1.39 53.406 3.57 106.903 12.85 159.402c19.45 108.47 76.75 211.823 185.22 211.823s166.8 -103.353 185.22 -211.823
c26.6 -150.425 -4.1 -309.036 53.21 -450.252c7.16 -18.4194 16.37 -35.8155 26.61 -53.2116M1422.84 284.477h476.86M31.0233 -1.0233c10.233 17.3961 19.1046 34.9273 26.6058 53.2116c57.9909 141.355 26.4613 299.853 53.2119 450.252
c19.297 108.496 76.747 211.823 185.217 211.823c108.47 0 166.502 -103.404 185.217 -211.823c12.389 -71.77 12.344 -145.297 14.725 -217.964M57.6291 284.477h476.858M497.672 654.279c-12 20 5 46 29 43c19 -2 29 -23 29 -43c0 -184 -113 -364 -29 -533
c52 -105 134 -155 253 -144c52 5 97 21 134 49M1093.34 659.243c-5.09473 27.5098 -32.6055 55.0205 -62.1533 55.0205c-62.1523 0 -82.5312 -57.0586 -78.4551 -127.362c9.16992 -169.138 97.8145 -334.199 57.0586 -499.262
c-7.13184 -34.6426 -23.4355 -67.2471 -56.04 -72.3418c-27.5098 -4.0752 -54.002 14.2646 -57.0586 42.7939c-15.2832 116.154 137.552 60.1152 279.18 -34.6426c92.7188 -61.1338 225.176 -19.3594 261.856 85.5879" />
    <glyph glyph-name="C_H" unicode="C&#xb7;H" horiz-adv-x="825" 
d="M780 44c13 -20 -4 -46 -28 -42c-18 4 -25 23 -28 42c-14 103 28 204 28 307c0 104 -42 204 -28 307c3 19 10 39 28 42c24 4 41 -22 28 -42M306 351h446M324 206c-9 48 -18 96 -18 145c0 50 10 100 18 149M518.374 605.362
c-49.5342 68.3281 -119.286 112.478 -205.213 112.478c-170.842 0 -282.041 -176.602 -282.041 -366.869c0 -191.317 111.199 -367.92 282.041 -367.92c85.9268 0 155.679 44.1504 205.213 112.479" />
    <glyph glyph-name="C_Q" unicode="C&#xb7;Q" horiz-adv-x="659" 
d="M210 274c39 0 74 -24 89 -60c59 -140 -143 -194 -239 -299c-30 -32 -32 -79 0 -89c23 -7 41 15 60 30c86 69 194 -22 299 -30c96 -8 185 55 209 149M518.374 605.362c-49.5342 68.3281 -119.286 112.478 -205.213 112.478
c-170.842 0 -282.041 -176.602 -282.041 -366.869c0 -191.317 111.199 -367.92 282.041 -367.92c85.9268 0 155.679 44.1504 205.213 112.479" />
    <glyph glyph-name="D_E" unicode="D&#xb7;E" horiz-adv-x="1050" 
d="M50 43c-9 -21 5 -44 28 -44c22 0 37 23 28 44v647M49 403c-39 164 87 316 259 316c95 0 174 -52 227 -138M480 54c-38 -32 -77 -50 -121 -61c-88 -22 -198 3 -253 58M981.344 714.53c-26.9854 -113.131 -162.951 -158.799 -251.172 -84.0703
c-37.3652 31.1367 -62.2734 84.0703 -112.093 84.0703c-60.1992 0 -87.1846 -70.5771 -83.0322 -139.079c8.30273 -166.064 94.4482 -325.9 55.0078 -487.812c-7.26465 -33.2129 -23.8711 -65.3877 -55.0078 -70.5771c-26.9854 -4.15234 -52.9336 14.5303 -56.0469 42.5537
c-14.5303 113.131 134.927 58.1221 272.968 -34.251c90.2969 -60.1982 220.034 -18.6816 256.361 84.0693M523.63 376.175h368.454" />
    <glyph glyph-name="D_U_D_E_L_A" unicode="DU&#xb7;DELA" horiz-adv-x="3238" 
d="M2380 661c-5 27 -33 55 -62 55c-63 0 -83 -57 -79 -127c9 -170 98 -335 57 -500c-7 -34 -23 -67 -56 -72c-27 -4 -54 14 -57 43c-15 116 138 60 279 -35c93 -61 231 -21 262 86c36 124 11 261 34 391c19 109 77 212 185 212c109 0 167 -103 185 -212
c27 -150 -4 -309 53 -450c8 -18 17 -36 27 -53M2705 284h476M49.6182 43c-4.45605 -10.3965 -3.27441 -21.2842 1.84668 -29.627c5.22168 -8.50977 14.54 -14.373 26.1533 -14.373c11.2031 0 20.5918 5.96484 25.9189 14.5928
c5.13379 8.31445 6.49805 19.1016 2.08105 29.4072v647M48.6182 403c-39 164 87 316 259 316c175 0 285 -175 287 -360c2 -188 -74 -325 -236 -366c-88 -22 -198 3 -253 58M621.147 655.445c-6.49121 10.8184 -4.77832 23.0508 1.73633 31.8145
c5.94043 7.99414 15.875 13.1016 27.2207 11.6221c7.50293 -0.833008 13.6602 -4.69043 18.3408 -10.3535c6.93066 -8.38672 10.6162 -20.7344 10.6162 -33.083c0 -183.054 -112.727 -363.005 -28.957 -532.612c51.7109 -104.455 134.446 -155.131 253.38 -143.755
c96.1797 8.27441 166.506 57.916 208.907 143.755c84.8057 169.607 -42.4014 349.559 -42.4014 532.612c0 13.9014 5.25195 26.6973 13.4688 34.957c7.67676 7.71777 17.9434 11.4766 28.9326 8.47949c6.65137 -1.75 11.8809 -5.51367 15.4062 -10.3301
c6.89355 -9.41309 7.2832 -22.8438 -0.926758 -33.1064M1232 42.8252c-9 -21 5 -44 28 -44c22 0 37 23 28 44v647M1231 402.825c-39 164 87 316 259 316c95 0 174 -52 227 -138M1662 53.8252c-38 -32 -77 -50 -121 -61c-88 -22 -198 3 -253 58M2163.34 714.355
c-26.9854 -113.131 -162.951 -158.799 -251.172 -84.0703c-37.3652 31.1367 -62.2734 84.0703 -112.093 84.0703c-60.1992 0 -87.1846 -70.5771 -83.0322 -139.079c8.30273 -166.064 94.4482 -325.9 55.0078 -487.812
c-7.26465 -33.2129 -23.8711 -65.3877 -55.0078 -70.5771c-26.9854 -4.15234 -52.9336 14.5303 -56.0469 42.5537c-14.5303 113.131 134.927 58.1221 272.968 -34.251c90.2969 -60.1982 220.034 -18.6816 256.361 84.0693M1705.63 376h368.454" />
    <glyph glyph-name="E_A" unicode="E&#xb7;A" horiz-adv-x="1077" 
d="M536 715c-27 -114 -163 -159 -251 -85c-37 32 -62 85 -112 85c-60 0 -87 -71 -83 -140c8 -166 94 -325 55 -487c-7 -34 -24 -66 -55 -71c-27 -4 -53 15 -56 43c-15 113 135 58 273 -35c90 -60 226 -20 256 84c35 121 11 266 34 393c19 109 77 212 185 212
c109 0 167 -103 185 -212c27 -150 -4 -309 53 -450c8 -18 17 -36 27 -53M79 376h368M544 284h476" />
    <glyph glyph-name="E_O" unicode="E&#xb7;O" horiz-adv-x="1062" 
d="M535.344 714.53c-26.9854 -113.131 -162.951 -158.799 -251.172 -84.0703c-37.3652 31.1367 -62.2734 84.0703 -112.093 84.0703c-60.1992 0 -87.1846 -70.5771 -83.0322 -139.079c8.30273 -166.064 94.4482 -325.9 55.0078 -487.812
c-7.26465 -33.2129 -23.8711 -65.3877 -55.0078 -70.5771c-26.9854 -4.15234 -52.9336 14.5303 -56.0469 42.5537c-14.5303 113.131 134.927 58.1221 272.968 -34.251c90.2969 -60.1982 220.034 -18.6816 256.361 84.0693M77.6299 376.175h368.454M498.505 351.251
c0 -190.426 105.05 -366.205 266.445 -366.205c161.395 0 267.399 175.779 267.399 366.205c0 189.381 -106.005 365.159 -267.399 365.159c-161.396 0 -266.445 -175.778 -266.445 -365.159" />
    <glyph glyph-name="E_S" unicode="E&#xb7;S" horiz-adv-x="1058" 
d="M535.344 714.53c-26.9854 -113.131 -162.951 -158.799 -251.172 -84.0703c-37.3652 31.1367 -62.2734 84.0703 -112.093 84.0703c-60.1992 0 -87.1846 -70.5771 -83.0322 -139.079c8.30273 -166.064 94.4482 -325.9 55.0078 -487.812
c-7.26465 -33.2129 -23.8711 -65.3877 -55.0078 -70.5771c-26.9854 -4.15234 -52.9336 14.5303 -56.0469 42.5537c-14.5303 113.131 134.927 58.1221 272.968 -34.251c90.2969 -60.1982 220.034 -18.6816 256.361 84.0693M77.6299 376.175h368.454M1014.05 497.344
c-25.1904 119.653 -125.952 208.87 -247.706 219.366c-119.653 10.4951 -228.812 -67.1748 -219.366 -175.283c20.9922 -235.111 408.294 -122.804 467.072 -321.179c39.8848 -131.199 -92.3652 -251.903 -247.706 -234.061
c-120.704 13.6455 -220.416 100.762 -248.755 219.367" />
    <glyph glyph-name="E_S_S_E" unicode="E&#xb7;SSE" horiz-adv-x="2068" 
d="M2000 715c-27 -114 -163.31 -159.364 -251 -85c-37.31 31.638 -62 85 -112 85c-60 0 -86.52 -70.974 -83 -140c8.48 -165.976 94 -325 55 -487c-7 -34 -23.97 -66.1851 -55 -71c-26.97 -4.1853 -52.43 15.0664 -56 43c-14.43 113.074 134.82 57.728 273 -35
c89.82 -60.2724 220 -18 256 84M1006 529c-47 113 -133.985 179.177 -238 188c-119.985 10.177 -229.502 -67.043 -220 -176c20.498 -235.044 407.991 -122.297 467 -321c38.99 -131.303 -91.997 -251.971 -247 -234c-120.997 14.0286 -221 101 -249 220M1013 119
c47 -74 124.02 -122.862 212 -133c155.02 -17.8619 285.99 102.697 247 234c-59.01 198.703 -446.5 85.956 -467 321c-9.502 108.957 100.05 186.6 220 176c95.05 -8.4 194.27 -56.924 224 -162c43.27 -152.924 65 -177.412 212 -178l250 -1M535.344 714.53
c-26.9854 -113.131 -162.951 -158.799 -251.172 -84.0703c-37.3652 31.1367 -62.2734 84.0703 -112.093 84.0703c-60.1992 0 -87.1846 -70.5771 -83.0322 -139.079c8.30273 -166.064 94.4482 -325.9 55.0078 -487.812
c-7.26465 -33.2129 -23.8711 -65.3877 -55.0078 -70.5771c-26.9854 -4.15234 -52.9336 14.5303 -56.0469 42.5537c-14.5303 113.131 134.927 58.1221 272.968 -34.251c90.2969 -60.1982 220.034 -18.6816 256.361 84.0693M77.6299 376.175h368.454" />
    <glyph glyph-name="E_S_S_E_S" unicode="E&#xb7;SSES" horiz-adv-x="2523" 
d="M2000 715c-27 -114 -163.31 -159.364 -251 -85c-37.31 31.638 -62 85 -112 85c-60 0 -86.52 -70.974 -83 -140c8.48 -165.976 94 -325 55 -487c-7 -34 -23.97 -66.1851 -55 -71c-26.97 -4.1853 -52.43 15.0664 -56 43c-14.43 113.074 134.82 57.728 273 -35
c89.82 -60.2724 220 -18 256 84M1006 529c-47 113 -133.985 179.177 -238 188c-119.985 10.177 -229.502 -67.043 -220 -176c20.498 -235.044 407.991 -122.297 467 -321c38.99 -131.303 -91.997 -251.971 -247 -234c-120.997 14.0286 -221 101 -249 220M1013 119
c47 -74 124.02 -122.862 212 -133c155.02 -17.8619 285.99 102.697 247 234c-59.01 198.703 -446.5 85.956 -467 321c-9.502 108.957 100.05 186.6 220 176c95.05 -8.4 194.27 -56.924 224 -162c43.27 -152.924 65 -177.412 212 -178l250 -1M535.344 714.53
c-26.9854 -113.131 -162.951 -158.799 -251.172 -84.0703c-37.3652 31.1367 -62.2734 84.0703 -112.093 84.0703c-60.1992 0 -87.1846 -70.5771 -83.0322 -139.079c8.30273 -166.064 94.4482 -325.9 55.0078 -487.812
c-7.26465 -33.2129 -23.8711 -65.3877 -55.0078 -70.5771c-26.9854 -4.15234 -52.9336 14.5303 -56.0469 42.5537c-14.5303 113.131 134.927 58.1221 272.968 -34.251c90.2969 -60.1982 220.034 -18.6816 256.361 84.0693M77.6299 376.175h368.454M2479.46 497.354
c-25.1914 119.654 -125.952 208.87 -247.706 219.366c-119.654 10.4961 -228.812 -67.1738 -219.366 -175.283c20.9922 -235.11 408.294 -122.803 467.072 -321.178c39.8848 -131.199 -92.3652 -251.903 -247.706 -234.061
c-120.704 13.6445 -220.416 100.762 -248.755 219.367" />
    <glyph glyph-name="E_T" unicode="E&#xb7;T" horiz-adv-x="1186" 
d="M1165 637c-5 15 -14 28 -26 38c-89 78 -200 -38 -307 -38c-97.798 0 -249.126 129.81 -321 22c-51 -70 -154 -89 -226 -29c-37 32 -62 85 -112 85c-60 0 -87 -71 -83 -140c8 -166 94 -325 55 -487c-7 -34 -24 -66 -55 -71c-27 -4 -53 15 -56 43c-15 113 135 58 273 -35
c90 -60 220 -18 256 84M79 376h368M832 636v-636" />
    <glyph glyph-name="E_T_T" unicode="E&#xb7;TT" horiz-adv-x="1653" 
d="M830 636v-636M1299 636v-636M562.268 111.944c-36.327 -102.751 -166.127 -144.362 -256.361 -84.0691c-138.104 92.2781 -287.116 147.43 -272.968 34.2507c3.4973 -27.9781 29.0896 -46.8863 56.0466 -42.5539c31.1667 5.0089 47.0947 37.5131 55.0087 70.5772
c38.792 162.069 -46.1926 321.775 -55.0087 487.812c-3.6388 68.532 22.8337 139.079 83.0327 139.079c49.819 0 74.905 -52.721 112.093 -84.07c71.274 -60.082 173.356 -42.17 224.376 26.323c4.16 5.791 8.978 11.095 14.513 15.707c90 78 200 -38 307 -38
c78 0 158 63 230 65c75 2 158 -65 239 -65c107 0 218 116 307 38c12 -10 21 -23 26 -38M77.5684 378.685h368.455" />
    <glyph glyph-name="E_U" unicode="E&#xb7;U" horiz-adv-x="1102" 
d="M1033 656c12 15 5 38 -15 43c-22 6 -42 -17 -42 -43c0 -184 127 -364 42 -533c-42 -86 -112 -136 -209 -144c-119 -11 -201 39 -253 144c-84 169 29 349 29 533c0 20 -10 41 -29 43c-14 2 -27 -6 -32 -17c-43 -89 -160 -119 -239 -52c-37 32 -62 85 -112 85
c-60 0 -87 -71 -83 -140c8 -166 94 -325 55 -487c-7 -34 -24 -66 -55 -71c-27 -4 -53 15 -56 43c-15 113 135 58 273 -35c90 -60 220 -18 256 84M79 376h368" />
    <glyph glyph-name="Eacute_E" unicode="&#xc9;&#xb7;E" horiz-adv-x="1017" 
d="M78 376h782M949 715c-27 -114 -163.307 -159.364 -251 -85c-37.31 31.638 -62 85 -112 85c-60 0 -86.525 -70.974 -83 -140c8.475 -165.976 94 -325 55 -487c-7 -34 -23.971 -66.1851 -55 -71c-26.972 -4.1853 -52.434 15.0664 -56 43
c-14.435 113.074 134.817 57.728 273 -35c89.818 -60.2724 220 -18 256 84M522 674c-45 -83 -161.413 -108.494 -238 -44c-37.418 31.51 -62 85 -112 85c-60 0 -86.5247 -70.974 -83 -140c8.4754 -165.976 94 -325 55 -487c-7 -34 -23.971 -66.1851 -55 -71
c-26.9719 -4.1853 -52.434 15.0664 -56 43c-14.4349 113.074 134.87 57.806 273 -35c53.87 -36.194 124 -35 178 -7M181 785l242 104" />
    <glyph glyph-name="Ecircumflex_T_E" unicode="&#xca;&#xb7;TE" horiz-adv-x="1674" 
d="M1164 637c-5 15 -14.22 27.739 -26 38c-89.23 77.741 -200 -38 -307 -38s-216.907 115.893 -307 38c-5.908 -5.108 -9.772 -10.158 -14 -16c-50.776 -70.163 -154.378 -89.451 -226 -29c-37.383 31.552 -62 85 -112 85c-60 0 -86.5247 -70.974 -83 -140
c8.4754 -165.976 94 -325 55 -487c-7 -34 -23.971 -66.1851 -55 -71c-26.9719 -4.1853 -52.434 15.0664 -56 43c-14.4349 113.074 134.817 57.728 273 -35c89.818 -60.2724 220 -18 256 84M78 376h368M831 636v-636M181 785l121 104l121 -104M1605.34 714.53
c-26.9854 -113.131 -162.951 -158.799 -251.172 -84.0703c-37.3652 31.1367 -62.2734 84.0703 -112.093 84.0703c-60.1992 0 -87.1846 -70.5771 -83.0322 -139.079c8.30273 -166.064 94.4482 -325.9 55.0078 -487.812
c-7.26465 -33.2129 -23.8711 -65.3877 -55.0078 -70.5771c-26.9854 -4.15234 -52.9336 14.5303 -56.0469 42.5537c-14.5303 113.131 134.927 58.1221 272.968 -34.251c90.2969 -60.1982 220.034 -18.6816 256.361 84.0693M1147.63 376.175h368.454" />
    <glyph glyph-name="Egrave_T_E" unicode="&#xc8;T&#xb7;E" horiz-adv-x="1680" 
d="M1611.3 714.53c-26.99 -113.131 -162.95 -158.799 -251.17 -84.07c-37.37 31.137 -62.28 84.07 -112.1 84.07c-60.2 0 -87.18 -70.577 -83.03 -139.079c8.3 -166.064 94.45 -325.9 55.01 -487.813c-7.27 -33.2128 -23.87 -65.3877 -55.01 -70.5772
c-26.99 -4.1516 -52.93 14.5306 -56.05 42.5539c-14.53 113.131 134.93 58.1219 272.97 -34.2507c90.3 -60.1982 220.04 -18.6822 256.36 84.0696M1153.58 376.175h368.46M1165 637.14c-5 15 -14 28 -26 38c-89 78 -200 -38 -307 -38c-97.7979 0 -249.126 129.81 -321 22
c-51 -70 -154 -89 -226 -29c-37 32 -62 85 -112 85c-60 0 -87 -71 -83 -140c8 -166 94 -325 55 -487c-7 -34 -24 -66 -55 -71c-27 -4 -53 15 -56 43c-15 113 135 58 273 -35c90 -60 220 -18 256 84M79 376.14h368M832 636.14v-636M145 780h335.993" />
    <glyph glyph-name="Emacron_R_E" unicode="ER&#xb7;E" horiz-adv-x="1498" 
d="M504.734 30.4793c0.554 -16.2233 14.044 -30.5633 31.506 -30.5633c21.931 0 35.507 22.616 27.152 43.176v645.584M510.133 467.656c-30.285 156.256 100.248 261.013 227.657 254.944c66.83 -3.183 132.598 -35.996 175.443 -108.968
c22.946 -39.08 32.63 -77.101 32.373 -114.108c-0.787 -113.082 -100.247 -207.732 -211.993 -215.88c-57.43 -4.188 -118.006 14.392 -170.221 64.764l376.992 -304.288M535.344 714.53c-26.9854 -113.131 -162.951 -158.799 -251.172 -84.0703
c-37.3652 31.1367 -62.2734 84.0703 -112.093 84.0703c-60.1992 0 -87.1846 -70.5771 -83.0322 -139.079c8.30273 -166.064 94.4482 -325.9 55.0078 -487.812c-7.26465 -33.2129 -23.8711 -65.3877 -55.0078 -70.5771c-26.9854 -4.15234 -52.9336 14.5303 -56.0469 42.5537
c-14.5303 113.131 134.927 58.1221 272.968 -34.251c90.2969 -60.1982 220.034 -18.6816 256.361 84.0693M77.6299 376.175h368.454M137.659 780h335.993M1439.34 714.53c-26.9854 -113.131 -162.951 -158.799 -251.172 -84.0703
c-37.3652 31.1367 -62.2734 84.0703 -112.093 84.0703c-60.1992 0 -87.1846 -70.5771 -83.0322 -139.079c8.30273 -166.064 94.4482 -325.9 55.0078 -487.812c-7.26465 -33.2129 -23.8711 -65.3877 -55.0078 -70.5771c-26.9854 -4.15234 -52.9336 14.5303 -56.0469 42.5537
c-14.5303 113.131 134.927 58.1221 272.968 -34.251c90.2969 -60.1982 220.034 -18.6816 256.361 84.0693M981.63 376.175h368.454" />
    <glyph glyph-name="F_E" unicode="F&#xb7;E" horiz-adv-x="1020" 
d="M118 44c-7.122 -11.5041 -5.24 -24.5087 1.863 -33.2598c5.863 -7.22352 15.285 -11.5489 26.137 -9.7402c18 3 26 24 28 43c26 183 -134 343 -113 527c8.1656 76.212 56.667 144.193 121.604 144.193c31.129 0 54.254 -13.287 76.918 -34.092
c19.101 -17.534 36.564 -38.55 57.478 -54.101c60 -42 136 -39 192 0M952 715c-27 -114 -163 -159 -251 -85c-37 32 -62 85 -112 85c-60 0 -87 -71 -83 -140c8 -166 94 -325 55 -487c-7 -34 -24 -66 -55 -71c-27 -4 -53 15 -56 43c-15 113 135 58 273 -35
c90 -60 220 -18 256 84M40 376h823" />
    <glyph glyph-name="F_F_E" unicode="F&#xb7;FE" horiz-adv-x="1430" 
d="M117 44c-7.21 -11.6476 -5.192 -24.8333 2.131 -33.5853c5.88 -7.02735 15.181 -11.1961 25.869 -9.4147c18 3 26 24 28 43c26 183 -134 343 -113 527c9 84 67 158 142 142c48 -9 75 -57 114 -86c48 -34 106 -38 163 -16M528 44
c-7.229 -11.6775 -5.181 -24.9011 2.188 -33.6526c5.883 -6.98666 15.158 -11.1231 25.812 -9.3474c18 3 26 24 28 43c26 183 -134 343 -113 527c9 84 67 158 142 142c22.042 -4.133 39.656 -16.49 56.036 -31.454c19.292 -17.623 36.873 -38.863 57.964 -54.546
c60 -42 136 -39 192 0M1362 715c-27 -114 -163 -159 -251 -85c-37 32 -62 85 -112 85c-60 0 -87 -71 -83 -140c8 -166 94 -325 55 -487c-7 -34 -24 -66 -55 -71c-27 -4 -53 15 -56 43c-15 113 135 58 273 -35c90 -60 220 -18 256 84M40 376h1233" />
    <glyph glyph-name="F_V" unicode="F&#xb7;V" horiz-adv-x="980" 
d="M117.966 44.0059c-7.38086 -11.9219 -5.3125 -25.1035 2.00977 -33.7803c5.87695 -6.96387 15.1406 -11.0244 25.6211 -9.20215c9.22461 1.53711 15.8818 7.43555 20.4883 15.3838c4.59277 7.92578 7.14648 17.8896 8.16797 27.5986
c25.585 183.189 -134.065 342.839 -113.598 527.051c9.21094 83.9189 67.5449 157.604 142.253 142.253c48.0996 -9.21094 74.708 -57.3105 113.597 -85.9658c93.1299 -65.4971 222.078 -22.5146 256.874 85.9658M40.1875 389.915h372.518M388 658
c-4.60352 10.2285 -2.92773 20.9824 2.75098 29.0459c5.42383 7.70312 14.501 12.9541 25.249 12.9541c8.95117 0 16.8115 -3.99707 22.2656 -10.1318c7.34277 -8.25879 10.3242 -20.3936 5.73438 -31.8682l181 -615c0 -23 19 -42 42 -42s42 19 42 42l182 615
c-4.97363 11.0527 -2.61816 22.7168 4.19922 30.9414c5.51855 6.65527 13.959 11.0586 23.8008 11.0586c11.2236 0 20.7354 -6.28516 25.9346 -15.1904c4.5293 -7.75586 5.78906 -17.5 2.06543 -26.8096" />
    <glyph glyph-name="G_U" unicode="G&#xb7;U" horiz-adv-x="1094" 
d="M548.035 127.068c51.71 -104.454 134.446 -155.13 253.379 -143.754c96.18 8.27362 166.506 57.9152 208.906 143.754c84.81 169.608 -42.4 349.559 -42.4 532.613c0 13.902 5.252 26.697 13.469 34.957c7.678 7.718 17.944 11.476 28.931 8.479
c6.65 -1.75 11.88 -5.514 15.41 -10.33c6.89 -9.413 7.28 -22.843 -0.93 -33.106M569 570.587c-53 105.84 -161 164.052 -270 147.118c-158 -24.3428 -264 -187.337 -268 -368.323c-4 -187.337 106 -358.798 268 -367.265c129 -7.40918 253 96.3145 283 234.965
c19 85.7295 -18 161.935 -81 161.935c-59 0 -73 -76.2051 -108 -132.3c-42 -67.7383 -145 -21.168 -161 59.2705" />
    <glyph glyph-name="I_E" unicode="I&#xb7;E" horiz-adv-x="737" 
d="M81 44c-2 -24 18 -44 42 -42c26 2 42 28 42 56c0 198 -84 388 -84 586c0 28 16 54 42 56c24 2 44 -18 42 -42M668.344 697.53c-26.9854 -113.131 -162.951 -158.799 -251.172 -84.0703c-37.3652 31.1367 -62.2734 84.0703 -112.093 84.0703
c-60.1992 0 -87.1846 -70.5771 -83.0322 -139.079c8.30273 -166.064 94.4482 -325.9 55.0078 -487.812c-7.26465 -33.2129 -23.8711 -65.3877 -55.0078 -70.5771c-26.9854 -4.15234 -52.9336 14.5303 -56.0469 42.5537c-14.5303 113.131 134.927 58.1221 272.968 -34.251
c90.2969 -60.1982 220.034 -18.6816 256.361 84.0693M210.63 359.175h368.454" />
    <glyph glyph-name="I_L" unicode="I&#xb7;L" horiz-adv-x="760" 
d="M81 44c-2 -24 18 -44 42 -42c26 2 42 28 42 56c0 198 -84 388 -84 586c0 28 16 54 42 56c24 2 44 -18 42 -42M362.667 644.964c-5.09473 27.5098 -32.6055 55.0205 -62.1533 55.0205c-62.1523 0 -82.5312 -57.0586 -78.4551 -127.362
c9.16992 -169.138 97.8145 -334.199 57.0586 -499.262c-7.13184 -34.6426 -23.4355 -67.2471 -56.04 -72.3418c-27.5098 -4.0752 -54.002 14.2646 -57.0586 42.7939c-15.2832 116.154 137.552 60.1152 279.18 -34.6426c92.7188 -61.1338 225.176 -19.3594 261.856 85.5879z
" />
    <glyph glyph-name="I_e_l" unicode="I&#xb7;el" horiz-adv-x="662" 
d="M587 228.835c0 -100.376 -94.366 -238.835 -214 -238.835c-125.6 0 -202 69 -214 184c-1.984 19.345 19.528 30.755 53.447 39.661c102.844 27.005 319.745 30.989 341.553 163.339c14 88 -80 154 -181 137c-78 -14 -142 -47 -189 -138c-52 -101 -31 -237 4 -297M81 44
c-2 -24 18 -44 42 -42c26 2 42 28 42 56c0 198 -84 388 -84 586c0 28 16 54 42 56c24 2 44 -18 42 -42M517 648c-5.58008 13.9512 -2.44141 28.5254 6.11523 38.6816c6.77637 8.04395 16.9521 13.3184 28.8848 13.3184c11.752 0 21.9883 -5.11523 28.8955 -12.9541
c8.96094 -10.1709 12.3164 -24.9268 6.10449 -39.0459v-646" />
    <glyph glyph-name="L_E" unicode="L&#xb7;E" horiz-adv-x="1000" 
d="M229 661c-5 27 -33 55 -62 55c-63 0 -83 -57 -79 -127c9 -170 98 -335 57 -500c-7 -34 -23 -67 -56 -72c-27 -4 -54 14 -57 43c-15 116 138 60 279 -35c60 -39 135 -36 192 -1M931.344 714.53c-26.9854 -113.131 -162.951 -158.799 -251.172 -84.0703
c-37.3652 31.1367 -62.2734 84.0703 -112.093 84.0703c-60.1992 0 -87.1846 -70.5771 -83.0322 -139.079c8.30273 -166.064 94.4482 -325.9 55.0078 -487.812c-7.26465 -33.2129 -23.8711 -65.3877 -55.0078 -70.5771c-26.9854 -4.15234 -52.9336 14.5303 -56.0469 42.5537
c-14.5303 113.131 134.927 58.1221 272.968 -34.251c90.2969 -60.1982 220.034 -18.6816 256.361 84.0693M473.63 376.175h368.454" />
    <glyph glyph-name="L_L" unicode="L&#xb7;L" horiz-adv-x="1022" 
d="M228.667 660.964c-5.095 27.51 -32.605 55.02 -62.153 55.02c-62.153 0 -82.5312 -57.058 -78.4556 -127.362c9.1701 -169.138 97.8146 -334.199 57.0586 -499.261c-7.132 -34.6426 -23.435 -67.2474 -56.0397 -72.3419
c-27.5103 -4.0756 -54.0017 14.2646 -57.0584 42.7938c-15.2835 116.154 137.551 60.1153 279.179 -34.6426c58.565 -38.6147 132.984 -36.1719 189.108 -2.6855M624.667 660.964c-5.09473 27.5098 -32.6055 55.0205 -62.1533 55.0205
c-62.1523 0 -82.5312 -57.0586 -78.4551 -127.362c9.16992 -169.138 97.8145 -334.199 57.0586 -499.262c-7.13184 -34.6426 -23.4355 -67.2471 -56.04 -72.3418c-27.5098 -4.0752 -54.002 14.2646 -57.0586 42.7939c-15.2832 116.154 137.552 60.1152 279.18 -34.6426
c92.7188 -61.1338 225.176 -19.3594 261.856 85.5879" />
    <glyph glyph-name="L_L_E" unicode="L&#xb7;LE" horiz-adv-x="1395" 
d="M624 661c-5 27 -33 55 -62 55c-63 0 -83 -57 -79 -127c9 -170 98 -335 57 -500c-7 -34 -23 -67 -56 -72c-27 -4 -54 14 -57 43c-15 116 138 60 279 -35c60 -39 135 -36 192 -1M229 661c-5 27 -33 55 -62 55c-63 0 -83 -57 -79 -127c9 -170 98 -335 57 -500
c-7 -34 -23 -67 -56 -72c-27 -4 -54 14 -57 43c-15 116 138 60 279 -35c60 -39 135 -36 192 -1M1326.34 714.53c-26.9854 -113.131 -162.951 -158.799 -251.172 -84.0703c-37.3652 31.1367 -62.2734 84.0703 -112.093 84.0703
c-60.1992 0 -87.1846 -70.5771 -83.0322 -139.079c8.30273 -166.064 94.4482 -325.9 55.0078 -487.812c-7.26465 -33.2129 -23.8711 -65.3877 -55.0078 -70.5771c-26.9854 -4.15234 -52.9336 14.5303 -56.0469 42.5537c-14.5303 113.131 134.927 58.1221 272.968 -34.251
c90.2969 -60.1982 220.034 -18.6816 256.361 84.0693M868.63 376.175h368.454" />
    <glyph glyph-name="L_U" unicode="L&#xb7;U" horiz-adv-x="1113" 
d="M228.667 660.964c-5.09473 27.5098 -32.6055 55.0205 -62.1533 55.0205c-62.1523 0 -82.5312 -57.0586 -78.4551 -127.362c9.16992 -169.138 97.8145 -334.199 57.0586 -499.262c-7.13184 -34.6426 -23.4355 -67.2471 -56.04 -72.3418
c-27.5098 -4.0752 -54.002 14.2646 -57.0586 42.7939c-15.2832 116.154 137.552 60.1152 279.18 -34.6426c92.7188 -61.1338 225.176 -19.3594 261.856 85.5879M538.061 655.504c-6.49121 10.8184 -4.77832 23.0498 1.73633 31.8145
c5.94043 7.99316 15.875 13.1016 27.2207 11.6221c7.50195 -0.833008 13.6602 -4.69043 18.3408 -10.3535c6.93066 -8.38672 10.6162 -20.7354 10.6162 -33.083c0 -183.054 -112.727 -363.005 -28.957 -532.613c51.71 -104.454 134.446 -155.13 253.38 -143.754
c96.1797 8.27344 166.506 57.915 208.907 143.754c84.8057 169.608 -42.4014 349.56 -42.4014 532.613c0 13.9014 5.25195 26.6973 13.4688 34.957c7.67676 7.7168 17.9434 11.4756 28.9326 8.47949c6.65137 -1.75 11.8799 -5.51465 15.4062 -10.3301
c6.89258 -9.41309 7.2832 -22.8447 -0.926758 -33.1064" />
    <glyph glyph-name="M_P" unicode="M&#xb7;P" horiz-adv-x="1105" 
d="M569 373c-69 192 84 346 243 348c75 1 152 -31 209 -109c38 -54 53 -108 52 -161c-2 -138 -125 -256 -261 -261c-64 -2 -130 21 -189 77M41.8955 32.1592c-3.21094 -24.6152 18.1934 -46.0186 42.8076 -42.8086c21.4043 3.21094 35.3164 22.4746 42.8076 42.8086
c80.2656 197.987 -142.336 409.887 -42.8076 603.593c20.334 39.5967 56.7207 72.7734 100.599 71.7031s78.125 -34.2461 100.6 -71.7031c75.9834 -127.354 42.8076 -283.603 42.8076 -431.291c0 -35.3164 12.8418 -71.7031 42.8076 -71.7031
c31.0361 0 43.8779 36.3867 43.8779 71.7031c0 147.688 -33.1758 303.938 42.8086 431.291c22.4736 37.457 56.7207 70.6328 100.599 71.7031s79.1953 -32.1064 100.6 -71.7031c98.458 -193.706 -123.073 -405.605 -43.8779 -603.593
c8.56055 -20.334 22.4736 -39.5977 43.8779 -42.8086c24.6133 -3.20996 46.0176 18.1934 42.8076 42.8086" />
    <glyph glyph-name="N_A" unicode="N&#xb7;A" horiz-adv-x="947" 
d="M35 42c-4 -25 19 -47 49 -43c24 3 38 23 49 43c92 199 -115 391 -49 595c12 38 39 74 81 73c41 -1 64 -37 81 -73c81 -187 81 -387 163 -574c16 -36 40 -72 82 -73c41 -1 68 35 81 73c61 192 -127 378 -62 561c20 58 77 90 142 90c109 0 167 -103 185 -212
c27 -150 -4 -309 53 -450c8 -18 17 -36 27 -53M563 284h327" />
    <glyph glyph-name="N_E" unicode="N&#xb7;E" horiz-adv-x="1012" 
d="M35 42c-4 -25 19 -47 49 -43c24 3 38 23 49 43c92 199 -115 391 -49 595c12 38 39 74 81 73c41 -1 64 -37 81 -73c81 -187 81 -387 163 -574c16 -36 40 -72 82 -73c41 -1 68 35 81 73c34 105 -8 206 -37 309c-18 62 -34 133 -37 198c-4 69 23 140 83 140
c50 0 75 -53 112 -85c88 -74 224 -29 251 85M487 371h368M580 94c41 -18 91 -44 135 -74c90 -60 220 -18 256 84" />
    <glyph glyph-name="N_N" unicode="N&#xb7;N" horiz-adv-x="1083" 
d="M35 42c-4 -25 19 -47 49 -43c24 3 38 23 49 43c92 199 -115 391 -49 595c12 38 39 74 81 73c41 -1 64 -37 81 -73c81 -187 81 -387 163 -574c16 -36 40 -72 82 -73c41 -1 68 35 81 73c64 202 -139 397 -52 593c13 30 39 55 74 54c41 -1 64 -37 81 -73
c81 -187 81 -387 163 -574c16 -36 40 -72 82 -73c41 -1 68 35 81 73c65 204 -141 399 -49 597c9 21 25 40 49 44c28 3 53 -19 48 -44" />
    <glyph glyph-name="N_X" unicode="N&#xb7;X" horiz-adv-x="1091" 
d="M35 43c-4 -25 19 -47 49 -43c24 3 38 23 49 43c92 199 -115 390 -49 594c12 38 39 74 81 73c41 -1 64 -37 81 -73c81 -187 81 -387 163 -574c16 -36 40 -72 82 -73c41 -1 68 35 81 73c65 204 -141 395 -49 593c9 21 25 44 49 44c26 0 42 -17 46 -43
c26 -144 62 -307 196 -307c133 0 169 163 195 307c3 19 10 39 28 42c24 5 41 -22 28 -42M563 42c-9.674 -19.6133 1.902 -41.6758 22.52 -42c22.032 -0.3465 29.708 24.4451 32.48 42c29 174 34 386 196 386c161 0 167 -212 195 -386c2.78 -17.6279 10.63 -42 32.48 -42
c21.73 0 35.71 23.2524 23.52 42" />
    <glyph glyph-name="O_F" unicode="O&#xb7;F" horiz-adv-x="1036" 
d="M522 390h373M551 460c-5 16 -14 54 -8 111c9 84 67 158 142 142c48 -9 75 -57 114 -86c92.7124 -64.799 221.203 -22.2649 255.682 85M29.5049 351.251c0 -190.426 105.05 -366.205 266.445 -366.205c161.395 0 267.399 175.779 267.399 366.205
c0 189.381 -106.005 365.159 -267.399 365.159c-161.396 0 -266.445 -175.778 -266.445 -365.159" />
    <glyph glyph-name="O_Idieresis" unicode="O&#xb7;&#xcf;" 
d="M398.831 11.4868c102.046 56.0226 164.519 193.577 164.519 339.764c0 189.381 -106.005 365.159 -267.4 365.159c-161.395 0 -266.445 -175.778 -266.445 -365.159c0 -190.426 105.057 -366.205 255.188 -366.205c32.986 0 54.468 31.3626 54.468 58.597
c0 166.859 -78.245 303.95 -78.245 468.944c0 23.332 13.338 44.932 34.998 46.665c20.005 1.6 36.666 -15 34.999 -34.999M206 930c23 0 34 -25 34 -51c0 -25 -11 -51 -34 -51c-22 0 -34 26 -34 51c0 26 12 51 34 51M386 930c23 0 34 -25 34 -51c0 -25 -11 -51 -34 -51
c-22 0 -34 26 -34 51c0 26 12 51 34 51" />
    <glyph glyph-name="O_N_A" unicode="ON&#xb7;A" horiz-adv-x="1434" 
d="M438 42c-4 -25 19 -47 49 -43c24 3 38 23 49 43c30 65 36 130 15 192l-1 3M965 284h412M941 361c1 48 5 95 13 141c19 109 77 212 185 212c109 0 167 -103 185 -212c27 -150 -4 -309 53 -450c8 -18 17 -36 27 -53M481 617c1 7 4 13 6 20c12 38 39 74 81 73
c41 -1 64 -37 81 -73c81 -187 81 -387 163 -574c16 -36 40 -72 82 -73c41 -1 68 35 81 73c65 204 -141 399 -49 597c9 21 25 40 49 44c28 3 53 -19 48 -44M29.5049 351.251c0 -190.426 105.05 -366.205 266.445 -366.205c161.395 0 267.399 175.779 267.399 366.205
c0 189.381 -106.005 365.159 -267.399 365.159c-161.396 0 -266.445 -175.778 -266.445 -365.159" />
    <glyph glyph-name="O_T" unicode="O&#xb7;T" horiz-adv-x="917" 
d="M563 636v-636M405 686c46 -30 108 -49 158 -49c107 0 218 116 307 38c12 -10 21 -23 26 -38M29.5049 351.251c0 -190.426 105.05 -366.205 266.445 -366.205c161.395 0 267.399 175.779 267.399 366.205c0 189.381 -106.005 365.159 -267.399 365.159
c-161.396 0 -266.445 -175.778 -266.445 -365.159" />
    <glyph glyph-name="P_E" unicode="P&#xb7;E" horiz-adv-x="1010" 
d="M941.344 714.53c-26.986 -113.131 -162.951 -158.799 -251.172 -84.07c-37.365 31.137 -62.274 84.07 -112.093 84.07c-43.268 0 -69.377 -36.46 -79.1 -82.403M483.63 376.175h368.454M554.313 109.115c-0.904 -7.115 -2.22 -12.5827 -4.258 -21.4758
c-7.596 -33.1388 -23.871 -65.3877 -55.008 -70.5772c-26.986 -4.1516 -52.933 14.5306 -56.047 42.5539c-14.531 113.131 134.927 58.1221 272.968 -34.2507c90.297 -60.1983 220.034 -18.6823 256.361 84.0698M55.4785 42.1318
c-4.45703 -10.5869 -2.27246 -22.3828 4.10254 -30.9678c5.3877 -7.25781 13.7695 -12.2207 23.6621 -12.2207c9.42871 0 17.6826 4.50977 23.3037 11.2168c7.25195 8.65332 10.123 20.9658 5.48828 31.9717v633.434M58.5635 373.245
c-69.9238 191.263 83.293 345.508 242.679 347.564c75.0664 1.02832 152.189 -30.8486 208.745 -109c38.0469 -53.4707 53.4717 -107.971 52.4443 -160.415c-2.05762 -138.819 -125.453 -256.046 -261.189 -261.188c-63.7539 -2.05566 -130.594 20.5664 -189.207 77.123z
" />
    <glyph glyph-name="P_M" unicode="P&#xb7;M" horiz-adv-x="1176" 
d="M56.1996 42.132c-4.4579 -10.5875 -2.2725 -22.3829 4.1016 -30.968c5.3884 -7.25739 13.7702 -12.2206 23.6625 -12.2206c9.4292 0 17.6823 4.50938 23.3033 11.2167c7.252 8.6534 10.124 20.9654 5.489 31.9719v633.433M59.2845 373.245
c-69.9244 191.263 83.2925 345.508 242.679 347.565c73.909 1.012 149.812 -29.874 206.116 -105.42M530.928 333.732c-45.701 -81.877 -134.334 -139.94 -228.965 -143.525c-63.754 -2.056 -130.594 20.566 -189.207 77.123M473.896 32.1592
c-3.21094 -24.6152 18.1934 -46.0186 42.8076 -42.8086c21.4043 3.21094 35.3164 22.4746 42.8076 42.8086c80.2656 197.987 -142.336 409.887 -42.8076 603.593c20.334 39.5967 56.7207 72.7734 100.599 71.7031s78.125 -34.2461 100.6 -71.7031
c75.9834 -127.354 42.8076 -283.603 42.8076 -431.291c0 -35.3164 12.8418 -71.7031 42.8076 -71.7031c31.0361 0 43.8779 36.3867 43.8779 71.7031c0 147.688 -33.1758 303.938 42.8086 431.291c22.4736 37.457 56.7207 70.6328 100.599 71.7031
s79.1953 -32.1064 100.6 -71.7031c98.458 -193.706 -123.073 -405.605 -43.8779 -603.593c8.56055 -20.334 22.4736 -39.5977 43.8779 -42.8086c24.6133 -3.20996 46.0176 18.1934 42.8076 42.8086" />
    <glyph glyph-name="R_E" unicode="R&#xb7;E" horiz-adv-x="901" 
d="M833 715c-27 -114 -163.307 -159.364 -251 -85c-37.31 31.638 -62 85 -112 85c-23.197 0 -41.462 -10.613 -54.91 -27.62M376 376h368M64 40c-4.4848 -10.6514 -2.0556 -21.9313 4.6448 -29.7876c5.2519 -6.15786 13.1278 -10.2124 22.3552 -10.2124
c9.522 0 17.605 4.31773 22.85 10.8089c6.323 7.8243 8.523 18.8064 4.15 29.1911v648M64 475c-31 235 279.051 348.033 407 149c49.509 -77.015 48.543 -156.811 17.858 -221.772c-60.515 -128.117 -236.821 -198.658 -370.858 -77.228c103 113 307.829 79.973 337 -105
c14.829 -94.027 86 -220 212 -220c100 0 157 49 193 108" />
    <glyph glyph-name="R_Egrave" unicode="R&#xb7;&#xc8;" horiz-adv-x="901" 
d="M833 715c-27 -114 -163.307 -159.364 -251 -85c-37.3096 31.6377 -62 85 -112 85c-23.1973 0 -41.4619 -10.6133 -54.9102 -27.6201M376 376h368M64 40c-4.48438 -10.6514 -2.05566 -21.9316 4.64453 -29.7881c5.25195 -6.15723 13.1279 -10.2119 22.3555 -10.2119
c9.52246 0 17.6055 4.31738 22.8496 10.8086c6.32324 7.82422 8.52344 18.8066 4.15039 29.1914v648M64 475c-31 235 279.051 348.033 407 149c49.5088 -77.0146 48.543 -156.811 17.8584 -221.772c-60.5156 -128.116 -236.821 -198.657 -370.858 -77.2275
c103 113 307.829 79.9727 337 -105c14.8291 -94.0273 86 -220 212 -220c100 0 157 49 193 108M717 785l-242 104" />
    <glyph glyph-name="R_I" unicode="R&#xb7;I" horiz-adv-x="707" 
d="M64 42c-4.3223 -10.2653 -2.2227 -21.1145 3.9332 -28.9201c5.238 -6.64174 13.4127 -11.0799 23.0668 -11.0799c10.729 0 19.631 5.48184 24.706 13.378c4.857 7.5586 6.207 17.3295 2.294 26.622v638M64 477c-31 235 279 348 407 149c147 -229 -151 -482 -353 -299z
M118 327c103 113 288 84 353 -54c49 -106 17 -273 103 -273c41 0 52 28 52 56c0 199 -84 389 -84 588c0 28 16 54 42 56c24 2 44 -18 42 -42" />
    <glyph glyph-name="R_S" unicode="R&#xb7;S" horiz-adv-x="979" 
d="M64 43c-3.9387 -9.8467 -2.3023 -20.4206 3 -28.6188c5.4668 -8.45356 14.8314 -14.3812 26 -14.3812c11.964 0 21.562 6.8018 26.382 16.2241c4.043 7.904 4.724 17.6521 0.618 26.7759v646M67 468c-30 156 100 261 228 255c67 -3 132 -36 175 -109
c23 -39 33 -77 33 -114c-1 -114 -101 -208 -212 -216c-58 -4 -118 14 -171 64M120 348c103 113 270.078 74.035 353 -54c68.887 -106.364 51.728 -294 253.003 -294c113.404 0 218.464 71.333 216.784 183.948c-3.227 216.257 -341.592 138.755 -443.733 278.301z
M477.923 599.887c26.024 76.577 116.15 125.524 213.077 117.113c122.036 -10.59 222 -100 247 -220" />
    <glyph glyph-name="R_X" unicode="R&#xb7;X" horiz-adv-x="1026" 
d="M64 43c-4.6205 -11.5513 -1.5686 -24.1033 6.073 -32.6468c5.5891 -6.24882 13.6335 -10.3532 22.927 -10.3532c12.187 0 21.919 7.05804 26.647 16.7543c3.806 7.8072 4.367 17.3249 0.353 26.2457v646M67 468c-30 156 100 261 228 255c67 -3 132 -36 175 -109
c23 -39 33 -77 33 -114c-1 -114 -101 -208 -212 -216c-58 -4 -118 14 -171 64l377 -308c-9.133 -20.0924 2.587 -40.1848 22.97 -40.471c22.487 -0.3158 30.169 24.353 33.03 42.471c29 174 34 387 196 387c161 0 167 -213 195 -387c3 -19 10 -38 28 -42c24 -4 41 22 28 42z
M498 658c-6.607 9.439 -6.087 20.437 -1.172 28.895c5.499 9.463 16.499 15.745 29.172 13.105c17 -3 24 -23 27 -42c26 -144 62 -307 196 -307c133 0 169 163 195 307c3 19 10 39 28 42c11.797 2.458 21.903 -2.816 27.586 -11.191
c5.874 -8.662 7.024 -20.64 0.414 -30.809" />
    <glyph glyph-name="R_X_S_E" unicode="R&#xb7;X&#xb7;SE" horiz-adv-x="1871" 
d="M64 43c-8 -20 7 -43 29 -43s36 23 27 43v646M67 468c-30 156 100 261 228 255c67 -3 132 -36 175 -109c23 -39 33 -77 33 -114c-1 -114 -101 -208 -212 -216c-58 -4 -118 14 -171 64l377 -304c-6.693 -9.7816 -5.964 -21.1535 -0.816 -29.8857
c4.851 -8.22935 13.627 -14.1143 23.816 -14.1143c21 -1 29 24 32 44c29 174 34 385 196 385c106 0 142 -85 162 -186c35 -176 133 -243 258 -257c60.73 -6.9689 116.5 7.86719 161.4 34.641M497 658c-14 20 4 47 28 42c17 -3 24 -23 27 -42c26 -144 62 -307 196 -307
c133 0 169 163 195 307c3 19 10 39 28 42c18 4 37 -20 21 -42M1359 616c-47 57 -115 94 -191 101c-120 10 -229 -67 -220 -176c21 -235 409 -122 467 -321c4 -14 7 -29 7 -43M1803 714.53c-26.9863 -113.131 -162.951 -158.799 -251.172 -84.0703
c-37.3652 31.1367 -62.2744 84.0703 -112.093 84.0703c-60.1992 0 -87.1846 -70.5771 -83.0322 -139.079c8.30273 -166.064 94.4482 -325.9 55.0078 -487.812c-7.26465 -33.2129 -23.8711 -65.3877 -55.0078 -70.5771c-26.9854 -4.15234 -52.9336 14.5303 -56.0469 42.5537
c-14.5303 113.131 134.927 58.1221 272.968 -34.251c90.2969 -60.1982 220.034 -18.6816 256.361 84.0693M1345.29 376.175h368.454" />
    <glyph glyph-name="S_C" unicode="S&#xb7;C" horiz-adv-x="1047" 
d="M1007 605c-49 69 -119 113 -205 113c-128 0 -222 -98 -262 -226c-29 126 -127 214 -249 225c-120 10 -229 -67 -220 -176c21 -235 409 -122 467 -321c40 -131 -92 -252 -247 -234c-121 14 -221 101 -249 220M541 209c44 -125 123 -226 261 -226c86 0 156 44 205 113z
" />
    <glyph glyph-name="S_E" unicode="S&#xb7;E" horiz-adv-x="995" 
d="M482 616c-47 57 -115 94 -191 101c-120 10 -229 -67 -220 -176c21 -235 409 -122 467 -321c4 -14 7 -29 7 -43M452 20c-44 -27 -101 -41 -161 -34c-121 14 -221 101 -249 220M926.344 714.53c-26.9854 -113.131 -162.951 -158.799 -251.172 -84.0703
c-37.3652 31.1367 -62.2734 84.0703 -112.093 84.0703c-60.1992 0 -87.1846 -70.5771 -83.0322 -139.079c8.30273 -166.064 94.4482 -325.9 55.0078 -487.812c-7.26465 -33.2129 -23.8711 -65.3877 -55.0078 -70.5771c-26.9854 -4.15234 -52.9336 14.5303 -56.0469 42.5537
c-14.5303 113.131 134.927 58.1221 272.968 -34.251c90.2969 -60.1982 220.034 -18.6816 256.361 84.0693M468.63 376.175h368.454" />
    <glyph glyph-name="S_H_E" unicode="S&#xb7;HE" horiz-adv-x="1435" 
d="M42 206c28 -119 128 -206 249 -220c77 -9 148 16 194 58c-7.586 -11.6701 -4.957 -25.3831 3.317 -33.9868c5.906 -6.14112 14.687 -9.6792 24.683 -8.0132c18 4 25 23 28 42c4.921 36.2056 2.923 72.164 -1.738 108.049c-8.599 66.203 -26.262 132.157 -26.262 198.951
c0 55.901 12.135 110.646 21.185 165.323c7.786 47.046 13.29 94.041 6.815 141.677c-3 19 -10 39 -28 42c-24 4 -41 -22 -28 -42c-33 34 -117 52 -194 59c-120 10 -229 -67 -220 -176c19 -213 339 -139 450 -278M1367 715c-27 -114 -163 -159 -251 -85
c-37 32 -62 85 -112 85c-60 0 -87 -71 -83 -140c8 -166 94 -325 55 -487c-7 -34 -24 -66 -55 -71c-27 -4 -53 15 -56 43c-15 113 135 58 273 -35c90 -60 220 -18 256 84M513 351h764" />
    <glyph glyph-name="S_L" unicode="S&#xb7;L" horiz-adv-x="1004" 
d="M448 18c-44 -26 -99 -39 -157 -32c-121 14 -221 101 -249 220M449.405 650.669c-42.497 41.138 -92.094 60.647 -158.405 66.331c-120 10 -229 -67 -220 -176M71 541c20 -228 384.447 -130.5 461.111 -319.928M606.667 660.964
c-5.09473 27.5098 -32.6055 55.0205 -62.1533 55.0205c-62.1523 0 -82.5312 -57.0586 -78.4551 -127.362c9.16992 -169.138 97.8145 -334.199 57.0586 -499.262c-7.13184 -34.6426 -23.4355 -67.2471 -56.04 -72.3418c-27.5098 -4.0752 -54.002 14.2646 -57.0586 42.7939
c-15.2832 116.154 137.552 60.1152 279.18 -34.6426c92.7188 -61.1338 225.176 -19.3594 261.856 85.5879" />
    <glyph glyph-name="S_S" unicode="S&#xb7;S" horiz-adv-x="1051" 
d="M547.466 503.201c-25.191 119.654 -134.957 203.023 -256.711 213.519c-119.654 10.496 -228.813 -67.174 -219.366 -175.283c20.992 -235.111 408.294 -122.803 467.072 -321.178c39.885 -131.2 -92.365 -251.904 -247.706 -234.061
c-120.704 13.6448 -220.416 100.762 -248.755 219.367M1007.1 497.354c-25.187 119.654 -125.948 208.87 -247.702 219.366c-119.654 10.496 -228.812 -67.174 -219.366 -175.283c20.992 -235.111 408.294 -122.803 467.068 -321.178
c39.89 -131.2 -92.361 -251.904 -247.702 -234.061c-92.514 10.4581 -172.696 64.0777 -217.862 141.956" />
    <glyph glyph-name="S_S_E" unicode="S&#xb7;SE" horiz-adv-x="1592" 
d="M1524 715c-27 -114 -163 -159 -251 -85c-37 32 -62 85 -112 85c-60 0 -87 -71 -83 -140c8 -166 94 -325 55 -487c-7 -34 -24 -66 -55 -71c-27 -4 -53 15 -56 43c-15 113 135 58 273 -35c90 -60 220 -18 256 84M538 125c38 -78 123 -129 211 -139
c155 -18 287 103 247 234c-58 199 -446 86 -467 321c-9 109 100 186 220 176c95 -9 194 -57 224 -162c43 -153 65 -177 212 -178l250 -1M538.461 497.354c-25.1914 119.654 -125.952 208.87 -247.706 219.366c-119.654 10.4961 -228.812 -67.1738 -219.366 -175.283
c20.9922 -235.11 408.294 -122.803 467.072 -321.178c39.8848 -131.199 -92.3652 -251.903 -247.706 -234.061c-120.704 13.6445 -220.416 100.762 -248.755 219.367" />
    <glyph glyph-name="S_T" unicode="S&#xb7;T" horiz-adv-x="1149" 
d="M462 637c-45 45 -105 74 -171 80c-120 10 -229 -67 -220 -176c21 -235 409 -122 467 -321c40 -131 -92 -252 -247 -234c-121 14 -221 101 -249 220M462 637c5 15 14 28 26 38c90 78 200 -38 307 -38s218 116 307 38c12 -10 21 -23 26 -38M795 636v-636" />
    <glyph glyph-name="T_E" unicode="T&#xb7;E" horiz-adv-x="1197" 
d="M21 637c5 15 14 28 26 38c90 78 200 -38 307 -38s218 116 307 38c12 -10 21 -23 26 -38M354 636v-636M1128.34 714.53c-26.9854 -113.131 -162.951 -158.799 -251.172 -84.0703c-37.3652 31.1367 -62.2734 84.0703 -112.093 84.0703
c-60.1992 0 -87.1846 -70.5771 -83.0322 -139.079c8.30273 -166.064 94.4482 -325.9 55.0078 -487.812c-7.26465 -33.2129 -23.8711 -65.3877 -55.0078 -70.5771c-26.9854 -4.15234 -52.9336 14.5303 -56.0469 42.5537c-14.5303 113.131 134.927 58.1221 272.968 -34.251
c90.2969 -60.1982 220.034 -18.6816 256.361 84.0693M670.63 376.175h368.454" />
    <glyph glyph-name="T_Egrave" unicode="T&#xb7;&#xc8;" horiz-adv-x="1197" 
d="M21 637c5 15 14 28 26 38c90 78 200 -38 307 -38s218 116 307 38c12 -10 21 -23 26 -38M354 636v-636M1128.34 714.53c-26.9854 -113.131 -162.951 -158.799 -251.172 -84.0703c-37.3652 31.1367 -62.2734 84.0703 -112.093 84.0703
c-60.1992 0 -87.1846 -70.5771 -83.0322 -139.079c8.30273 -166.064 94.4482 -325.9 55.0078 -487.812c-7.26465 -33.2129 -23.8711 -65.3877 -55.0078 -70.5771c-26.9854 -4.15234 -52.9336 14.5303 -56.0469 42.5537c-14.5303 113.131 134.927 58.1221 272.968 -34.251
c90.2969 -60.1982 220.034 -18.6816 256.361 84.0693M670.63 376.175h368.454M1016 785l-242 104" />
    <glyph glyph-name="T_T" unicode="T&#xb7;T" horiz-adv-x="1177" 
d="M21 637c5 15 14 28 26 38c90 78 200 -38 307 -38c78 0 158 63 230 65c75 2 158 -65 239 -65c107 0 218 116 307 38c12 -10 21 -23 26 -38M354 636v-636M823 636v-636" />
    <glyph glyph-name="T_T_E" unicode="T&#xb7;TE" horiz-adv-x="1666" 
d="M21 637c5 15 14 28 26 38c90 78 200 -38 307 -38c78 0 158 63 230 65c75 2 158 -65 239 -65c107 0 218 116 307 38c12 -10 21 -23 26 -38M354 636v-636M823 636v-636M1597.34 714.53c-26.9854 -113.131 -162.951 -158.799 -251.172 -84.0703
c-37.3652 31.1367 -62.2734 84.0703 -112.093 84.0703c-60.1992 0 -87.1846 -70.5771 -83.0322 -139.079c8.30273 -166.064 94.4482 -325.9 55.0078 -487.812c-7.26465 -33.2129 -23.8711 -65.3877 -55.0078 -70.5771c-26.9854 -4.15234 -52.9336 14.5303 -56.0469 42.5537
c-14.5303 113.131 134.927 58.1221 272.968 -34.251c90.2969 -60.1982 220.034 -18.6816 256.361 84.0693M1139.63 376.175h368.454" />
    <glyph glyph-name="U_E" unicode="U&#xb7;E" horiz-adv-x="1033" 
d="M63 656c-12 20 5 46 29 43c19 -2 29 -23 29 -43c0 -184 -113 -364 -29 -533c52 -105 134 -155 253 -144c52 5 97 21 134 49M964.344 714.53c-26.9854 -113.131 -162.951 -158.799 -251.172 -84.0703c-37.3652 31.1367 -62.2734 84.0703 -112.093 84.0703
c-60.1992 0 -87.1846 -70.5771 -83.0322 -139.079c8.30273 -166.064 94.4482 -325.9 55.0078 -487.812c-7.26465 -33.2129 -23.8711 -65.3877 -55.0078 -70.5771c-26.9854 -4.15234 -52.9336 14.5303 -56.0469 42.5537c-14.5303 113.131 134.927 58.1221 272.968 -34.251
c90.2969 -60.1982 220.034 -18.6816 256.361 84.0693M506.63 376.175h368.454" />
    <glyph glyph-name="U_L" unicode="U&#xb7;L" horiz-adv-x="1056" 
d="M63 656c-12 20 5 46 29 43c19 -2 29 -23 29 -43c0 -184 -113 -364 -29 -533c52 -105 134 -155 253 -144c52 5 97 21 134 49M658.667 660.964c-5.09473 27.5098 -32.6055 55.0205 -62.1533 55.0205c-62.1523 0 -82.5312 -57.0586 -78.4551 -127.362
c9.16992 -169.138 97.8145 -334.199 57.0586 -499.262c-7.13184 -34.6426 -23.4355 -67.2471 -56.04 -72.3418c-27.5098 -4.0752 -54.002 14.2646 -57.0586 42.7939c-15.2832 116.154 137.552 60.1152 279.18 -34.6426c92.7188 -61.1338 225.176 -19.3594 261.856 85.5879z
" />
    <glyph glyph-name="U_N_E" unicode="UN&#xb7;E" horiz-adv-x="1512" 
d="M535 42c-4 -25 19 -47 49 -43c24 3 38 23 49 43c92 199 -115 391 -49 595c12 38 39 74 81 73c41 -1 64 -37 81 -73c81 -187 81 -387 163 -574c16 -36 40 -72 82 -73c41 -1 68 35 81 73c34 105 -8 206 -37 309c-18 62 -34 133 -37 198c-4 69 23 140 83 140
c50 0 75 -53 112 -85c88 -74 224 -29 251 85M987 371h368M1080 94c41 -18 91 -44 135 -74c90 -60 220 -18 256 84M64.0605 655.504c-6.49121 10.8184 -4.77832 23.0498 1.73633 31.8145c5.94043 7.99316 15.875 13.1016 27.2207 11.6221
c7.50195 -0.833008 13.6602 -4.69043 18.3408 -10.3535c6.93066 -8.38672 10.6162 -20.7354 10.6162 -33.083c0 -183.054 -112.727 -363.005 -28.957 -532.613c51.71 -104.454 134.446 -155.13 253.38 -143.754c96.1797 8.27344 166.506 57.915 208.907 143.754
c84.8057 169.608 -42.4014 349.56 -42.4014 532.613c0 13.9014 5.25195 26.6973 13.4688 34.957c7.67676 7.7168 17.9434 11.4756 28.9326 8.47949c6.65137 -1.75 11.8799 -5.51465 15.4062 -10.3301c6.89258 -9.41309 7.2832 -22.8447 -0.926758 -33.1064" />
    <glyph glyph-name="X_C" unicode="X&#xb7;C" horiz-adv-x="900" 
d="M26 658c-14 20 4 47 28 42c17 -3 24 -23 27 -42c26 -144 62 -307 196 -307c40 0 72 15 97 40M26 44c-5.587 -24.2104 2.6992 -43.2184 23.2439 -42.4907c21.6329 0.7662 28.9764 24.8857 31.7561 42.4907c29 174 34 385 196 385c42 0 73 -14 97 -38M859.374 605.362
c-49.5342 68.3281 -119.286 112.478 -205.213 112.478c-170.842 0 -282.041 -176.602 -282.041 -366.869c0 -191.317 111.199 -367.92 282.041 -367.92c85.9268 0 155.679 44.1504 205.213 112.479" />
    <glyph glyph-name="X_L" unicode="X&#xb7;L" horiz-adv-x="877" 
d="M26 658c-14 20 4 47 28 42c17 -3 24 -23 27 -42c26 -144 62 -307 196 -307c41 0 72 15 97 41c-24 23 -55 37 -97 37c-162 0 -167 -211 -196 -385c-2.7328 -17.3074 -10.4488 -42.6827 -32.2444 -42.4235c-19.9128 0.2368 -26.4487 23.0349 -22.7556 42.4235z
M479.934 660.964c-5.09473 27.5098 -32.6045 55.0205 -62.1523 55.0205c-62.1533 0 -82.5312 -57.0586 -78.4561 -127.362c9.16992 -169.138 97.8145 -334.199 57.0586 -499.262c-7.13184 -34.6426 -23.4346 -67.2471 -56.0391 -72.3418
c-27.5107 -4.0752 -54.002 14.2646 -57.0586 42.7939c-15.2842 116.154 137.551 60.1152 279.179 -34.6426c92.7188 -61.1338 225.176 -19.3594 261.857 85.5879" />
    <glyph glyph-name="X_L_L" unicode="X&#xb7;LL" horiz-adv-x="1326" 
d="M26 658c-14 20 4 47 28 42c17 -3 24 -23 27 -42c26 -144 62 -307 196 -307c41 0 72 15 97 41c-24 23 -55 37 -97 37c-162 0 -167 -211 -196 -385c-2.8333 -17.9441 -11.1179 -44.2273 -34.0101 -42.3411c-18.5321 1.5269 -24.5716 23.5375 -20.9899 42.3411z
M480.36 661.014c-5 27 -33 55 -62 55c-63 0 -83 -57 -79 -127c9 -170 98 -335 57 -500c-7 -34 -23 -67 -56 -72c-27 -4 -54 14 -57 43c-15 116 138 59.9998 279 -35c60 -39 135 -36 192 -1M928.667 660.964c-5.09473 27.5098 -32.6055 55.0205 -62.1533 55.0205
c-62.1523 0 -82.5312 -57.0586 -78.4551 -127.362c9.16992 -169.138 97.8145 -334.199 57.0586 -499.262c-7.13184 -34.6426 -23.4355 -67.2471 -56.04 -72.3418c-27.5098 -4.0752 -54.002 14.2646 -57.0586 42.7939c-15.2832 116.154 137.552 60.1152 279.18 -34.6426
c92.7188 -61.1338 225.176 -19.3594 261.856 85.5879" />
    <glyph glyph-name="X_S" unicode="X&#xb7;S" horiz-adv-x="988" 
d="M26 658c-6.5413 9.345 -6.0967 20.218 -1.3182 28.641c5.4486 9.604 16.5319 16.023 29.3182 13.359c7.3943 -1.305 12.8967 -5.826 17 -12.082c5.3327 -8.127 8.3049 -19.182 10 -29.918c26 -144 62 -307 196 -307c133 0 169 163 195 307
c1.558 9.868 4.195 20.006 8.892 27.892c4.346 7.297 10.457 12.666 19.108 14.108c10.006 2.224 20.321 -4.205 24.761 -14.132c3.547 -7.932 3.345 -18.097 -3.761 -27.868M26 44c-3.7173 -18.5866 2.9292 -42.3551 23.15 -42.4113
c21.4867 -0.0597 29.1589 25.3679 31.85 42.4113c29 174 34 385 196 385c106 0 142 -85 162 -186c35 -176 133 -243 258 -257c155 -18 287 103 247 234c-58 199 -446 86 -467 321c-9 109 100 186 220 176c122 -11 203 -99 247 -219" />
    <glyph glyph-name="X_S_S" unicode="X&#xb7;SS" horiz-adv-x="1447" 
d="M1402.84 497c-25 120 -125 209 -247 220c-120 10 -228.998 -67 -219.998 -176c21 -235 408.998 -122 466.998 -321c40 -131 -92 -252 -247 -234c-89 10 -166.998 61 -212.998 134M26 658c-6.54102 9.34473 -6.09668 20.2178 -1.31836 28.6406
c5.44922 9.60449 16.5322 16.0234 29.3184 13.3594c7.39453 -1.30469 12.8965 -5.82617 17 -12.082c5.33301 -8.12695 8.30469 -19.1816 10 -29.918c26 -144 62 -307 196 -307c133 0 169 163 195 307c1.55762 9.86816 4.19531 20.0059 8.8916 27.8916
c4.34668 7.29785 10.457 12.666 19.1084 14.1084c10.0059 2.22363 20.3213 -4.20508 24.7607 -14.1318c3.54688 -7.93262 3.3457 -18.0967 -3.76074 -27.8682M26 44c-3.71777 -18.5869 2.92969 -42.3555 23.1504 -42.4111
c21.4863 -0.0595703 29.1582 25.3682 31.8496 42.4111c29 174 34 385 196 385c106 0 142 -85 162 -186c35 -176 133 -243 258 -257c155 -18 287 103 247 234c-58 199 -446 86 -467 321c-9 109 100 186 220 176c122 -11 203 -99 247 -219" />
    <glyph glyph-name="a_e" unicode="a&#xb7;e" horiz-adv-x="870" 
d="M55 378c21 81 94 138 178 137c111 -1 197 -95 188 -205v-87M421 310c0 -215 -310 -23 -376 -137c-54 -92 50 -208 188 -182c88 17 163 80 184 167c4 18 5 20 6 36M829 170.229c-17 -95 -93 -168 -188 -181c-124 -16 -202 69 -214 184
c-2.90234 28.2988 44.4785 39.6602 107.423 51c110.547 19.916 269.1 39.8555 287.577 152c14 88 -80 154 -181 137c-78 -14 -142 -47 -189 -138c-52 -101 -31 -237 4 -297" />
    <glyph glyph-name="a_l" unicode="a&#xb7;l" horiz-adv-x="565" 
d="M55 378c21 81 94 138 178 137c111 -1 197 -95 188 -205v-257c-5.323 -13.3071 -2.713 -27.1808 4.965 -37.2477c6.747 -8.84582 17.407 -14.7523 30.035 -14.7523c12.161 0 22.572 5.90671 29.186 14.7528c7.527 10.0668 10.137 23.9403 4.814 37.2472M421 310
c0 -215 -310 -23 -376 -137c-54 -92 50 -208 188 -182c93 18 167 89 188 182M420 648c-5.822 14.554 -2.154 29.786 7.255 39.974c6.753 7.312 16.463 12.026 27.745 12.026c11.436 0 21.437 -4.844 28.331 -12.328c9.382 -10.186 13.01 -25.261 6.669 -39.672v-595" />
    <glyph glyph-name="a_o" unicode="a&#xb7;o" horiz-adv-x="885" 
d="M55 378c21 81 94 138 178 137c111 -1 197 -95 188 -205v-50M421 310c0 -215 -310 -23 -376 -137c-54 -92 50 -209 188 -182c93 18 173 84 193 200M636 516c-127 2 -213 -123 -215 -260c-2 -141 84 -272 215 -270c128 2 210 132 208 270c-3 134 -83 258 -208 260" />
    <glyph glyph-name="a_u_l_a" unicode="au&#xb7;la" horiz-adv-x="1128" 
d="M54 378c21 81 94 138 178 137c111 -1 197 -95 188 -205v-257c-6.08691 -15.2188 -1.79883 -31.1777 8.5791 -41.3369c6.66992 -6.5293 15.8564 -10.6631 26.4209 -10.6631c12.6387 0 23.3867 6.37988 29.9482 15.8096c6.93457 9.96777 9.19043 23.3428 4.05176 36.1904z
M420 310c0 -215 -310 -23 -376 -137c-54 -92 50 -208 188 -182c93 18 167 89 188 182M491.89 57.6123c-6.45508 10.7578 -6.3916 22.6338 -1.9043 32.2412c5.87988 12.5918 19.3555 21.2871 35.71 18.4678c11.0928 -2.01758 19.1162 -9.14746 24.5918 -18.668
c5.32227 -9.25488 8.23535 -20.7695 9.21484 -32.041c6.95996 -68.6074 -25.8516 -134.231 -33.8066 -202.837c-16.9023 -147.157 84.5156 -281.388 219.74 -267.468c120.311 12.9258 185.935 138.208 185.935 267.468v246.586M931.37 101.361v-500.133M459.397 903.404
c-5.58105 13.9512 -2.44141 28.5244 6.11426 38.6816c6.77734 8.04395 16.9521 13.3184 28.8857 13.3184c11.752 0 21.9883 -5.11523 28.8945 -12.9541c8.96094 -10.1709 12.3174 -24.9268 6.10547 -39.0459v-646M659.397 633.404c21 81 94 138 178 137
c111 -1 197 -95 188 -205v-257c-6.08789 -15.2188 -1.7998 -31.1777 8.57812 -41.3369c6.6709 -6.53027 15.8574 -10.6631 26.4219 -10.6631c12.6387 0 23.3867 6.37988 29.9473 15.8086c6.93555 9.96875 9.19141 23.3438 4.05273 36.1914M1025.4 565.404
c0 -215 -310 -23 -376 -137c-54 -92 50 -208 188 -182c93 18 167 89 188 182" />
    <glyph glyph-name="banana" unicode="bananaa" horiz-adv-x="482" 
d="M455 629c63 -142 49 -309 -41 -437c-81 -115 -213 -187 -358 -193l-26 28c108 74 200 169 273 276c63 92 111 192 138 300l-14 83l28 14v-71" />
    <glyph glyph-name="c_h" unicode="c&#xb7;h" horiz-adv-x="805" 
d="M421 422c-37 49 -89 91 -152 91c-126 0 -209 -126 -209 -261c0 -136 83 -262 209 -262c63 0 115 32 152 80M351 648c-10 25 8 52 35 52s46 -27 35 -52v-226c42 59 103 107 175 103c75 -3 136 -64 139 -139v-384" />
    <glyph glyph-name="c_q" unicode="c&#xb7;q" horiz-adv-x="535" 
d="M491 458c6.044 13.737 3.031 28.38 -5.391 38.786c-6.905 8.531 -17.445 14.214 -29.609 14.214c-11.232 0 -20.906 -4.846 -27.656 -12.305c-9.474 -10.472 -13.184 -26.095 -7.344 -40.695v-25c-37 49 -89 80 -152 80c-126 0 -209 -126 -209 -261
c0 -136 83 -262 209 -262c63 0 115 32 152 80v-259" />
    <glyph glyph-name="d_e" unicode="d&#xb7;e" horiz-adv-x="891" 
d="M439 292c-17 122 -103 227 -217 217c-115 -10 -181 -127 -183 -249c-3 -128 65 -254 183 -264c142 -12 239 138 217 296M442 252v447M850 171c-17 -95 -93 -168 -188 -181c-124 -16 -202 69 -214 184c-2.90234 28.2988 44.4785 39.6602 107.423 51
c110.547 19.916 269.1 39.8555 287.577 152c14 88 -80 154 -181 137c-78 -14 -142 -47 -189 -138c-52 -101 -31 -237 4 -297" />
    <glyph glyph-name="d_u_d_e_l_a" unicode="du&#xb7;dela" horiz-adv-x="1613" 
d="M438.688 293.112c-16.7041 121.567 -103.009 226.432 -217.152 217.151c-114.145 -10.208 -180.96 -127.136 -182.816 -249.632c-2.78418 -128.063 64.96 -253.344 182.816 -263.552c141.983 -12.0645 239.424 138.271 217.152 296.032M512 53
c5.71484 -12.9893 3.33203 -26.7891 -4.06543 -37.0498c-6.83887 -9.4873 -17.9639 -15.9502 -30.9346 -15.9502c-11.749 0 -21.793 5.30176 -28.5684 13.3506c-8.79492 10.4492 -12.0811 25.5273 -6.43164 39.6494v647M513.261 55.7041
c-6.45508 10.7578 -6.3916 22.6338 -1.9043 32.2422c5.87988 12.5908 19.3555 21.2871 35.71 18.4668c11.0928 -2.0166 19.1162 -9.14746 24.5918 -18.668c5.32227 -9.25488 8.23438 -20.7695 9.21484 -32.041c6.95996 -68.6074 -25.8516 -134.231 -33.8066 -202.837
c-16.9023 -147.157 84.5156 -281.388 219.74 -267.468c120.311 12.9268 185.935 138.209 185.935 267.468v246.586M952.741 99.4531v-500.133M941.598 410.632c-17 -95 -93 -168 -188 -181c-124 -16 -202 69 -214 184c-2.90234 28.2988 44.4785 39.6602 107.424 51
c110.547 19.916 269.099 39.8555 287.576 152c14 88 -80 154 -181 137c-78 -14 -142 -47 -189 -138c-52 -101 -31 -237 4 -297M963.606 873.694c-5.58105 13.9502 -2.44141 28.5244 6.11426 38.6816c6.77734 8.04395 16.9521 13.3184 28.8857 13.3184
c11.752 0 21.9883 -5.11523 28.8945 -12.9541c8.96094 -10.1709 12.3174 -24.9268 6.10547 -39.0459v-646M1144.81 619.3c21 81 94 138 178 137c111 -1 197 -95 188 -205v-257c-6.08691 -15.2178 -1.79883 -31.1777 8.5791 -41.3369
c6.66992 -6.5293 15.8574 -10.6631 26.4209 -10.6631c12.6396 0 23.3877 6.37988 29.9482 15.8096c6.93555 9.96777 9.19141 23.3438 4.05176 36.1904M1510.81 551.3c0 -215 -310 -23 -376 -137c-54 -92 50 -208 188 -182c93 18 167 89 188 182" />
    <glyph glyph-name="e_a" unicode="e&#xb7;a" horiz-adv-x="930" 
d="M440.15 143.751c-23 -78.0002 -94.15 -141.751 -181.15 -153.751c-124 -16 -202 69 -214 184c-3.2899 32.077 60.39 42.337 138.533 55.54c111.875 18.903 253.393 43.838 270.467 147.46c14 88 -94 154 -195 137c-78 -14 -142 -47 -189 -138c-52 -101 -31 -237 4 -297z
M453 377c14 88 103 139 187 138c111 -1 197 -95 188 -205v-257c-6.023 -15.0575 -1.889 -30.8405 8.252 -41.0127c6.696 -6.71682 16.01 -10.9873 26.748 -10.9873c11.139 0 20.809 4.95543 27.439 12.5861c8.845 10.1809 12.277 25.1241 6.561 39.4139M828 310
c0 -215 -310 -23 -376 -137c-54 -92 50 -208 188 -182c93 18 167 89 188 182" />
    <glyph glyph-name="e_o" unicode="e&#xb7;o" horiz-adv-x="902" 
d="M447 171c-17 -95 -93 -168 -188 -181c-124 -16 -202 69 -214 184c-2.90234 28.2988 44.4785 39.6602 107.423 51c110.547 19.916 269.1 39.8555 287.577 152c14 88 -80 154 -181 137c-78 -14 -142 -47 -189 -138c-52 -101 -31 -237 4 -297M653 516
c-127 2 -213 -123 -215 -260c-2 -141 84 -272 215 -270c128 2 210 132 208 270c-3 134 -83 258 -208 260" />
    <glyph glyph-name="e_s" unicode="e&#xb7;s" horiz-adv-x="872" 
d="M427 115c-31 -67 -93 -115 -168 -125c-124 -16 -202 69 -214 184c-3.1517 30.729 52.9867 41.437 123.961 53.891c109.179 19.157 253.464 42.447 271.039 149.109c14 88 -80 154 -181 137c-78 -14 -142 -47 -189 -138c-52 -101 -31 -237 4 -297M821 407
c-48 65 -125 103 -206 103c-96 0 -185 -56 -171 -137c11 -72 94 -94 171 -103c98 -12 205 -48 211 -138c7 -95 -103 -154 -211 -137c-77 12 -142 56 -187 120" />
    <glyph glyph-name="e_s_s_e" unicode="e&#xb7;sse" horiz-adv-x="1667" 
d="M825.468 114.939c45 -64 110 -108 187 -120c108 -17 218 42 211 137c-6 90 -113 126 -211 138c-77 9 -160 31 -171 103c-14 81 75 137 171 137c98.874 0 120.148 -43.0127 193.851 -72.7764c129.652 -52.3584 390.403 -3.73438 412.307 129.194c14 88 -80 154 -181 137
c-78 -14 -142 -47 -189 -138c-34.124 -66.2803 -35.752 -147.681 -23.6748 -212.737c4.25195 -29.8115 13.0498 -57.3828 26.0273 -81.4102c34.6895 -64.2236 99.2402 -103.131 186.647 -91.8525c95 13 171 86 188 181M427 115c-31 -67 -93 -115 -168 -125
c-124 -16 -202 69 -214 184c-3.15137 30.7285 52.9863 41.4365 123.961 53.8906c109.179 19.1572 253.464 42.4473 271.039 149.109c14 88 -80 154 -181 137c-78 -14 -142 -47 -189 -138c-52 -101 -31 -237 4 -297M821 407c-48 65 -125 103 -206 103
c-96 0 -185 -56 -171 -137c11 -72 94 -94 171 -103c98 -12 205 -48 211 -138c7 -95 -103 -154 -211 -137c-77 12 -142 56 -187 120" />
    <glyph glyph-name="e_s_s_e_s" unicode="e&#xb7;sses" horiz-adv-x="2048" 
d="M2001.15 408.327c-48 65 -125 103 -206 103c-96 0 -185 -56 -171 -137c11 -72 94 -94 171 -103c98 -12 205 -48 211 -138c7 -95 -103 -154 -211 -137c-77 12 -142 56 -187 120M825.317 116.327c45 -64 110 -108 187 -120c108 -17 218 42 211 137
c-6 90 -113 126 -211 138c-77 9 -160 31 -171 103c-14 81 75 137 171 137c98.874 0 120.147 -43.0137 193.85 -72.7764c129.653 -52.3594 390.404 -3.73535 412.307 129.194c14 88 -80 154 -181 137c-78 -14 -142 -47 -189 -138
c-34.124 -66.2803 -35.752 -147.682 -23.6748 -212.737c4.25195 -29.8125 13.0498 -57.3828 26.0283 -81.4102c34.6885 -64.2236 99.2402 -103.131 186.646 -91.8525c95 13 171 86 188 181M427 115c-31 -67 -93 -115 -168 -125c-124 -16 -202 69 -214 184
c-3.15137 30.7285 52.9863 41.4365 123.961 53.8906c109.179 19.1572 253.464 42.4473 271.039 149.109c14 88 -80 154 -181 137c-78 -14 -142 -47 -189 -138c-52 -101 -31 -237 4 -297M821 407c-48 65 -125 103 -206 103c-96 0 -185 -56 -171 -137c11 -72 94 -94 171 -103
c98 -12 205 -48 211 -138c7 -95 -103 -154 -211 -137c-77 12 -142 56 -187 120" />
    <glyph glyph-name="e_t" unicode="e&#xb7;t" horiz-adv-x="762" 
d="M448 676v-183M380.279 493h311.721M446 161c-17 -87 48 -171 137 -174c65 -2 122 40 138 104M447 171c-17 -95 -93 -168 -188 -181c-124 -16 -202 69 -214 184c-2.90234 28.2988 44.4785 39.6602 107.423 51c110.547 19.916 269.1 39.8555 287.577 152
c14 88 -80 154 -181 137c-78 -14 -142 -47 -189 -138c-52 -101 -31 -237 4 -297" />
    <glyph glyph-name="e_u" unicode="e&#xb7;u" horiz-adv-x="921" 
d="M457 176c-18 -97 -98 -172 -198 -186c-124 -16 -202 69 -214 184c-2.8996 28.272 44.3858 39.596 107.238 50.925c110.555 19.926 269.273 39.867 287.762 152.075c14 88 -80 154 -181 137c-78 -14 -142 -47 -189 -138c-52 -101 -31 -237 4 -297M421.361 456.401
c-6.45508 10.7578 -6.39062 22.6338 -1.9043 32.2412c5.87988 12.5918 19.3564 21.2871 35.7109 18.4678c11.0918 -2.01758 19.1162 -9.14746 24.5908 -18.668c5.32227 -9.25586 8.23535 -20.7695 9.21484 -32.041c6.95996 -68.6074 -25.8516 -134.231 -33.8057 -202.837
c-16.9033 -147.157 84.5146 -281.388 219.74 -267.468c120.31 12.9258 185.934 138.208 185.934 267.468v246.586M860.842 500.15v-500.134" />
    <glyph glyph-name="eacute_e" unicode="&#xe9;&#xb7;e" horiz-adv-x="976" 
d="M447 171c-17 -95 -93 -168 -188 -181c-124 -16 -202 69 -214 184c-2.90234 28.2988 44.4785 39.6602 107.423 51c110.547 19.916 269.1 39.8555 287.577 152c14 88 -80 154 -181 137c-78 -14 -142 -47 -189 -138c-52 -101 -31 -237 4 -297M122 585l242 104M854 75
c-17 -95 -93 -168 -188 -181c-124 -16 -202 69 -214 184c-2.90234 28.2988 44.4785 39.6602 107.423 51c110.547 19.916 269.1 39.8555 287.577 152c14 88 -80 154 -181 137c-78 -14 -142 -47 -189 -138c-52 -101 -31 -237 4 -297" />
    <glyph glyph-name="ecircumflex_t_e" unicode="&#xea;&#xb7;te" horiz-adv-x="1142" 
d="M448 676v-183M380.279 493h311.721M446 161c-17 -87 48 -171 137 -174c65 -2 122 40 138 104M447 171c-17 -95 -93 -168 -188 -181c-124 -16 -202 69 -214 184c-2.90234 28.2988 44.4785 39.6602 107.423 51c110.547 19.916 269.1 39.8555 287.577 152
c14 88 -80 154 -181 137c-78 -14 -142 -47 -189 -138c-52 -101 -31 -237 4 -297M146 585l121 104l121 -104M1101 171c-17 -95 -93 -168 -188 -181c-124 -16 -202 69 -214 184c-2.90234 28.2988 44.4785 39.6602 107.423 51c110.547 19.916 269.1 39.8555 287.577 152
c14 88 -80 154 -181 137c-78 -14 -142 -47 -189 -138c-52 -101 -31 -237 4 -297" />
    <glyph glyph-name="egrave_r_e" unicode="er&#xb7;e" horiz-adv-x="1399" 
d="M560.198 2c0 142 25 285 101 405c32 50 76 96 135 101c77 6 141 -58 135 -135M492.198 457c-3.14258 12.0449 0.0234375 23.541 7.05469 31.7598c6.39648 7.47656 15.9902 12.2402 26.9453 12.2402c12.0049 0 22.1035 -5.72168 28.3037 -14.4629
c5.67773 -8.00488 8.08594 -18.542 5.69629 -29.5371v-455M1357.67 295c-17 -95 -93 -168 -188 -181c-124 -16 -202 69 -214 184c-2.90234 28.2988 44.4785 39.6602 107.423 51c110.547 19.916 269.1 39.8555 287.577 152c14 88 -80 154 -181 137
c-78 -14 -142 -47 -189 -138c-52 -101 -31 -237 4 -297M447 171c-17 -95 -93 -168 -188 -181c-124 -16 -202 69 -214 184c-2.90234 28.2988 44.4785 39.6602 107.423 51c110.547 19.916 269.1 39.8555 287.577 152c14 88 -80 154 -181 137c-78 -14 -142 -47 -189 -138
c-52 -101 -31 -237 4 -297M86.6592 580h335.993" />
    <glyph glyph-name="egrave_t_e" unicode="&#xe8;t&#xb7;e" horiz-adv-x="1263" 
d="M579 677.131v-517c-17 -87 48 -169 137 -172c65 -2 122 40 138 104M509 494.131h249c100 0 433 -2 457 146c14 88 -80 154 -181 137c-78 -14 -142 -47 -189 -138c-52 -101 -31 -237 4 -297s101 -100 185 -89c95 13 171 86 188 181M447 171c-17 -95 -93 -168 -188 -181
c-124 -16 -202 69 -214 184c-2.90234 28.2988 44.4785 39.6602 107.423 51c110.547 19.916 269.1 39.8555 287.577 152c14 88 -80 154 -181 137c-78 -14 -142 -47 -189 -138c-52 -101 -31 -237 4 -297M86.6592 580h335.993" />
    <glyph glyph-name="ellipsis" unicode="&#x2e;&#x2e;&#x2e;" horiz-adv-x="804" 
d="M145 97c23 0 34 -25 34 -51c0 -25 -11 -51 -34 -51c-22 0 -34 26 -34 51c0 26 12 51 34 51M413 97c23 0 34 -25 34 -51c0 -25 -11 -51 -34 -51c-22 0 -34 26 -34 51c0 26 12 51 34 51M681 97c23 0 34 -25 34 -51c0 -25 -11 -51 -34 -51c-22 0 -34 26 -34 51
c0 26 12 51 34 51" />
    <glyph glyph-name="euro_banana" unicode="&#x20ac;&#x20ac;" horiz-adv-x="544" 
d="M150 220h406M150 387h406M455 629c63 -142 49 -309 -41 -437c-81 -115 -213 -187 -358 -193l-26 28c108 74 200 169 273 276c63 92 111 192 138 300l-14 83l28 14v-71" />
    <glyph glyph-name="f_e" unicode="f&#xb7;e" horiz-adv-x="729" 
d="M90 2v523c-17 89 49 172 139 175c66 2 124 -41 140 -105M20 493h209M688 311c-17 -95 -93 -168 -188 -181c-124 -16 -202 69 -214 184c-2.90234 28.2988 44.4785 39.6602 107.423 51c110.547 19.916 269.1 39.8555 287.577 152c14 88 -80 154 -181 137
c-78 -14 -142 -47 -189 -138c-52 -101 -31 -237 4 -297" />
    <glyph glyph-name="f_f" unicode="ff" horiz-adv-x="515" 
d="M316 2v523c-17 89 49 172 139 175c66 2 124 -41 140 -105M20 493h429M91 2v523c-17 89 49 172 139 175c46.16 1.399 88.406 -19.214 115.108 -53.628" />
    <glyph glyph-name="f_f_e" unicode="f&#xb7;fe" horiz-adv-x="1017" 
d="M90 2v523c-17 89 49 172 139 175c66 2 124 -41 140 -105M20 493h209M366 2v523c-17 89 49 172 139 175c66 2 124 -41 140 -105M296 493h209M975.893 323.697c-17 -95 -93 -168 -188 -181c-124 -16 -202 69 -214 184c-2.90234 28.2988 44.4785 39.6602 107.424 51
c110.547 19.916 269.099 39.8545 287.576 152c14 88 -80 154 -181 137c-78 -14 -142 -47 -189 -138c-52 -101 -31 -237 4 -297" />
    <glyph glyph-name="f_v" unicode="f&#xb7;v" horiz-adv-x="511" 
d="M90 493v32c-17 89 49 172 139 175c66 2 124 -41 140 -105M20 493h209M90 493c88 -132 143 -284 162 -442c2 -24 11 -50 33 -50s30 26 33 50c18 158 73 310 162 442" />
    <glyph glyph-name="fi" unicode="fi" horiz-adv-x="541" 
d="M90 2v523c-17 89 49 172 139 175c66 2 124 -41 140 -105M20 493h209M362 454c-5.16406 12.3936 -2.86133 25.5889 4.15527 35.4512c6.56934 9.23438 17.2715 15.5488 29.8447 15.5488c11.2402 0 20.9854 -5.0459 27.6191 -12.7139
c8.71094 -10.0703 12.0576 -24.6611 6.38086 -38.2861v-407c-5.70898 -13.7021 -2.29199 -28.0566 6.53125 -37.8525c6.62988 -7.36133 16.3125 -12.1475 27.4688 -12.1475c12.4609 0 23.085 5.97266 29.6689 14.835c7.15332 9.62891 9.53809 22.668 4.33105 35.165z
M396 680c-22 0 -34 -25 -34 -51c0 -25 12 -51 34 -51c23 0 34 26 34 51c0 26 -11 51 -34 51" />
    <glyph glyph-name="g_u" unicode="g&#xb7;u" horiz-adv-x="919" 
d="M454 258c3 -130 -65 -256 -186 -267c-132.515 -11.1201 -227.246 118.592 -222.122 265.792c4.1833 120.192 82.9543 266.005 222.122 255.208c117 -10 184 -129 186 -254M522 451c8.222 10.572 8.511 24.248 2.892 34.95c-3.948 7.521 -10.813 13.574 -19.892 16.05
c-14.353 3.721 -27.858 -1.883 -37.361 -12.757c-8.012 -9.169 -13.179 -22.083 -13.61 -36.312c-0.019 -0.641 0.044 -278.428 -0.029 -279.07c-16.83 -147.165 83.683 -283.684 218.908 -269.764c120.31 12.9259 185.934 138.208 185.934 267.467v246.586z
M574.14 -78.1025c6.098 -5.6852 11.493 -11.9099 15.86 -18.8975c43 -69 -11 -160 -102 -169c-117 -11 -192 117 -304 135c-93 16 -181 -43 -203 -135M858.842 -81.9829v500.133" />
    <glyph glyph-name="i_e" unicode="i&#xb7;e" horiz-adv-x="558" 
d="M146 376c-33 -64 -23 -138 -25 -205v3c0 41.311 107.153 44.754 209.889 65.891c91.24 18.772 178.996 51.501 185.111 137.109c6 89 -80 154 -181 137c-78 -14 -142 -47 -189 -138M53 454c-5.16406 12.3936 -2.86133 25.5889 4.15527 35.4512
c6.56934 9.23438 17.2715 15.5488 29.8447 15.5488c11.2402 0 20.9854 -5.0459 27.6191 -12.7139c8.71094 -10.0703 12.0576 -24.6611 6.38086 -38.2861v-407c-5.70898 -13.7021 -2.29199 -28.0566 6.53125 -37.8525c6.62988 -7.36133 16.3125 -12.1475 27.4688 -12.1475
c12.4609 0 23.085 5.97266 29.6689 14.835c7.15332 9.62891 9.53809 22.668 4.33105 35.165M87 680c-22 0 -34 -25 -34 -51c0 -25 12 -51 34 -51c23 0 34 26 34 51c0 26 -11 51 -34 51" />
    <glyph glyph-name="i_l" unicode="i&#xb7;l" horiz-adv-x="295" 
d="M53 374c-5.1917 12.46 -2.8364 25.729 4.2672 35.608c6.5791 9.15 17.2311 15.392 29.7328 15.392c12.1041 0 22.474 -5.852 29.093 -14.528c7.598 -9.961 10.252 -23.645 4.907 -36.472v-327c-6.126 -14.7012 -3.194 -30.1529 10.309 -39.9195
c8.54 -6.17752 21.31 -10.0805 38.691 -10.0805c18.208 0 31.314 3.9032 39.956 10.0809c13.663 9.76657 16.169 25.2181 10.044 39.9191M87 600c-22 0 -34 -25 -34 -51c0 -25 12 -51 34 -51c23 0 34 26 34 51c0 26 -11 51 -34 51M150 648
c-4.732 11.829 -3.195 24.106 2.598 33.758c6.451 10.748 18.177 18.242 32.402 18.242c15.121 0 27.732 -8.468 33.971 -20.31c4.901 -9.304 5.869 -20.69 1.029 -31.69v-601" />
    <glyph glyph-name="l_e" unicode="l&#xb7;e" horiz-adv-x="542" 
d="M23 648c-5.3695 13.424 -2.6661 27.424 5.1687 37.512c6.7565 8.699 17.329 14.488 29.8313 14.488c11.6797 0 21.8624 -5.052 28.7672 -12.81c9.0571 -10.175 12.4744 -25.005 6.2328 -39.19v-399M501 171c-17 -95 -93 -168 -188 -181c-124 -16 -202 69 -214 184
c-2.90234 28.2988 44.4785 39.6602 107.423 51c110.547 19.916 269.1 39.8555 287.577 152c14 88 -80 154 -181 137c-78 -14 -142 -47 -189 -138c-52 -101 -31 -237 4 -297" />
    <glyph glyph-name="l_l" unicode="l&#xb7;l" horiz-adv-x="336" 
d="M23 648c-5.58008 13.9512 -2.44141 28.5254 6.11523 38.6816c6.77637 8.04395 16.9521 13.3184 28.8848 13.3184c11.752 0 21.9883 -5.11523 28.8955 -12.9541c8.96094 -10.1709 12.3164 -24.9268 6.10449 -39.0459v-646M191 648
c-5.58008 13.9512 -2.44141 28.5254 6.11523 38.6816c6.77637 8.04395 16.9521 13.3184 28.8848 13.3184c11.752 0 21.9883 -5.11523 28.8955 -12.9541c8.96094 -10.1709 12.3164 -24.9268 6.10449 -39.0459v-646" />
    <glyph glyph-name="l_l_e" unicode="l&#xb7;le" horiz-adv-x="682" 
d="M163 648c-5.557 13.892 -2.468 28.401 6.006 38.552c6.777 8.117 16.997 13.448 28.994 13.448c12.459 0 23.214 -5.749 30.104 -14.397c8.043 -10.094 10.82 -24.139 4.896 -37.603v-399M23 648c-5.58008 13.9512 -2.44141 28.5254 6.11523 38.6816
c6.77637 8.04395 16.9521 13.3184 28.8848 13.3184c11.752 0 21.9883 -5.11523 28.8955 -12.9541c8.96094 -10.1709 12.3164 -24.9268 6.10449 -39.0459v-646M641 171c-17 -95 -93 -168 -188 -181c-124 -16 -202 69 -214 184c-2.90234 28.2988 44.4785 39.6602 107.423 51
c110.547 19.916 269.1 39.8555 287.577 152c14 88 -80 154 -181 137c-78 -14 -142 -47 -189 -138c-52 -101 -31 -237 4 -297" />
    <glyph glyph-name="l_u" unicode="l&#xb7;u" horiz-adv-x="599" 
d="M93 474c0 20 17 37 39 33s32 -28 34 -51c7 -68 -26 -134 -34 -202c-17 -148 85 -282 220 -268c120 13 185.472 138.001 186 268l1 246l-1 -500M23 648c-5.58008 13.9512 -2.44141 28.5254 6.11523 38.6816c6.77637 8.04395 16.9521 13.3184 28.8848 13.3184
c11.752 0 21.9883 -5.11523 28.8955 -12.9541c8.96094 -10.1709 12.3164 -24.9268 6.10449 -39.0459v-646" />
    <glyph glyph-name="m_p" unicode="m&#xb7;p" horiz-adv-x="1275" 
d="M90 2c0 142 25 286 101 406c32 50 76 96 135 101c77 6 141 -58 135 -135v-372M22 458c-3.1129 11.414 -0.035 22.828 6.8597 31.169c6.3948 7.737 16.0729 12.831 27.1403 12.831c11.9008 0 21.9276 -5.89 28.1407 -14.623c5.7946 -8.144 8.2721 -18.76 5.8593 -29.377
v-456M461 2c0 142 25 286 102 406c32 50 76 96 135 101c77 6 141 -58 135 -135v-562M836 218c17 -122 103 -227 217 -217c115 10 181 127 183 249c3 128 -65 254 -183 264c-142 12 -239 -138 -217 -296" />
    <glyph glyph-name="n_a" unicode="n&#xb7;a" horiz-adv-x="992" 
d="M91 2c0 144 19 291 102 408c41 58 100 105 170 102c74 -3 133 -62 136 -136v-254M23 452c-10 24 8 51 34 51c13.1582 0 23.9414 -6.413 30.3819 -15.765c6.7752 -9.839 8.7447 -22.931 3.6181 -35.235v-450M523.533 378c21 81 94 138 178 137c111 -1 197 -95 188 -205
v-257c-6.08691 -15.2188 -1.79883 -31.1777 8.5791 -41.3369c6.66992 -6.5293 15.8564 -10.6631 26.4209 -10.6631c12.6387 0 23.3867 6.37988 29.9482 15.8096c6.93457 9.96777 9.19043 23.3428 4.05176 36.1904M889.533 310c0 -215 -310 -23 -376 -137
c-54 -92 50 -208 188 -182c93 18 167 89 188 182" />
    <glyph glyph-name="n_e" unicode="n&#xb7;e" horiz-adv-x="936" 
d="M524 376c-33 -64 -23 -138 -25 -205v3c0 26.663 44.871 38.369 104.375 49.219c114.569 20.889 283.385 38.602 290.625 153.781c6 89 -80 154 -181 137c-78 -14 -142 -47 -189 -138M91 2c0 144 19 291 102 408c41 58 100 105 170 102c74 -3 133 -62 136 -136v-374z
M23 452c-5.25488 12.6113 -2.77832 26.0488 4.52734 35.9648c6.59766 8.9541 17.1338 15.0352 29.4727 15.0352c11.1504 0 20.5947 -4.60547 27.1367 -11.7012c9.2998 -10.0879 12.7334 -25.21 6.86328 -39.2988v-450" />
    <glyph glyph-name="n_n" unicode="n&#xb7;n" horiz-adv-x="977" 
d="M91 2c0 144 19 291 102 408c41 58 100 105 170 102c74 -3 133 -62 136 -136v-374M23 452c-5.25488 12.6113 -2.77832 26.0488 4.52734 35.9648c6.59766 8.9541 17.1338 15.0352 29.4727 15.0352c11.1504 0 20.5947 -4.60547 27.1367 -11.7012
c9.2998 -10.0879 12.7334 -25.21 6.86328 -39.2988v-450M499 148.336c0 144 19 291 102 408c41 58 100 105 170 102c74 -3 133 -62 136 -136v-374M431 598.336c-5.25488 12.6113 -2.77832 26.0488 4.52734 35.9648c6.59766 8.9541 17.1338 15.0352 29.4727 15.0352
c11.1504 0 20.5947 -4.60449 27.1367 -11.7012c9.2998 -10.0879 12.7334 -25.21 6.86328 -39.2988v-450" />
    <glyph glyph-name="n_x" unicode="n&#xb7;x" horiz-adv-x="764" 
d="M705 456c18 25 -5 59 -34 52c-22 -5 -29 -30 -35 -52c-22 -81 -80 -139 -137 -202M705 52c16.234 -22.5467 -0.844 -51.8328 -25.659 -51.9105c-28.586 -0.0895001 -37.334 29.6003 -43.341 51.9105c-22.072 81.981 -80 140 -137 202M91 2c0 144 19 291 102 408
c41 58 100 105 170 102c74 -3 133 -62 136 -136v-374M23 452c-5.25488 12.6113 -2.77832 26.0488 4.52734 35.9648c6.59766 8.9541 17.1338 15.0352 29.4727 15.0352c11.1504 0 20.5947 -4.60547 27.1367 -11.7012c9.2998 -10.0879 12.7334 -25.21 6.86328 -39.2988v-450z
" />
    <glyph glyph-name="o_f" unicode="o&#xb7;f" horiz-adv-x="714" 
d="M464 2v248M394 493h209M464 493v32c-17 89 49 172 139 175c66 2 124 -41 140 -105M256 516c-127 2 -213 -123 -215 -260c-2 -141 84 -272 215 -270c128 2 210 132 208 270c-3 134 -83 258 -208 260" />
    <glyph glyph-name="o_idieresis" unicode="o&#xb7;&#xef;" horiz-adv-x="605" 
d="M256 516c-127 2 -213 -123 -215 -260c-2 -141 84 -272 215 -270c128 2 210 132 208 270c-3 134 -83 258 -208 260M408.049 430.996c-8.956 21.495 -2.58 43.424 10.951 57.546c8.914 9.301 20.931 15.215 33.716 15.387c17.67 0.238 27.966 -5.453 34.505 -13.982
c7.687 -10.027 10.183 -22.978 4.779 -35.947v-407c-4.995 -11.9874 -3.004 -24.4738 3.48 -33.9701c6.497 -9.51628 17.506 -16.0299 30.52 -16.0299c13.159 0 24.268 6.65956 30.736 16.349c6.312 9.4559 8.203 21.7974 3.264 33.651M376 730c-22 0 -34 -25 -34 -51
c0 -25 12 -51 34 -51c23 0 34 26 34 51c0 26 -11 51 -34 51M556 730c-22 0 -34 -25 -34 -51c0 -25 12 -51 34 -51c23 0 34 26 34 51c0 26 -11 51 -34 51" />
    <glyph glyph-name="o_n_a" unicode="on&#xb7;a" horiz-adv-x="1365" 
d="M464 2c0 144 19 291 102 408c41 58 100 105 170 102c74 -3 133 -62 136 -136v-254M396 452c-10 24 8 51 34 51c27 0 44 -27 34 -51v-450M256 516c-127 2 -213 -123 -215 -260c-2 -141 84 -272 215 -270c128 2 210 132 208 270c-3 134 -83 258 -208 260z
M896.533 377.849c21 81 94 138 178 137c111 -1 197 -95 188 -205v-257c-6.08691 -15.2178 -1.79883 -31.1777 8.5791 -41.3369c6.66992 -6.5293 15.8564 -10.6631 26.4209 -10.6631c12.6387 0 23.3867 6.37988 29.9482 15.8096
c6.93457 9.96777 9.19043 23.3428 4.05176 36.1904M1262.53 309.849c0 -215 -310 -23 -376 -137c-54 -92 50 -208 188 -182c93 18 167 89 188 182" />
    <glyph glyph-name="o_t" unicode="o&#xb7;t" horiz-adv-x="727" 
d="M411 676v-183M341 493h314M417 82c15 -49 67 -93 131 -95c65 -2 122 40 138 104M256 516c-127 2 -213 -123 -215 -260c-2 -141 84 -272 215 -270c128 2 210 132 208 270c-3 134 -83 258 -208 260" />
    <glyph glyph-name="p_e" unicode="p&#xb7;e" horiz-adv-x="947" 
d="M117.312 217.888c16.7041 -121.567 103.009 -226.432 217.152 -217.151c114.145 10.208 180.96 127.136 182.816 249.632c2.78418 128.063 -64.96 253.344 -182.816 263.552c-141.983 12.0645 -239.424 -138.271 -217.152 -296.032M44 458
c-6.2627 14.2334 -2.80176 29.4385 6.32422 39.8965c6.90332 7.90918 17.0479 13.1035 28.6758 13.1035c10.8633 0 18.6514 -4.20898 24.0801 -11c8.0625 -10.085 10.9199 -25.8643 10.9199 -42v-647M906 370c-17 -95 -93 -168 -188 -181c-124 -16 -202 69 -214 184
c-2.90234 28.2988 44.4785 39.6602 107.423 51c110.547 19.916 269.1 39.8555 287.577 152c14 88 -80 154 -181 137c-78 -14 -142 -47 -189 -138c-52 -101 -31 -237 4 -297" />
    <glyph glyph-name="p_m" unicode="p&#xb7;m" horiz-adv-x="1331" 
d="M517 2c0 142 25 286 101 406c32.825 51.289 81.262 102.479 147.138 101.372c68.697 -1.154 124.114 -57.817 123.242 -126.982c-0.035 -2.777 -0.161 -5.575 -0.38 -8.39v-372M451 453c-4.988 14.464 -2.512 26.689 3.951 35.31c6.497 8.665 17.022 13.69 28.049 13.69
c10.955 0 20.321 -4.991 26.587 -12.595c6.89 -8.362 10.032 -19.883 7.413 -31.405v-456M888 2c0 142 25 286 102 406c32 50 76 96 135 101c70.24 5.473 129.66 -47.301 135 -115.056c0.51 -6.522 0.53 -13.183 0 -19.944v-372M117.312 217.888
c16.7041 -121.567 103.009 -226.432 217.152 -217.151c114.145 10.208 180.96 127.136 182.816 249.632c2.78418 128.063 -64.96 253.344 -182.816 263.552c-141.983 12.0645 -239.424 -138.271 -217.152 -296.032M44 458
c-6.2627 14.2334 -2.80176 29.4385 6.32422 39.8965c6.90332 7.90918 17.0479 13.1035 28.6758 13.1035c10.8633 0 18.6514 -4.20898 24.0801 -11c8.0625 -10.085 10.9199 -25.8643 10.9199 -42v-647" />
    <glyph glyph-name="periodcentered" unicode="&#x2e;&#x2e;" horiz-adv-x="225" 
d="M181 409c22 -50 17 -109 -15 -154c-28 -41 -75 -66 -126 -68l-9 10c38 26 70 59 96 97c22 33 39 68 49 106l-5 29l10 5v-25" />
    <glyph glyph-name="r_e" unicode="r&#xb7;e" horiz-adv-x="878" 
d="M836.199 171c-17 -95 -92.944 -168.413 -188 -181c-123.946 -16.4129 -190.927 69.0168 -211 156c-17.301 74.97 49.378 96.539 132.506 110.689c108.715 18.506 245.564 24.324 259.494 120.311c12.798 88.183 -80.082 154.477 -181 137
c-78.084 -13.523 -142 -47 -189 -138M89.3662 2c0 142 25 285 101 405c32 50 76 96 135 101c77 6 141 -58 135 -135M21.3662 457c-3.14258 12.0449 0.0234375 23.541 7.05469 31.7598c6.39551 7.47656 15.9902 12.2402 26.9453 12.2402
c12.0049 0 22.1035 -5.72168 28.3037 -14.4629c5.67773 -8.00488 8.08594 -18.542 5.69629 -29.5371v-455" />
    <glyph glyph-name="r_egrave" unicode="r&#xb7;&#xe8;" horiz-adv-x="878" 
d="M836.199 171c-17 -95 -92.944 -168.413 -188 -181c-123.946 -16.4129 -190.927 69.0168 -211 156c-17.631 76.402 51.157 96.042 135.948 109.313c107.224 16.781 240.039 23.376 256.052 121.687c14.325 87.948 -80.082 154.477 -181 137
c-78.084 -13.523 -142 -47 -189 -138M755 585l-242 104M89.3662 2c0 142 25 285 101 405c32 50 76 96 135 101c77 6 141 -58 135 -135M21.3662 457c-3.14258 12.0449 0.0234375 23.541 7.05469 31.7598c6.39551 7.47656 15.9902 12.2402 26.9453 12.2402
c12.0049 0 22.1035 -5.72168 28.3037 -14.4629c5.67773 -8.00488 8.08594 -18.542 5.69629 -29.5371v-455" />
    <glyph glyph-name="r_i" unicode="r&#xb7;i" horiz-adv-x="574" 
d="M90 2c0 203 68 646 291 646c64 0 91 -38 80 -108M22 457c-3.2805 12.575 0.3146 24.553 8.0068 32.827c6.3766 6.859 15.5686 11.173 25.9932 11.173c11.8663 0 21.8694 -5.59 28.0866 -14.16c5.8333 -8.041 8.3338 -18.706 5.9134 -29.84v-455M395 384
c-5.048 12.115 -2.961 24.995 3.688 34.78c6.523 9.599 17.437 16.22 30.312 16.22c13.171 0 24.289 -6.928 30.754 -16.886c6.297 -9.699 8.18 -22.272 3.246 -34.114v-337c-5.639 -13.5339 -2.374 -27.7038 6.208 -37.4887
c6.637 -7.56679 16.454 -12.5113 27.792 -12.5113c12.654 0 23.413 6.1584 29.971 15.2474c6.917 9.5864 9.162 22.433 4.029 34.7526M429 610c-22 0 -34 -25 -34 -51c0 -25 12 -51 34 -51c23 0 34 26 34 51c0 26 -11 51 -34 51" />
    <glyph glyph-name="r_s" unicode="r&#xb7;s" horiz-adv-x="502" 
d="M22 457c-3.045 11.672 -0.1662 22.83 6.4143 30.989c6.386 7.917 16.2582 13.011 27.5857 13.011c10.6835 0 19.8567 -4.531 26.1164 -11.689c7.2166 -8.252 10.5611 -19.995 7.8836 -32.311v-272c0 95 117 323 236 323c77 0 141 -58 135 -135M90 185
c30 -37 93 -34 132 -39c98 -12 205 -48 211 -138c7 -95 -103 -154 -211 -137c-77 12 -142 56 -187 120" />
    <glyph glyph-name="r_x" unicode="r&#xb7;x" horiz-adv-x="847" 
d="M90 2c0 142 25 285 101 405c32 50 76 96 135 101c57 4 106 -29 134 -77c81 -135 216 -233 259 -388c6 -22 13 -46 35 -51c14.718 -3.5525 27.89 3.19742 34.942 13.9756c6.843 10.4593 7.923 24.7121 -0.942 37.0244M22 457c-3 11.497 -0.2522 22.494 6.1192 30.619
c6.3748 8.128 16.377 13.381 27.8808 13.381c10.5726 0 19.666 -4.437 25.9205 -11.467c7.3518 -8.262 10.7811 -20.106 8.0795 -32.533v-455M375 43c-7.374 -10.241 -7.867 -21.8245 -3.886 -31.4509c5.736 -13.8732 20.766 -23.6816 37.886 -19.5491c22 5 29 29 35 51
c45 164 230 250 275 413c6 22 13 47 35 52c16.65 4.019 31.323 -5.478 37.393 -19.026c4.502 -10.05 4.272 -22.328 -3.393 -32.974" />
    <glyph glyph-name="r_x_s_e" unicode="r&#xb7;x&#xb7;se" horiz-adv-x="1584" 
d="M436 456c-18 25 5 59 34 52c22 -5 29 -30 35 -52c38 -137 171 -222 244 -341c40 -66 109 -108 186 -120c108 -17 218 42 211 137c-6 90 -113 126 -211 138c-77 9 -160 31 -171 103c-14 81 75 137 171 137c91 0 177 -50 231 -135c47 91 111 125 189 139
c101 17 195 -49 181 -137c-29 -176 -432 -58 -392 -231c20 -87 87 -172 211 -156c95 13 171 86 188 181M434 43c-18 -25 5 -58 34 -51c22 5 26 26 32 48c23 84 81 147 139 211M89.3662 2c0 142 25 285 101 405c32 50 76 96 135 101c77 6 141 -58 135 -135M21.3662 457
c-3.14258 12.0449 0.0234375 23.541 7.05469 31.7598c6.39551 7.47656 15.9902 12.2402 26.9453 12.2402c12.0049 0 22.1035 -5.72168 28.3037 -14.4629c5.67773 -8.00488 8.08594 -18.542 5.69629 -29.5371v-455" />
    <glyph glyph-name="s_c" unicode="s&#xb7;c" horiz-adv-x="810" 
d="M35 115c45 -64 110 -108 187 -120c108 -17 218 42 211 137c-6 90 -113 126 -211 138c-77 9 -160 31 -171 103c-14 81 75 137 171 137c81 0 158 -38 206 -103c35 62 94 106 169 106c63 0 115 -31 152 -80M429 93c41 -65 98 -103 168 -103c63 0 115 32 152 80" />
    <glyph glyph-name="s_e" unicode="s&#xb7;e" horiz-adv-x="877" 
d="M35 115c45 -64 110 -108 187 -120c108 -17 218 42 211 137c-6 90 -113 126 -211 138c-77 9 -160 31 -171 103c-14 81 75 137 171 137c98.874 0 120.148 -43.013 193.85 -72.776c129.653 -52.359 390.404 -3.735 412.307 129.194c14 88 -80 154 -181 137
c-78 -14 -142 -47 -189 -138c-34.124 -66.28 -35.752 -147.681 -23.675 -212.737c4.252 -29.812 13.05 -57.383 26.028 -81.41c34.689 -64.224 99.24 -103.131 186.647 -91.853c95 13 171 86 188 181" />
    <glyph glyph-name="s_h_e" unicode="s&#xb7;he" horiz-adv-x="1265" 
d="M433 347c0 110 -130 163 -211 163c-96 0 -185 -56 -171 -137c11 -72 94 -94 171 -103c98 -12 205 -48 211 -138c7 -95 -103 -154 -211 -137c-77 12 -142 56 -187 120M363 648c-10 25 8 52 35 52c12.469 0 23.231 -5.758 30.121 -14.418
c8.03 -10.093 10.799 -24.127 4.879 -37.582v-360c28 105 132 243 244 237c75 -3 136 -64 139 -139v-384M1224 171c-17 -95 -93 -168 -188 -181c-124 -16 -202 69 -214 184c-2.90234 28.2988 44.4785 39.6602 107.423 51c110.547 19.916 269.1 39.8555 287.577 152
c14 88 -80 154 -181 137c-78 -14 -142 -47 -189 -138c-52 -101 -31 -237 4 -297" />
    <glyph glyph-name="s_l" unicode="s&#xb7;l" horiz-adv-x="508" 
d="M433 347c0 110 -130 163 -211 163c-96 0 -185 -56 -171 -137c11 -72 94 -94 171 -103c98 -12 205 -48 211 -138c7 -95 -103 -154 -211 -137c-77 12 -142 56 -187 120M363 648c-10 25 8 52 35 52s46 -27 35 -52v-360" />
    <glyph glyph-name="s_s" unicode="s&#xb7;s" horiz-adv-x="876" 
d="M35 115c45 -64 110 -108 187 -120c108 -17 218 42 211 137c-6 90 -113 126 -211 138c-77 9 -160 31 -171 103c-14 81 75 137 171 137c81 0 170.064 -53.629 206 -126c37.146 -74.808 112.355 -122.459 191.317 -134.704c108.039 -16.755 217.678 41.976 211 137
c-6.322 89.977 -112.971 126.236 -211 138c-76.972 9.236 -159.254 31.117 -171 103c-13.255 81.125 75 137 171 137c72.205 0 145.999 -28.607 208.632 -104.945" />
    <glyph glyph-name="s_s_e" unicode="s&#xb7;se" horiz-adv-x="1269" 
d="M35 115c45 -64 110 -108 187 -120c108 -17 218 42 211 137c-6 90 -113 126 -211 138c-77 9 -160 31 -171 103c-14 81 75 137 171 137c81 0 170.064 -30.629 206 -103c37.146 -74.808 112.317 -122.704 191.317 -134.704c108 -17 218 42 211 137c-6 90 -113 126 -211 138
c-77 9 -160 31 -171 103c-14 81 75 137 171 137c81 0 164 -36 231 -135c47 91 111 125 189.003 139c101 17 195 -49 181 -137c-17.08 -103.654 -163.88 -105.333 -273.514 -124.539c-76.519 -13.405 -134.931 -35.348 -118.489 -106.461c20 -87 87 -172 211.003 -156
c95 13 171 86 188 181" />
    <glyph glyph-name="s_t" unicode="s&#xb7;t" horiz-adv-x="744" 
d="M428 676v-269M358 493h314M430 96c15 -60 68 -107 135 -109c65 -2 122 40 138 104M428 407c-48 65 -125 103 -206 103c-96 0 -185 -56 -171 -137c11 -72 94 -94 171 -103c98 -12 205 -48 211 -138c7 -95 -103 -154 -211 -137c-77 12 -142 56 -187 120" />
    <glyph glyph-name="t_e" unicode="t&#xb7;e" horiz-adv-x="774" 
d="M90 676v-517c-17 -87 48 -169 137 -172c65 -2 122 40 138 104M20 493h249c100 0 433 -2 457 146c14 88 -80 154 -181 137c-78 -14 -142 -47 -189 -138c-52 -101 -31 -237 4 -297s101 -100 185 -89c95 13 171 86 188 181" />
    <glyph glyph-name="t_egrave" unicode="t&#xb7;&#xe8;" horiz-adv-x="774" 
d="M90 676v-517c-17 -87 48 -169 137 -172c65 -2 122 40 138 104M20 493h249c100 0 433 -2 457 146c14 88 -80 154 -181 137c-78 -14 -142 -47 -189 -138c-52 -101 -31 -237 4 -297s101 -100 185 -89c95 13 171 86 188 181M649.92 844l-242 104" />
    <glyph glyph-name="t_t" unicode="t&#xb7;t" horiz-adv-x="694" 
d="M90 676v-517c-17 -87 48 -169 137 -172c65 -2 122 40 138 104M20 493h314M378 676v-517c-17 -87 48 -169 137 -172c65 -2 122 40 138 104M308 493h314" />
    <glyph glyph-name="t_t_e" unicode="t&#xb7;te" horiz-adv-x="1046" 
d="M362 676v-517c-17 -87 48 -169 137 -172c65 -2 122 40 138 104M90 676v-517c-17 -87 48 -169 137 -172c65 -2 122 40 138 104M20 493h521c100 0 433 -2 457 146c14 88 -80 154 -181 137c-78 -14 -142 -47 -189 -138c-52 -101 -31 -237 4 -297s101 -100 185 -89
c95 13 171 86 188 181" />
    <glyph glyph-name="u_e" unicode="u&#xb7;e" horiz-adv-x="945" 
d="M56 456c-15 25 5 56 34 51c22 -4 32 -28 34 -51c7 -68 -26 -134 -34 -202c-17 -148 85 -282 220 -268c120 13 186 138 186 268v246M904 171c-17 -95 -93 -168 -188 -181c-124 -16 -202 69 -214 184c-3.067 29.902 50.008 40.846 118.264 52.888
c109.788 19.371 258.854 41.584 276.736 150.112c14 88 -80 154 -181 137c-78 -14 -142 -47 -189 -138c-52 -101 -31 -237 4 -297" />
    <glyph glyph-name="u_i_l" unicode="u&#xb7;il" horiz-adv-x="716" 
d="M56 456c-15 25 5 56 34 51c22 -4 32 -28 34 -51c7 -68 -26 -134 -34 -202c-17 -148 85 -282 220 -268c120 13 180 138 186 268M428 454c-5.16406 12.3936 -2.86133 25.5889 4.15527 35.4512c6.56934 9.23438 17.2715 15.5488 29.8447 15.5488
c11.2402 0 20.9854 -5.0459 27.6191 -12.7139c8.71094 -10.0703 12.0576 -24.6611 6.38086 -38.2861v-407c-5.70898 -13.7021 -2.29199 -28.0566 6.53125 -37.8525c6.62988 -7.36133 16.3125 -12.1475 27.4688 -12.1475c12.4609 0 23.085 5.97266 29.6689 14.835
c7.15332 9.62891 9.53809 22.668 4.33105 35.165M462 680c-22 0 -34 -25 -34 -51c0 -25 12 -51 34 -51c23 0 34 26 34 51c0 26 -11 51 -34 51M571 648c-5.58008 13.9512 -2.44141 28.5254 6.11523 38.6816c6.77637 8.04395 16.9521 13.3184 28.8848 13.3184
c11.752 0 21.9883 -5.11523 28.8955 -12.9541c8.96094 -10.1709 12.3164 -24.9268 6.10449 -39.0459v-646" />
    <glyph glyph-name="u_l" unicode="u&#xb7;l" horiz-adv-x="571" 
d="M56 456c-15 25 5 56 34 51c22 -4 32 -28 34 -51c7 -68 -26 -134 -34 -202c-17 -148 85 -282 220 -268c120 13 186 138 186 268M426 648c-10 25 8 52 35 52c12.616 0 23.485 -5.895 30.364 -14.726c7.842 -10.069 10.496 -23.956 4.636 -37.274v-646" />
    <glyph glyph-name="u_n_e" unicode="un&#xb7;e" horiz-adv-x="1341" 
d="M56 456c-15 25 5 56 34 51c22 -4 32 -28 34 -51c7 -68 -26 -134 -34 -202c-17 -148 85 -282 220 -268c120 13 186 138 186 268M929 376c-33 -64 -23 -138 -25 -205v3c0 33.959 70.889 39.486 152.68 51.157c106.06 15.137 230.46 40.61 242.32 151.843
c10 89 -80 154 -181 137c-78 -14 -142 -47 -189 -138M496 2c0 144 19 291 102 408c41 58 100 105 170 102c74 -3 133 -62 136 -136v-374M428 452c-5.25488 12.6113 -2.77832 26.0488 4.52734 35.9648c6.59766 8.9541 17.1338 15.0352 29.4727 15.0352
c11.1504 0 20.5947 -4.60547 27.1367 -11.7012c9.2998 -10.0879 12.7334 -25.21 6.86328 -39.2988v-450" />
    <glyph glyph-name="x_c" unicode="x&#xb7;c" horiz-adv-x="685" 
d="M57 456c-18 25 5 59 34 52c22 -5 29 -30 35 -52c22 -81 80 -143 137 -206v-1M57 43c-18 -25 5 -58 34 -51c22 5 29 29 35 51c22 82 80 144 137 206M624 433c-37 49 -89 80 -152 80c-126 0 -209 -126 -209 -261c0 -136 83 -262 209 -262c63 0 115 32 152 80" />
    <glyph glyph-name="x_l" unicode="x&#xb7;l" horiz-adv-x="338" 
d="M57 456c-18 25 5 59 34 52c22 -5 29 -30 35 -52c22 -81 80 -143 137 -206v-1M57 43c-18 -25 5 -58 34 -51c22 5 29 29 35 51c22 82 80 144 137 206M193 646c-5.58008 13.9512 -2.44141 28.5254 6.11523 38.6816c6.77637 8.04395 16.9521 13.3184 28.8848 13.3184
c11.752 0 21.9883 -5.11523 28.8955 -12.9541c8.96094 -10.1709 12.3164 -24.9268 6.10449 -39.0459v-646" />
    <glyph glyph-name="x_l_l" unicode="x&#xb7;ll" horiz-adv-x="475" 
d="M57 456c-18 25 5 59 34 52c22 -5 29 -30 35 -52c22 -81 80 -143 137 -206v-1M57 43c-18 -25 5 -58 34 -51c22 5 29 29 35 51c22 82 80 144 137 206M193 648c-5.58008 13.9512 -2.44141 28.5254 6.11523 38.6816c6.77637 8.04395 16.9521 13.3184 28.8848 13.3184
c11.752 0 21.9883 -5.11523 28.8955 -12.9541c8.96094 -10.1709 12.3164 -24.9268 6.10449 -39.0459v-646M330 648c-5.58008 13.9512 -2.44141 28.5254 6.11523 38.6816c6.77637 8.04395 16.9521 13.3184 28.8848 13.3184c11.752 0 21.9883 -5.11523 28.8955 -12.9541
c8.96094 -10.1709 12.3164 -24.9268 6.10449 -39.0459v-646" />
    <glyph glyph-name="x_s" unicode="x&#xb7;s" horiz-adv-x="815" 
d="M59 456c-18 25 5 59 34 52c22 -5 29 -30 35 -52c38 -137 171 -222 244 -341c40 -66 109 -108 186 -120c108 -17 218 42 211 137c-6 90 -113 126 -211 138c-77 9 -160 31 -171 103c-14 81 75 137 171 137c81 0 158 -38 206 -103M57 43c-18 -25 5 -58 34 -51
c22 5 26 26 32 48c23 84 81 147 139 211" />
    <glyph glyph-name="x_s_s" unicode="x&#xb7;ss" horiz-adv-x="1192" 
d="M59 456c-18 25 5 59 34 52c22 -5 29 -30 35 -52c38 -137 171 -222 244 -341c40 -66 109 -108 186 -120c108 -17 218 42 211 137c-6 90 -113 126 -211 138c-77 9 -160 31 -171 103c-14 81 75 137 171 137c81 0 158 -38 206 -103M57 43c-18 -25 5 -58 34 -51
c22 5 26 26 32 48c23 84 81 147 139 211M1141 407c-48 65 -125 103 -206 103c-96 0 -185 -56 -171 -137c11 -72 94 -94 171 -103c98 -12 205 -48 211 -138c7 -95 -103 -154 -211 -137c-67.892 10.5806 -126.267 45.8144 -170.017 97.9245" />
    <glyph glyph-name=".notdef" horiz-adv-x="400" 
 />
    <glyph glyph-name="A" unicode="A" horiz-adv-x="592" 
d="M31.0233 -1.0233c10.233 17.3961 19.4427 34.7922 26.6058 53.2116c58.3279 141.216 26.6058 299.827 53.2119 450.252c19.442 108.47 76.747 211.823 185.217 211.823c108.47 0 166.798 -103.353 185.217 -211.823c26.606 -150.425 -4.093 -309.036 53.212 -450.252
c7.163 -18.4194 16.373 -35.8155 26.606 -53.2116M57.6291 284.477h476.858" />
    <glyph glyph-name="AE" unicode="&#xc6;" horiz-adv-x="976" 
d="M31.0233 -1.0233c10.233 17.3961 19.4427 34.7922 26.6058 53.2116c58.3279 141.216 26.6058 299.827 53.2119 450.252c19.442 108.47 76.747 211.823 185.217 211.823c108.47 0 168.845 -106.423 187.264 -214.893M907.344 714.53
c-26.986 -113.131 -162.951 -158.799 -251.172 -84.07c-37.365 31.137 -62.274 84.07 -112.093 84.07c-60.199 0 -72.653 -70.577 -68.502 -139.079c8.303 -166.064 79.918 -325.9 40.478 -487.813c-7.265 -33.2128 -23.871 -65.3877 -55.008 -70.5772
c-26.986 -4.1516 -52.933 14.5306 -56.047 42.5539c-14.531 113.131 134.927 58.1219 272.968 -34.2507c90.297 -60.1982 220.034 -18.6822 256.361 84.0696M50.0382 325.317h791.918" />
    <glyph glyph-name="Aacute" unicode="&#xc1;" horiz-adv-x="592" 
d="M31.0234 -1.02344c10.2324 17.3965 19.4424 34.792 26.6055 53.2119c58.3281 141.216 26.6064 299.826 53.2119 450.252c19.4424 108.47 76.7471 211.822 185.217 211.822c108.471 0 166.799 -103.353 185.218 -211.822
c26.6055 -150.426 -4.09375 -309.036 53.2119 -450.252c7.16309 -18.4199 16.373 -35.8154 26.6055 -53.2119M57.6289 284.477h476.858M175 785l242 104" />
    <glyph glyph-name="Acircumflex" unicode="&#xc2;" horiz-adv-x="592" 
d="M31.0234 -1.02344c10.2324 17.3965 19.4424 34.792 26.6055 53.2119c58.3281 141.216 26.6064 299.826 53.2119 450.252c19.4424 108.47 76.7471 211.822 185.217 211.822c108.471 0 166.799 -103.353 185.218 -211.822
c26.6055 -150.426 -4.09375 -309.036 53.2119 -450.252c7.16309 -18.4199 16.373 -35.8154 26.6055 -53.2119M57.6289 284.477h476.858M175 785l121 104l121 -104" />
    <glyph glyph-name="Adieresis" unicode="&#xc4;" horiz-adv-x="592" 
d="M31.0234 -1.02344c10.2324 17.3965 19.4424 34.792 26.6055 53.2119c58.3281 141.216 26.6064 299.826 53.2119 450.252c19.4424 108.47 76.7471 211.822 185.217 211.822c108.471 0 166.799 -103.353 185.218 -211.822
c26.6055 -150.426 -4.09375 -309.036 53.2119 -450.252c7.16309 -18.4199 16.373 -35.8154 26.6055 -53.2119M57.6289 284.477h476.858M206 930c23 0 34 -25 34 -51c0 -25 -11 -51 -34 -51c-22 0 -34 26 -34 51c0 26 12 51 34 51M386 930c23 0 34 -25 34 -51
c0 -25 -11 -51 -34 -51c-22 0 -34 26 -34 51c0 26 12 51 34 51" />
    <glyph glyph-name="Agrave" unicode="&#xc0;" horiz-adv-x="592" 
d="M31.0234 -1.02344c10.2324 17.3965 19.4424 34.792 26.6055 53.2119c58.3281 141.216 26.6064 299.826 53.2119 450.252c19.4424 108.47 76.7471 211.822 185.217 211.822c108.471 0 166.799 -103.353 185.218 -211.822
c26.6055 -150.426 -4.09375 -309.036 53.2119 -450.252c7.16309 -18.4199 16.373 -35.8154 26.6055 -53.2119M57.6289 284.477h476.858M417 785l-242 104" />
    <glyph glyph-name="Amacron" unicode="&#x100;" horiz-adv-x="592" 
d="M31.0234 -1.02344c10.2324 17.3965 19.4424 34.792 26.6055 53.2119c58.3281 141.216 26.6064 299.826 53.2119 450.252c19.4424 108.47 76.7471 211.822 185.217 211.822c108.471 0 166.799 -103.353 185.218 -211.822
c26.6055 -150.426 -4.09375 -309.036 53.2119 -450.252c7.16309 -18.4199 16.373 -35.8154 26.6055 -53.2119M57.6289 284.477h476.858M127.659 780h335.993" />
    <glyph glyph-name="Aring" unicode="&#xc5;" horiz-adv-x="592" 
d="M31.0234 -1.02344c10.2324 17.3965 19.4424 34.792 26.6055 53.2119c58.3281 141.216 26.6064 299.826 53.2119 450.252c19.4424 108.47 76.7471 211.822 185.217 211.822c108.471 0 166.799 -103.353 185.218 -211.822
c26.6055 -150.426 -4.09375 -309.036 53.2119 -450.252c7.16309 -18.4199 16.373 -35.8154 26.6055 -53.2119M57.6289 284.477h476.858" />
    <glyph glyph-name="Atilde" unicode="&#xc3;" horiz-adv-x="592" 
d="M31.0234 -1.02344c10.2324 17.3965 19.4424 34.792 26.6055 53.2119c58.3281 141.216 26.6064 299.826 53.2119 450.252c19.4424 108.47 76.7471 211.822 185.217 211.822c108.471 0 166.799 -103.353 185.218 -211.822
c26.6055 -150.426 -4.09375 -309.036 53.2119 -450.252c7.16309 -18.4199 16.373 -35.8154 26.6055 -53.2119M57.6289 284.477h476.858M175 776c-1.65723 35.627 20.8838 64.04 60.0479 63.9678c56.6787 -0.104492 59.5254 -66.7773 122.689 -66.9082
c41.0303 -0.0849609 60.9062 28.5947 59.2627 63.9404" />
    <glyph glyph-name="B" unicode="B" horiz-adv-x="559" 
d="M48.28 461.536c-36.96 153.12 89.76 258.72 216.48 258.72c72.864 0 144.672 -34.848 186.912 -116.16c80.256 -158.4 -58.08 -306.24 -201.696 -304.128c-52.8 1.056 -105.6 22.176 -149.952 69.696v3.168c48.576 55.968 110.88 80.256 172.128 81.312
c141.504 2.112 279.84 -121.44 251.328 -279.84c-7.04 -40.832 -22.176 -75.152 -45.408 -102.96c-23.232 -27.808 -87.072 -91.344 -183.744 -91.344c-33.792 0 -67.056 7.04 -99.792 21.12c-32.736 14.08 -62.304 35.2 -88.704 63.36
c-26.4 28.16 -45.584 63.712 -57.552 106.656M44.056 43.36c-4.1099 -9.9813 -1.0381 -22.2476 6.13 -31.1725c5.7242 -7.12722 14.0606 -12.1235 23.438 -12.1235c8.9825 0 16.9067 5.0797 22.1619 12.3016c6.4831 8.9095 8.9041 21.0794 4.2381 30.9944v608.256" />
    <glyph glyph-name="C" unicode="C" horiz-adv-x="559" 
d="M518.374 605.362c-49.534 68.328 -119.286 112.478 -205.213 112.478c-170.842 0 -282.041 -176.602 -282.041 -366.869c0 -191.318 111.199 -367.92 282.041 -367.92c85.927 0 155.679 44.1504 205.213 112.478" />
    <glyph glyph-name="Cacute" unicode="&#x106;" horiz-adv-x="559" 
d="M518.374 605.362c-49.5342 68.3281 -119.286 112.478 -205.213 112.478c-170.842 0 -282.041 -176.602 -282.041 -366.869c0 -191.317 111.199 -367.92 282.041 -367.92c85.9268 0 155.679 44.1504 205.213 112.479M159 785l242 104" />
    <glyph glyph-name="Ccaron" unicode="&#x10c;" horiz-adv-x="559" 
d="M518.374 605.362c-49.5342 68.3281 -119.286 112.478 -205.213 112.478c-170.842 0 -282.041 -176.602 -282.041 -366.869c0 -191.317 111.199 -367.92 282.041 -367.92c85.9268 0 155.679 44.1504 205.213 112.479M401 889l-121 -104l-121 104" />
    <glyph glyph-name="Ccedilla" unicode="&#xc7;" horiz-adv-x="559" 
d="M518.374 605.362c-49.5342 68.3281 -119.286 112.478 -205.213 112.478c-170.842 0 -282.041 -176.602 -282.041 -366.869c0 -191.317 111.199 -367.92 282.041 -367.92c85.9268 0 155.679 44.1504 205.213 112.479M311 -17c0 -35 -38 -55 -38 -83c-1 -20 13 -42 35 -42
c38 0 37 93 89 93c40 1 73 -49 50 -105c-13 -31 -38 -55 -68 -68c-59 -26 -127 -12 -171 34" />
    <glyph glyph-name="Ccircumflex" unicode="&#x108;" horiz-adv-x="559" 
d="M518.374 605.362c-49.5342 68.3281 -119.286 112.478 -205.213 112.478c-170.842 0 -282.041 -176.602 -282.041 -366.869c0 -191.317 111.199 -367.92 282.041 -367.92c85.9268 0 155.679 44.1504 205.213 112.479M189 785l121 104l121 -104" />
    <glyph glyph-name="D" unicode="D" horiz-adv-x="626" 
d="M50 43c-4.4558 -10.3969 -3.274 -21.2839 1.8464 -29.6274c5.2221 -8.50907 14.5406 -14.3726 26.1536 -14.3726c11.2035 0 20.5916 5.96468 25.919 14.5924c5.134 8.3144 6.498 19.1018 2.081 29.4076v647M49 403c-39 164 87 316 259 316c175 0 285 -175 287 -360
c2 -188 -74 -325 -236 -366c-88 -22 -198 3 -253 58" />
    <glyph glyph-name="Dcaron" unicode="&#x10e;" horiz-adv-x="626" 
d="M22.6182 43c-4.45605 -10.3965 -3.27441 -21.2842 1.84668 -29.627c5.22168 -8.50977 14.54 -14.373 26.1533 -14.373c11.2031 0 20.5918 5.96484 25.9189 14.5928c5.13379 8.31445 6.49805 19.1016 2.08105 29.4072v647M21.6182 403c-39 164 87 316 259 316
c175 0 285 -175 287 -360c2 -188 -74 -325 -236 -366c-88 -22 -198 3 -253 58M434 889l-121 -104l-121 104" />
    <glyph glyph-name="E" unicode="E" horiz-adv-x="604" 
d="M535.344 714.53c-26.986 -113.131 -162.951 -158.799 -251.172 -84.07c-37.365 31.137 -62.274 84.07 -112.093 84.07c-60.199 0 -87.184 -70.577 -83.0324 -139.079c8.3032 -166.064 94.4484 -325.9 55.0084 -487.813
c-7.265 -33.2128 -23.871 -65.3877 -55.0084 -70.5772c-26.9854 -4.1516 -52.9329 14.5306 -56.0466 42.5539c-14.5306 113.131 134.927 58.1219 272.968 -34.2507c90.297 -60.1982 220.034 -18.6822 256.361 84.0696M77.6297 376.175h368.454" />
    <glyph glyph-name="Eacute" unicode="&#xc9;" horiz-adv-x="604" 
d="M535.344 714.53c-26.9854 -113.131 -162.951 -158.799 -251.172 -84.0703c-37.3652 31.1367 -62.2734 84.0703 -112.093 84.0703c-60.1992 0 -87.1846 -70.5771 -83.0322 -139.079c8.30273 -166.064 94.4482 -325.9 55.0078 -487.812
c-7.26465 -33.2129 -23.8711 -65.3877 -55.0078 -70.5771c-26.9854 -4.15234 -52.9336 14.5303 -56.0469 42.5537c-14.5303 113.131 134.927 58.1221 272.968 -34.251c90.2969 -60.1982 220.034 -18.6816 256.361 84.0693M77.6299 376.175h368.454M181 785l242 104" />
    <glyph glyph-name="Ecaron" unicode="&#x11a;" horiz-adv-x="604" 
d="M535.344 714.53c-26.9854 -113.131 -162.951 -158.799 -251.172 -84.0703c-37.3652 31.1367 -62.2734 84.0703 -112.093 84.0703c-60.1992 0 -87.1846 -70.5771 -83.0322 -139.079c8.30273 -166.064 94.4482 -325.9 55.0078 -487.812
c-7.26465 -33.2129 -23.8711 -65.3877 -55.0078 -70.5771c-26.9854 -4.15234 -52.9336 14.5303 -56.0469 42.5537c-14.5303 113.131 134.927 58.1221 272.968 -34.251c90.2969 -60.1982 220.034 -18.6816 256.361 84.0693M77.6299 376.175h368.454M423 889l-121 -104
l-121 104" />
    <glyph glyph-name="Ecircumflex" unicode="&#xca;" horiz-adv-x="604" 
d="M535.344 714.53c-26.9854 -113.131 -162.951 -158.799 -251.172 -84.0703c-37.3652 31.1367 -62.2734 84.0703 -112.093 84.0703c-60.1992 0 -87.1846 -70.5771 -83.0322 -139.079c8.30273 -166.064 94.4482 -325.9 55.0078 -487.812
c-7.26465 -33.2129 -23.8711 -65.3877 -55.0078 -70.5771c-26.9854 -4.15234 -52.9336 14.5303 -56.0469 42.5537c-14.5303 113.131 134.927 58.1221 272.968 -34.251c90.2969 -60.1982 220.034 -18.6816 256.361 84.0693M77.6299 376.175h368.454M181 785l121 104
l121 -104" />
    <glyph glyph-name="Edieresis" unicode="&#xcb;" horiz-adv-x="604" 
d="M535.344 714.53c-26.9854 -113.131 -162.951 -158.799 -251.172 -84.0703c-37.3652 31.1367 -62.2734 84.0703 -112.093 84.0703c-60.1992 0 -87.1846 -70.5771 -83.0322 -139.079c8.30273 -166.064 94.4482 -325.9 55.0078 -487.812
c-7.26465 -33.2129 -23.8711 -65.3877 -55.0078 -70.5771c-26.9854 -4.15234 -52.9336 14.5303 -56.0469 42.5537c-14.5303 113.131 134.927 58.1221 272.968 -34.251c90.2969 -60.1982 220.034 -18.6816 256.361 84.0693M77.6299 376.175h368.454M212 930
c23 0 34 -25 34 -51c0 -25 -11 -51 -34 -51c-22 0 -34 26 -34 51c0 26 12 51 34 51M392 930c23 0 34 -25 34 -51c0 -25 -11 -51 -34 -51c-22 0 -34 26 -34 51c0 26 12 51 34 51" />
    <glyph glyph-name="Egrave" unicode="&#xc8;" horiz-adv-x="604" 
d="M535.344 714.53c-26.9854 -113.131 -162.951 -158.799 -251.172 -84.0703c-37.3652 31.1367 -62.2734 84.0703 -112.093 84.0703c-60.1992 0 -87.1846 -70.5771 -83.0322 -139.079c8.30273 -166.064 94.4482 -325.9 55.0078 -487.812
c-7.26465 -33.2129 -23.8711 -65.3877 -55.0078 -70.5771c-26.9854 -4.15234 -52.9336 14.5303 -56.0469 42.5537c-14.5303 113.131 134.927 58.1221 272.968 -34.251c90.2969 -60.1982 220.034 -18.6816 256.361 84.0693M77.6299 376.175h368.454M423 785l-242 104" />
    <glyph glyph-name="Emacron" unicode="&#x112;" horiz-adv-x="604" 
d="M535.344 714.53c-26.9854 -113.131 -162.951 -158.799 -251.172 -84.0703c-37.3652 31.1367 -62.2734 84.0703 -112.093 84.0703c-60.1992 0 -87.1846 -70.5771 -83.0322 -139.079c8.30273 -166.064 94.4482 -325.9 55.0078 -487.812
c-7.26465 -33.2129 -23.8711 -65.3877 -55.0078 -70.5771c-26.9854 -4.15234 -52.9336 14.5303 -56.0469 42.5537c-14.5303 113.131 134.927 58.1221 272.968 -34.251c90.2969 -60.1982 220.034 -18.6816 256.361 84.0693M77.6299 376.175h368.454M137.659 780h335.993z
" />
    <glyph glyph-name="Eth" unicode="&#xd0;" horiz-adv-x="606" 
d="M30.6182 43c-4.45605 -10.3965 -3.27441 -21.2842 1.84668 -29.627c5.22168 -8.50977 14.54 -14.373 26.1533 -14.373c11.2031 0 20.5918 5.96484 25.9189 14.5928c5.13379 8.31445 6.49805 19.1016 2.08105 29.4072v647M29.6182 403c-39 164 87 316 259 316
c175 0 285 -175 287 -360c2 -188 -74 -325 -236 -366c-88 -22 -198 3 -253 58M-0.1875 314.82h225.734" />
    <glyph glyph-name="Euro" unicode="&#x20ac;" horiz-adv-x="619" 
d="M598.374 605.362c-49.5342 68.3281 -119.286 112.478 -205.213 112.478c-170.842 0 -282.041 -176.602 -282.041 -366.869c0 -191.317 111.199 -367.92 282.041 -367.92c85.9268 0 155.679 44.1504 205.213 112.479M20 270h406M20 437h406" />
    <glyph glyph-name="F" unicode="F" horiz-adv-x="555" 
d="M117.966 44.0062c-7.381 -11.9221 -5.313 -25.1039 2.01 -33.7802c5.877 -6.964 15.14 -11.0253 25.621 -9.2026c9.224 1.5372 15.882 7.43591 20.488 15.3839c4.593 7.926 7.146 17.89 8.168 27.5988c25.585 183.189 -134.066 342.839 -113.598 527.051
c9.2106 83.919 67.5448 157.604 142.253 142.253c48.1 -9.211 74.708 -57.311 113.597 -85.966c93.13 -65.497 222.078 -22.515 256.874 85.966M40.1872 389.915h372.518" />
    <glyph glyph-name="G" unicode="G" horiz-adv-x="618" 
d="M569 570.587c-53 105.84 -161 164.052 -270 147.118c-158 -24.343 -264 -187.337 -268 -368.323c-4 -187.337 106 -358.798 268 -367.265c129 -7.4088 253 96.3144 283 234.965c19 85.73 -18 161.935 -81 161.935c-59 0 -73 -76.205 -108 -132.3
c-42 -67.738 -145 -21.168 -161 59.27" />
    <glyph glyph-name="Gcircumflex" unicode="&#x11c;" horiz-adv-x="618" 
d="M569 570.587c-53 105.84 -161 164.052 -270 147.118c-158 -24.3428 -264 -187.337 -268 -368.323c-4 -187.337 106 -358.798 268 -367.265c129 -7.40918 253 96.3145 283 234.965c19 85.7295 -18 161.935 -81 161.935c-59 0 -73 -76.2051 -108 -132.3
c-42 -67.7383 -145 -21.168 -161 59.2705M188 785l121 104l121 -104" />
    <glyph glyph-name="H" unicode="H" horiz-adv-x="594" 
d="M47 44c-7.3149 -11.2537 -5.1314 -24.407 2.453 -33.0465c5.8945 -6.71466 15.0514 -10.7028 25.547 -8.9535c18 4 25 23 28 42c5.108 37.5832 2.761 74.9 -2.282 112.145c-8.7764 64.828 -25.718 129.438 -25.718 194.855c0 58.41 13.2483 115.559 22.3832 172.686
c7.1298 44.588 11.7538 89.163 5.6168 134.314c-3 19 -10 39 -28 42c-10.1049 1.684 -18.9689 -1.95 -24.8753 -8.215c-8.1218 -8.615 -10.6512 -22.206 -3.1247 -33.785M549 44c7.153 -11.0044 5.223 -23.8253 -1.957 -32.4659
c-5.87 -7.0633 -15.248 -11.3332 -26.043 -9.5341c-18 4 -25 23 -28 42c-5.016 36.9063 -2.843 73.556 2.012 110.133c8.694 65.503 25.988 130.773 25.988 196.867c0 61.187 -14.538 120.989 -23.656 180.832c-6.38 41.873 -10.107 83.766 -4.344 126.168c3 19 10 39 28 42
c10.105 1.684 18.969 -1.95 24.876 -8.216c8.121 -8.615 10.65 -22.205 3.124 -33.784M75 351h446" />
    <glyph glyph-name="H_O_F" unicode="&#xf2410;" horiz-adv-x="1480" 
d="M47 44c-13 -20 4 -46 28 -42c18 4 25 23 28 42c14 103 -28 204 -28 307c0 104 42 204 28 307c-3 19 -10 39 -28 42c-24 4 -41 -22 -28 -42M75 351h399M966 351h373M995 460c-5 16 -14 54 -8 111c9 84 67 158 142 142c48 -9 75 -57 114 -86
c92.7124 -64.799 221.203 -22.2649 255.682 85M1498.68 712M474 351.205c0 -190.427 105.05 -366.205 266.445 -366.205c161.395 0 267.399 175.778 267.399 366.205c0 189.381 -106.005 365.158 -267.399 365.158c-161.396 0 -266.445 -175.777 -266.445 -365.158" />
    <glyph glyph-name="Hcircumflex" unicode="&#x124;" horiz-adv-x="594" 
d="M47 44c-7.31445 -11.2539 -5.13184 -24.4072 2.45312 -33.0469c5.89453 -6.71387 15.0518 -10.7021 25.5469 -8.95312c18 4 25 23 28 42c5.1084 37.583 2.76074 74.9004 -2.28223 112.145c-8.77637 64.8281 -25.7178 129.438 -25.7178 194.855
c0 58.4102 13.248 115.559 22.3828 172.686c7.12988 44.5889 11.7539 89.1631 5.61719 134.314c-3 19 -10 39 -28 42c-10.1045 1.68359 -18.9688 -1.9502 -24.875 -8.21484c-8.12207 -8.61523 -10.6514 -22.2061 -3.125 -33.7852M549 44
c7.15332 -11.0049 5.22266 -23.8252 -1.95703 -32.4658c-5.87012 -7.06348 -15.248 -11.333 -26.043 -9.53418c-18 4 -25 23 -28 42c-5.01562 36.9062 -2.84277 73.5557 2.01172 110.133c8.69434 65.5029 25.9883 130.773 25.9883 196.867
c0 61.1865 -14.5381 120.989 -23.6562 180.832c-6.37988 41.873 -10.1064 83.7656 -4.34375 126.168c3 19 10 39 28 42c10.1055 1.68359 18.9688 -1.9502 24.876 -8.21582c8.12109 -8.61523 10.6504 -22.2051 3.12402 -33.7842M75 351h446M176 785l121 104l121 -104" />
    <glyph glyph-name="I" unicode="I" horiz-adv-x="246" 
d="M81 44c-2 -24 18 -44 42 -42c26 2 42 28 42 56c0 198 -84 388 -84 586c0 28 16 54 42 56c24 2 44 -18 42 -42" />
    <glyph glyph-name="Iacute" unicode="&#xcd;" horiz-adv-x="246" 
d="M81 44c-2 -24 18 -44 42 -42c26 2 42 28 42 56c0 198 -84 388 -84 586c0 28 16 54 42 56c24 2 44 -18 42 -42M2 785l242 104" />
    <glyph glyph-name="Icircumflex" unicode="&#xce;" horiz-adv-x="246" 
d="M81 44c-2 -24 18 -44 42 -42c26 2 42 28 42 56c0 198 -84 388 -84 586c0 28 16 54 42 56c24 2 44 -18 42 -42M2 785l121 104l121 -104" />
    <glyph glyph-name="Idieresis" unicode="&#xcf;" horiz-adv-x="246" 
d="M81 44c-2 -24 18 -44 42 -42c26 2 42 28 42 56c0 198 -84 388 -84 586c0 28 16 54 42 56c24 2 44 -18 42 -42M33 930c23 0 34 -25 34 -51c0 -25 -11 -51 -34 -51c-22 0 -34 26 -34 51c0 26 12 51 34 51M213 930c23 0 34 -25 34 -51c0 -25 -11 -51 -34 -51
c-22 0 -34 26 -34 51c0 26 12 51 34 51" />
    <glyph glyph-name="Igrave" unicode="&#xcc;" horiz-adv-x="246" 
d="M81 44c-2 -24 18 -44 42 -42c26 2 42 28 42 56c0 198 -84 388 -84 586c0 28 16 54 42 56c24 2 44 -18 42 -42M244 785l-242 104" />
    <glyph glyph-name="Imacron" unicode="&#x12a;" horiz-adv-x="246" 
d="M81 44c-2 -24 18 -44 42 -42c26 2 42 28 42 56c0 198 -84 388 -84 586c0 28 16 54 42 56c24 2 44 -18 42 -42M-45.3408 780h335.993" />
    <glyph glyph-name="J" unicode="J" horiz-adv-x="546" 
d="M66.4536 550.44c-21.2769 22.444 -27.6791 51.456 -22.7921 77.884c6.9009 37.318 36.312 69.483 78.1385 70.726c26.906 0.823 64.088 -19.235 100.244 -38.927c57.148 -31.124 111.733 -61.332 119.129 -6.718c4.026 30.784 20.126 45.645 40.252 45.645
c28.177 0 42.265 -13.8 45.284 -45.645c65.409 -204.869 136.857 -424.6 5.031 -582.763c-50.315 -59.444 -121.762 -90.2275 -197.234 -90.2275c-112.706 0 -218.367 105.088 -188.178 208.053c6.0378 21.23 20.126 41.399 42.2646 43.522
c24.1508 3.184 44.2768 -18.046 41.2578 -43.522" />
    <glyph glyph-name="Jcircumflex" unicode="&#x134;" horiz-adv-x="546" 
d="M66.4531 550.44c-21.2764 22.4434 -27.6787 51.4561 -22.792 77.8838c6.90137 37.3174 36.3125 69.4824 78.1387 70.7256c26.9062 0.823242 64.0879 -19.2344 100.244 -38.9268c57.1484 -31.124 111.733 -61.332 119.129 -6.71777
c4.02637 30.7842 20.126 45.6445 40.252 45.6445c28.1768 0 42.2656 -13.7998 45.2842 -45.6445c65.4092 -204.869 136.857 -424.601 5.03125 -582.764c-50.3154 -59.4434 -121.763 -90.2275 -197.234 -90.2275c-112.706 0 -218.367 105.089 -188.179 208.054
c6.03809 21.2305 20.126 41.3994 42.2646 43.5225c24.1514 3.18359 44.2773 -18.0459 41.2578 -43.5225M152 785l121 104l121 -104" />
    <glyph glyph-name="K" unicode="K" horiz-adv-x="674" 
d="M545 700c47 -164 -80 -327 -251 -321c-91 3 -195 8 -195 -70M294 379c159 0 245 -167 279 -335c4 -19 10 -38 28 -42c13.072 -2.7233 24.364 4.04617 29.675 14.0071c4.44 8.3277 4.7 18.886 -1.675 27.9929M43 44c-4.4057 -9.7904 -3.0603 -20.06 2.0421 -27.9936
c5.3208 -8.27339 14.7273 -14.0064 25.9579 -14.0064c9.1561 0 17.1716 4.18218 22.6374 10.5573c7.0706 8.2467 9.8746 20.1628 5.3626 31.4427v614c4.472 11.181 1.756 22.987 -5.1777 31.225c-5.4692 6.497 -13.5624 10.775 -22.8223 10.775
c-10.2968 0 -19.0601 -4.819 -24.5472 -11.997c-6.2365 -8.158 -8.2405 -19.364 -3.4528 -30.003" />
    <glyph glyph-name="L" unicode="L" horiz-adv-x="626" 
d="M228.667 660.964c-5.095 27.51 -32.605 55.02 -62.153 55.02c-62.153 0 -82.5312 -57.058 -78.4556 -127.362c9.1701 -169.138 97.8146 -334.199 57.0586 -499.261c-7.132 -34.6426 -23.435 -67.2474 -56.0397 -72.3419
c-27.5103 -4.0756 -54.0017 14.2646 -57.0584 42.7938c-15.2835 116.154 137.551 60.1153 279.179 -34.6426c92.719 -61.134 225.176 -19.3591 261.857 85.5879" />
    <glyph glyph-name="Lacute" unicode="&#x139;" horiz-adv-x="626" 
d="M228.667 660.964c-5.09473 27.5098 -32.6055 55.0205 -62.1533 55.0205c-62.1523 0 -82.5312 -57.0586 -78.4551 -127.362c9.16992 -169.138 97.8145 -334.199 57.0586 -499.262c-7.13184 -34.6426 -23.4355 -67.2471 -56.04 -72.3418
c-27.5098 -4.0752 -54.002 14.2646 -57.0586 42.7939c-15.2832 116.154 137.552 60.1152 279.18 -34.6426c92.7188 -61.1338 225.176 -19.3594 261.856 85.5879M192 785l242 104" />
    <glyph glyph-name="M" unicode="M" horiz-adv-x="744" 
d="M41.8954 32.159c-3.2106 -24.6146 18.1934 -46.0186 42.808 -42.808c21.4036 3.2106 35.3166 22.4742 42.8076 42.808c80.265 197.987 -142.336 409.887 -42.8076 603.593c20.3336 39.597 56.7206 72.773 100.599 71.703c43.878 -1.07 78.125 -34.246 100.599 -71.703
c75.984 -127.354 42.808 -283.603 42.808 -431.291c0 -35.316 12.842 -71.703 42.808 -71.703c31.036 0 43.878 36.387 43.878 71.703c0 147.688 -33.176 303.937 42.808 431.291c22.474 37.457 56.721 70.633 100.599 71.703c43.878 1.07 79.195 -32.106 100.599 -71.703
c98.458 -193.706 -123.073 -405.606 -43.878 -603.593c8.561 -20.3338 22.474 -39.5974 43.878 -42.808c24.614 -3.2106 46.018 18.1934 42.808 42.808" />
    <glyph glyph-name="N" unicode="N" horiz-adv-x="654" 
d="M34.6452 42.3968c-3.4977 -25.0272 19.8203 -46.926 48.9678 -43.7976c24.484 3.1284 38.475 22.9416 48.968 43.7976c92.106 198.132 -114.258 391.05 -48.968 594.396c12.8249 38.583 39.641 74.039 81.613 72.996c40.806 -1.043 64.124 -36.498 80.447 -72.996
c81.613 -186.661 81.613 -386.879 163.226 -573.54c16.323 -36.498 39.641 -71.9532 81.613 -72.996c41.972 -1.0428 68.788 34.4124 81.613 72.996c65.29 203.346 -141.074 398.349 -48.968 596.481c9.327 20.856 24.484 40.67 48.968 43.798
c27.982 3.128 52.466 -18.77 47.802 -43.798" />
    <glyph glyph-name="Nacute" unicode="&#x143;" horiz-adv-x="654" 
d="M34.6455 42.3965c-3.49805 -25.0273 19.8203 -46.9258 48.9678 -43.7969c24.4834 3.12793 38.4746 22.9414 48.9678 43.7969c92.1055 198.133 -114.259 391.051 -48.9678 594.396c12.8242 38.583 39.6406 74.0391 81.6123 72.9961
c40.8066 -1.04297 64.124 -36.498 80.4473 -72.9961c81.6133 -186.661 81.6133 -386.879 163.227 -573.54c16.3223 -36.498 39.6406 -71.9531 81.6123 -72.9961c41.9727 -1.04297 68.7881 34.4121 81.6133 72.9961c65.29 203.346 -141.074 398.349 -48.9678 596.481
c9.32715 20.8555 24.4834 40.6699 48.9678 43.7979c27.9824 3.12793 52.4658 -18.7705 47.8018 -43.7979M206 785l242 104" />
    <glyph glyph-name="Ncaron" unicode="&#x147;" horiz-adv-x="654" 
d="M34.6455 42.3965c-3.49805 -25.0273 19.8203 -46.9258 48.9678 -43.7969c24.4834 3.12793 38.4746 22.9414 48.9678 43.7969c92.1055 198.133 -114.259 391.051 -48.9678 594.396c12.8242 38.583 39.6406 74.0391 81.6123 72.9961
c40.8066 -1.04297 64.124 -36.498 80.4473 -72.9961c81.6133 -186.661 81.6133 -386.879 163.227 -573.54c16.3223 -36.498 39.6406 -71.9531 81.6123 -72.9961c41.9727 -1.04297 68.7881 34.4121 81.6133 72.9961c65.29 203.346 -141.074 398.349 -48.9678 596.481
c9.32715 20.8555 24.4834 40.6699 48.9678 43.7979c27.9824 3.12793 52.4658 -18.7705 47.8018 -43.7979M448 889l-121 -104l-121 104" />
    <glyph glyph-name="Ntilde" unicode="&#xd1;" horiz-adv-x="654" 
d="M34.6455 42.3965c-3.49805 -25.0273 19.8203 -46.9258 48.9678 -43.7969c24.4834 3.12793 38.4746 22.9414 48.9678 43.7969c92.1055 198.133 -114.259 391.051 -48.9678 594.396c12.8242 38.583 39.6406 74.0391 81.6123 72.9961
c40.8066 -1.04297 64.124 -36.498 80.4473 -72.9961c81.6133 -186.661 81.6133 -386.879 163.227 -573.54c16.3223 -36.498 39.6406 -71.9531 81.6123 -72.9961c41.9727 -1.04297 68.7881 34.4121 81.6133 72.9961c65.29 203.346 -141.074 398.349 -48.9678 596.481
c9.32715 20.8555 24.4834 40.6699 48.9678 43.7979c27.9824 3.12793 52.4658 -18.7705 47.8018 -43.7979M206 806c-1.65723 35.627 20.8838 64.04 60.0479 63.9678c56.6787 -0.104492 59.5254 -66.7773 122.689 -66.9082
c41.0303 -0.0849609 60.9062 28.5947 59.2627 63.9404" />
    <glyph glyph-name="O" unicode="O" 
d="M29.505 351.251c0 -190.426 105.05 -366.205 266.445 -366.205c161.395 0 267.4 175.779 267.4 366.205c0 189.381 -106.005 365.159 -267.4 365.159c-161.395 0 -266.445 -175.778 -266.445 -365.159" />
    <glyph glyph-name="OE" unicode="&#x152;" horiz-adv-x="1007" 
d="M492.622 601.252c-46.773 69.651 -114.552 115.158 -196.672 115.158c-161.395 0 -266.445 -175.778 -266.445 -365.159c0 -190.426 105.05 -366.205 266.445 -366.205c55.402 0 104.278 20.7129 144.579 55.621M938.344 714.53
c-26.9854 -113.131 -162.951 -158.799 -251.172 -84.0703c-37.3652 31.1367 -62.2734 84.0703 -112.093 84.0703c-60.1992 0 -87.1846 -70.5771 -83.0322 -139.079c8.30273 -166.064 94.4482 -325.9 55.0078 -487.812
c-7.26465 -33.2129 -23.8711 -65.3877 -55.0078 -70.5771c-26.9854 -4.15234 -52.9336 14.5303 -56.0469 42.5537c-14.5303 113.131 134.927 58.1221 272.968 -34.251c90.2969 -60.1982 220.034 -18.6816 256.361 84.0693M480.63 376.175h368.454" />
    <glyph glyph-name="Oacute" unicode="&#xd3;" 
d="M29.5049 351.251c0 -190.426 105.05 -366.205 266.445 -366.205c161.395 0 267.399 175.779 267.399 366.205c0 189.381 -106.005 365.159 -267.399 365.159c-161.396 0 -266.445 -175.778 -266.445 -365.159M176 785l242 104" />
    <glyph glyph-name="Ocircumflex" unicode="&#xd4;" 
d="M29.5049 351.251c0 -190.426 105.05 -366.205 266.445 -366.205c161.395 0 267.399 175.779 267.399 366.205c0 189.381 -106.005 365.159 -267.399 365.159c-161.396 0 -266.445 -175.778 -266.445 -365.159M176 785l121 104l121 -104" />
    <glyph glyph-name="Odieresis" unicode="&#xd6;" 
d="M29.5049 351.251c0 -190.426 105.05 -366.205 266.445 -366.205c161.395 0 267.399 175.779 267.399 366.205c0 189.381 -106.005 365.159 -267.399 365.159c-161.396 0 -266.445 -175.778 -266.445 -365.159M207 930c23 0 34 -25 34 -51c0 -25 -11 -51 -34 -51
c-22 0 -34 26 -34 51c0 26 12 51 34 51M387 930c23 0 34 -25 34 -51c0 -25 -11 -51 -34 -51c-22 0 -34 26 -34 51c0 26 12 51 34 51" />
    <glyph glyph-name="Ograve" unicode="&#xd2;" 
d="M29.5049 351.251c0 -190.426 105.05 -366.205 266.445 -366.205c161.395 0 267.399 175.779 267.399 366.205c0 189.381 -106.005 365.159 -267.399 365.159c-161.396 0 -266.445 -175.778 -266.445 -365.159M418 785l-242 104" />
    <glyph glyph-name="Omacron" unicode="&#x14c;" 
d="M29.5049 351.251c0 -190.426 105.05 -366.205 266.445 -366.205c161.395 0 267.399 175.779 267.399 366.205c0 189.381 -106.005 365.159 -267.399 365.159c-161.396 0 -266.445 -175.778 -266.445 -365.159M128.659 780h335.993" />
    <glyph glyph-name="Oslash" unicode="&#xd8;" 
d="M50 0l484 700M29.5049 351.251c0 -190.426 105.05 -366.205 266.445 -366.205c161.395 0 267.399 175.779 267.399 366.205c0 189.381 -106.005 365.159 -267.399 365.159c-161.396 0 -266.445 -175.778 -266.445 -365.159" />
    <glyph glyph-name="Otilde" unicode="&#xd5;" 
d="M29.5049 351.251c0 -190.426 105.05 -366.205 266.445 -366.205c161.395 0 267.399 175.779 267.399 366.205c0 189.381 -106.005 365.159 -267.399 365.159c-161.396 0 -266.445 -175.778 -266.445 -365.159M176 776c-1.65723 35.627 20.8838 64.04 60.0479 63.9678
c56.6787 -0.104492 59.5254 -66.7773 122.689 -66.9082c41.0303 -0.0849609 60.9062 28.5947 59.2627 63.9404" />
    <glyph glyph-name="P" unicode="P" horiz-adv-x="594" 
d="M55.3396 42.132c-4.4579 -10.5875 -2.2725 -22.3829 4.1017 -30.968c5.3884 -7.25739 13.7701 -12.2206 23.6624 -12.2206c9.4292 0 17.6823 4.50938 23.3033 11.2167c7.252 8.6534 10.124 20.9654 5.489 31.9719v633.433M58.4245 373.245
c-69.9244 191.263 83.2925 345.508 242.679 347.565c75.066 1.028 152.189 -30.849 208.745 -109c38.047 -53.471 53.472 -107.971 52.444 -160.415c-2.057 -138.82 -125.453 -256.046 -261.189 -261.188c-63.754 -2.056 -130.594 20.566 -189.207 77.123" />
    <glyph glyph-name="Q" unicode="Q" horiz-adv-x="659" 
d="M30 349c0 -194 119 -374 299 -374s299 180 299 374s-119 373 -299 373s-299 -179 -299 -373M210 274c39 0 74 -24 89 -60c59 -140 -143 -194 -239 -299c-30 -32 -32 -79 0 -89c23 -7 41 15 60 30c86 69 194 -22 299 -30c96 -8 185 55 209 149" />
    <glyph glyph-name="R" unicode="R" horiz-adv-x="585" 
d="M64 43.092c-4.6307 -11.3961 -1.8821 -23.4238 5.2226 -31.8818c5.7132 -6.80124 14.2431 -11.2942 24.0178 -11.2942c9.7746 0 17.8896 4.49269 23.1426 11.2936c6.533 8.458 8.64 20.486 4.009 31.8824v645.584M67.1329 467.656
c-30.2847 156.256 100.253 261.112 227.657 254.944c66.835 -3.084 132.626 -35.98 175.443 -108.968c22.974 -39.064 32.373 -77.1 32.373 -114.108c-1.044 -113.08 -100.253 -207.656 -211.993 -215.88c-57.436 -4.112 -118.006 14.392 -170.221 64.764l376.992 -304.288
c-3.982 -10.6388 -1.767 -21.5826 4.451 -29.3428c5.197 -6.48687 13.191 -10.7492 22.701 -10.7492c11.721 0 21.14 6.47489 25.857 15.6094c3.689 7.1427 4.503 15.9116 1.295 24.4826" />
    <glyph glyph-name="Racute" unicode="&#x154;" horiz-adv-x="585" 
d="M64 43.0918c-4.63086 -11.3955 -1.88184 -23.4238 5.22266 -31.8818c5.71289 -6.80078 14.2432 -11.2939 24.0176 -11.2939s17.8896 4.49219 23.1426 11.2939c6.5332 8.45801 8.64062 20.4854 4.00879 31.8818v645.584M67.1328 467.656
c-30.2842 156.256 100.253 261.111 227.657 254.943c66.835 -3.08398 132.626 -35.9795 175.443 -108.968c22.9736 -39.0635 32.373 -77.0996 32.373 -114.107c-1.04492 -113.08 -100.254 -207.656 -211.993 -215.881c-57.4365 -4.11133 -118.006 14.3926 -170.222 64.7646
l376.992 -304.288c-3.98145 -10.6387 -1.7666 -21.583 4.45117 -29.3428c5.19727 -6.4873 13.1914 -10.749 22.7012 -10.749c11.7207 0 21.1396 6.47461 25.8564 15.6094c3.68945 7.14258 4.50391 15.9111 1.2959 24.4824M172 785l242 104" />
    <glyph glyph-name="Rcaron" unicode="&#x158;" horiz-adv-x="585" 
d="M64 43.0918c-4.63086 -11.3955 -1.88184 -23.4238 5.22266 -31.8818c5.71289 -6.80078 14.2432 -11.2939 24.0176 -11.2939s17.8896 4.49219 23.1426 11.2939c6.5332 8.45801 8.64062 20.4854 4.00879 31.8818v645.584M67.1328 467.656
c-30.2842 156.256 100.253 261.111 227.657 254.943c66.835 -3.08398 132.626 -35.9795 175.443 -108.968c22.9736 -39.0635 32.373 -77.0996 32.373 -114.107c-1.04492 -113.08 -100.254 -207.656 -211.993 -215.881c-57.4365 -4.11133 -118.006 14.3926 -170.222 64.7646
l376.992 -304.288c-3.98145 -10.6387 -1.7666 -21.583 4.45117 -29.3428c5.19727 -6.4873 13.1914 -10.749 22.7012 -10.749c11.7207 0 21.1396 6.47461 25.8564 15.6094c3.68945 7.14258 4.50391 15.9111 1.2959 24.4824M414 889l-121 -104l-121 104" />
    <glyph glyph-name="S" unicode="S" horiz-adv-x="582" 
d="M538.461 497.354c-25.191 119.654 -125.952 208.87 -247.706 219.366c-119.654 10.496 -228.813 -67.174 -219.366 -175.283c20.992 -235.111 408.294 -122.803 467.072 -321.178c39.885 -131.2 -92.365 -251.904 -247.706 -234.061
c-120.704 13.6448 -220.416 100.762 -248.755 219.367" />
    <glyph glyph-name="Sacute" unicode="&#x15a;" horiz-adv-x="582" 
d="M538.461 497.354c-25.1914 119.654 -125.952 208.87 -247.706 219.366c-119.654 10.4961 -228.812 -67.1738 -219.366 -175.283c20.9922 -235.11 408.294 -122.803 467.072 -321.178c39.8848 -131.199 -92.3652 -251.903 -247.706 -234.061
c-120.704 13.6445 -220.416 100.762 -248.755 219.367M170 785l242 104" />
    <glyph glyph-name="Scaron" unicode="&#x160;" horiz-adv-x="582" 
d="M538.461 497.354c-25.1914 119.654 -125.952 208.87 -247.706 219.366c-119.654 10.4961 -228.812 -67.1738 -219.366 -175.283c20.9922 -235.11 408.294 -122.803 467.072 -321.178c39.8848 -131.199 -92.3652 -251.903 -247.706 -234.061
c-120.704 13.6445 -220.416 100.762 -248.755 219.367M412 889l-121 -104l-121 104" />
    <glyph glyph-name="Scedilla" unicode="&#x15e;" horiz-adv-x="582" 
d="M538.461 497.354c-25.1914 119.654 -125.952 208.87 -247.706 219.366c-119.654 10.4961 -228.812 -67.1738 -219.366 -175.283c20.9922 -235.11 408.294 -122.803 467.072 -321.178c39.8848 -131.199 -92.3652 -251.903 -247.706 -234.061
c-120.704 13.6445 -220.416 100.762 -248.755 219.367M271 -11c0 -35 -38 -55 -38 -83c-1 -20 13 -42 35 -42c38 0 37 93 89 93c40 1 73 -49 50 -105c-13 -31 -38 -55 -68 -68c-59 -26 -127 -12 -171 34" />
    <glyph glyph-name="Scircumflex" unicode="&#x15c;" horiz-adv-x="582" 
d="M538.461 497.354c-25.1914 119.654 -125.952 208.87 -247.706 219.366c-119.654 10.4961 -228.812 -67.1738 -219.366 -175.283c20.9922 -235.11 408.294 -122.803 467.072 -321.178c39.8848 -131.199 -92.3652 -251.903 -247.706 -234.061
c-120.704 13.6445 -220.416 100.762 -248.755 219.367M170 785l121 104l121 -104" />
    <glyph glyph-name="T" unicode="T" horiz-adv-x="708" 
d="M21 637c5 15 14 28 26 38c90 78 200 -38 307 -38s218 116 307 38c12 -10 21 -23 26 -38M354 636v-636" />
    <glyph glyph-name="Tcaron" unicode="&#x164;" horiz-adv-x="708" 
d="M21 637c5 15 14 28 26 38c90 78 200 -38 307 -38s218 116 307 38c12 -10 21 -23 26 -38M354 636v-636M475 889l-121 -104l-121 104" />
    <glyph glyph-name="Thorn" unicode="&#xde;" horiz-adv-x="605" 
d="M107.783 700.244v-700.272M108.811 511.037c88.434 91.519 250.905 107.971 344.481 -22.623c162.471 -226.226 -143.962 -491.527 -344.481 -299.235" />
    <glyph glyph-name="U" unicode="U" horiz-adv-x="639" 
d="M64.0602 655.504c-6.4906 10.818 -4.7776 23.05 1.7362 31.814c5.9409 7.994 15.8752 13.102 27.2214 11.622c7.5022 -0.833 13.6602 -4.69 18.3402 -10.353c6.931 -8.387 10.617 -20.735 10.617 -33.083c0 -183.054 -112.727 -363.005 -28.9572 -532.613
c51.7102 -104.455 134.446 -155.13 253.379 -143.754c96.18 8.2736 166.506 57.9152 208.908 143.754c84.805 169.608 -42.402 349.559 -42.402 532.613c0 13.901 5.252 26.697 13.469 34.957c7.677 7.717 17.943 11.476 28.933 8.479
c6.651 -1.75 11.88 -5.514 15.406 -10.33c6.893 -9.413 7.283 -22.844 -0.927 -33.106" />
    <glyph glyph-name="Uacute" unicode="&#xda;" horiz-adv-x="639" 
d="M64.0605 655.504c-6.49121 10.8184 -4.77832 23.0498 1.73633 31.8145c5.94043 7.99316 15.875 13.1016 27.2207 11.6221c7.50195 -0.833008 13.6602 -4.69043 18.3408 -10.3535c6.93066 -8.38672 10.6162 -20.7354 10.6162 -33.083
c0 -183.054 -112.727 -363.005 -28.957 -532.613c51.71 -104.454 134.446 -155.13 253.38 -143.754c96.1797 8.27344 166.506 57.915 208.907 143.754c84.8057 169.608 -42.4014 349.56 -42.4014 532.613c0 13.9014 5.25195 26.6973 13.4688 34.957
c7.67676 7.7168 17.9434 11.4756 28.9326 8.47949c6.65137 -1.75 11.8799 -5.51465 15.4062 -10.3301c6.89258 -9.41309 7.2832 -22.8447 -0.926758 -33.1064M199 785l242 104" />
    <glyph glyph-name="Ucircumflex" unicode="&#xdb;" horiz-adv-x="639" 
d="M64.0605 655.504c-6.49121 10.8184 -4.77832 23.0498 1.73633 31.8145c5.94043 7.99316 15.875 13.1016 27.2207 11.6221c7.50195 -0.833008 13.6602 -4.69043 18.3408 -10.3535c6.93066 -8.38672 10.6162 -20.7354 10.6162 -33.083
c0 -183.054 -112.727 -363.005 -28.957 -532.613c51.71 -104.454 134.446 -155.13 253.38 -143.754c96.1797 8.27344 166.506 57.915 208.907 143.754c84.8057 169.608 -42.4014 349.56 -42.4014 532.613c0 13.9014 5.25195 26.6973 13.4688 34.957
c7.67676 7.7168 17.9434 11.4756 28.9326 8.47949c6.65137 -1.75 11.8799 -5.51465 15.4062 -10.3301c6.89258 -9.41309 7.2832 -22.8447 -0.926758 -33.1064M199 785l121 104l121 -104" />
    <glyph glyph-name="Udieresis" unicode="&#xdc;" horiz-adv-x="639" 
d="M64.0605 655.504c-6.49121 10.8184 -4.77832 23.0498 1.73633 31.8145c5.94043 7.99316 15.875 13.1016 27.2207 11.6221c7.50195 -0.833008 13.6602 -4.69043 18.3408 -10.3535c6.93066 -8.38672 10.6162 -20.7354 10.6162 -33.083
c0 -183.054 -112.727 -363.005 -28.957 -532.613c51.71 -104.454 134.446 -155.13 253.38 -143.754c96.1797 8.27344 166.506 57.915 208.907 143.754c84.8057 169.608 -42.4014 349.56 -42.4014 532.613c0 13.9014 5.25195 26.6973 13.4688 34.957
c7.67676 7.7168 17.9434 11.4756 28.9326 8.47949c6.65137 -1.75 11.8799 -5.51465 15.4062 -10.3301c6.89258 -9.41309 7.2832 -22.8447 -0.926758 -33.1064M230 930c23 0 34 -25 34 -51c0 -25 -11 -51 -34 -51c-22 0 -34 26 -34 51c0 26 12 51 34 51M410 930
c23 0 34 -25 34 -51c0 -25 -11 -51 -34 -51c-22 0 -34 26 -34 51c0 26 12 51 34 51" />
    <glyph glyph-name="Ugrave" unicode="&#xd9;" horiz-adv-x="639" 
d="M64.0605 655.504c-6.49121 10.8184 -4.77832 23.0498 1.73633 31.8145c5.94043 7.99316 15.875 13.1016 27.2207 11.6221c7.50195 -0.833008 13.6602 -4.69043 18.3408 -10.3535c6.93066 -8.38672 10.6162 -20.7354 10.6162 -33.083
c0 -183.054 -112.727 -363.005 -28.957 -532.613c51.71 -104.454 134.446 -155.13 253.38 -143.754c96.1797 8.27344 166.506 57.915 208.907 143.754c84.8057 169.608 -42.4014 349.56 -42.4014 532.613c0 13.9014 5.25195 26.6973 13.4688 34.957
c7.67676 7.7168 17.9434 11.4756 28.9326 8.47949c6.65137 -1.75 11.8799 -5.51465 15.4062 -10.3301c6.89258 -9.41309 7.2832 -22.8447 -0.926758 -33.1064M441 785l-242 104" />
    <glyph glyph-name="Utilde" unicode="&#x168;" horiz-adv-x="639" 
d="M64.0605 655.504c-6.49121 10.8184 -4.77832 23.0498 1.73633 31.8145c5.94043 7.99316 15.875 13.1016 27.2207 11.6221c7.50195 -0.833008 13.6602 -4.69043 18.3408 -10.3535c6.93066 -8.38672 10.6162 -20.7354 10.6162 -33.083
c0 -183.054 -112.727 -363.005 -28.957 -532.613c51.71 -104.454 134.446 -155.13 253.38 -143.754c96.1797 8.27344 166.506 57.915 208.907 143.754c84.8057 169.608 -42.4014 349.56 -42.4014 532.613c0 13.9014 5.25195 26.6973 13.4688 34.957
c7.67676 7.7168 17.9434 11.4756 28.9326 8.47949c6.65137 -1.75 11.8799 -5.51465 15.4062 -10.3301c6.89258 -9.41309 7.2832 -22.8447 -0.926758 -33.1064M199 776c-1.65723 35.627 20.8838 64.04 60.0479 63.9678c56.6787 -0.104492 59.5254 -66.7773 122.689 -66.9082
c41.0303 -0.0849609 60.9062 28.5947 59.2627 63.9404" />
    <glyph glyph-name="V" unicode="V" horiz-adv-x="625" 
d="M33 658c-4.6032 10.229 -2.9281 20.982 2.7508 29.046c5.4243 7.703 14.5014 12.954 25.2492 12.954c8.9508 0 16.8117 -3.997 22.266 -10.132c7.3425 -8.259 10.3242 -20.393 5.734 -31.868l181 -615c0 -23 19 -42 42 -42s42 19 42 42l182 615
c-4.974 11.053 -2.618 22.717 4.199 30.941c5.519 6.656 13.959 11.059 23.801 11.059c11.224 0 20.735 -6.285 25.935 -15.19c4.529 -7.756 5.789 -17.5 2.065 -26.81" />
    <glyph glyph-name="W" unicode="W" horiz-adv-x="792" 
d="M761 664c3 24 -18 47 -43 43c-21 -3 -35 -23 -43 -43c-80 -198 123 -410 23 -604c-20 -39 -56 -73 -100 -71c-44 1 -79 34 -101 71c-77 128 -43 284 -43 432c0 35 -23 71 -53 71c-31 0 -53 -36 -53 -71c0 -148 34 -304 -43 -432c-22 -37 -57 -70 -101 -71
c-44 -2 -80 32 -100 71c-100 194 103 406 23 604c-8 20 -22 40 -43 43c-25 4 -46 -19 -43 -43" />
    <glyph glyph-name="Wacute" unicode="&#x1e82;" horiz-adv-x="792" 
d="M761 664c3 24 -18 47 -43 43c-21 -3 -35 -23 -43 -43c-80 -198 123 -410 23 -604c-20 -39 -56 -73 -100 -71c-44 1 -79 34 -101 71c-77 128 -43 284 -43 432c0 35 -23 71 -53 71c-31 0 -53 -36 -53 -71c0 -148 34 -304 -43 -432c-22 -37 -57 -70 -101 -71
c-44 -2 -80 32 -100 71c-100 194 103 406 23 604c-8 20 -22 40 -43 43c-25 4 -46 -19 -43 -43M275 785l242 104" />
    <glyph glyph-name="Wcircumflex" unicode="&#x174;" horiz-adv-x="792" 
d="M761 664c3 24 -18 47 -43 43c-21 -3 -35 -23 -43 -43c-80 -198 123 -410 23 -604c-20 -39 -56 -73 -100 -71c-44 1 -79 34 -101 71c-77 128 -43 284 -43 432c0 35 -23 71 -53 71c-31 0 -53 -36 -53 -71c0 -148 34 -304 -43 -432c-22 -37 -57 -70 -101 -71
c-44 -2 -80 32 -100 71c-100 194 103 406 23 604c-8 20 -22 40 -43 43c-25 4 -46 -19 -43 -43M275 785l121 104l121 -104" />
    <glyph glyph-name="Wdieresis" unicode="&#x1e84;" horiz-adv-x="792" 
d="M761 664c3 24 -18 47 -43 43c-21 -3 -35 -23 -43 -43c-80 -198 123 -410 23 -604c-20 -39 -56 -73 -100 -71c-44 1 -79 34 -101 71c-77 128 -43 284 -43 432c0 35 -23 71 -53 71c-31 0 -53 -36 -53 -71c0 -148 34 -304 -43 -432c-22 -37 -57 -70 -101 -71
c-44 -2 -80 32 -100 71c-100 194 103 406 23 604c-8 20 -22 40 -43 43c-25 4 -46 -19 -43 -43M306 930c23 0 34 -25 34 -51c0 -25 -11 -51 -34 -51c-22 0 -34 26 -34 51c0 26 12 51 34 51M486 930c23 0 34 -25 34 -51c0 -25 -11 -51 -34 -51c-22 0 -34 26 -34 51
c0 26 12 51 34 51" />
    <glyph glyph-name="Wgrave" unicode="&#x1e80;" horiz-adv-x="792" 
d="M761 664c3 24 -18 47 -43 43c-21 -3 -35 -23 -43 -43c-80 -198 123 -410 23 -604c-20 -39 -56 -73 -100 -71c-44 1 -79 34 -101 71c-77 128 -43 284 -43 432c0 35 -23 71 -53 71c-31 0 -53 -36 -53 -71c0 -148 34 -304 -43 -432c-22 -37 -57 -70 -101 -71
c-44 -2 -80 32 -100 71c-100 194 103 406 23 604c-8 20 -22 40 -43 43c-25 4 -46 -19 -43 -43M517 785l-242 104" />
    <glyph glyph-name="X" unicode="X" horiz-adv-x="554" 
d="M26 658c-7.467 10.667 -5.831 23.326 0.9632 32.058c5.9444 7.64 15.8373 12.275 27.0368 9.942c6.583 -1.162 11.6665 -4.873 15.5988 -10.087c6.2227 -8.252 9.5629 -20.27 11.4012 -31.913c26 -144 62 -307 196 -307c133 0 169 163 195 307
c1.838 11.643 5.179 23.661 11.632 31.913c4.077 5.215 9.398 8.925 16.368 10.087c12.38 2.579 22.897 -3.356 28.395 -12.453c5.161 -8.539 5.899 -19.864 -0.395 -29.547M26 44c-7 -10 -6 -21.4994 -0.2508 -30c5.7498 -8.50067 16.2508 -14.0012 28.2508 -12.0012
c8.3575 1.9665 14.2982 7.55831 18.5348 14.9932c4.3811 7.6883 6.94 17.3476 8.4652 27.0068c29 174 34 385 196 385c161 0 167 -211 195 -385c1.525 -9.6589 4.084 -19.3179 8.596 -27.0061c4.364 -7.43525 10.555 -13.0273 19.404 -14.9938
c11.848 -1.9746 21.99 3.36179 27.659 11.6782c5.814 8.53 6.923 20.195 0.341 30.3218" />
    <glyph glyph-name="Y" unicode="Y" horiz-adv-x="676" 
d="M87 658c-6.0974 10.162 -4.7075 21.616 1.1524 30.031c5.6727 8.146 15.5346 13.445 26.8476 11.969c7.294 -0.811 13.11 -4.577 17.449 -10.101c6.367 -8.108 9.551 -20.004 9.551 -31.899c0 -41.86 -13.055 -82.002 -26.848 -121.779
c-19.4871 -56.198 -40.4485 -111.666 -28.152 -170.221c22 -109 135 -168 251 -168c115 0 228 59 250 168c12.297 58.555 -8.665 114.024 -28.152 170.221c-13.793 39.777 -26.848 79.919 -26.848 121.779c0 13.474 5.102 25.873 13.081 33.858
c7.417 7.424 17.32 11.033 27.919 8.142c7.643 -2.011 13.345 -6.774 16.648 -12.725c4.909 -8.843 4.525 -20.309 -2.648 -29.275M591 421c0 -52.094 19.729 -106.543 35.538 -160.792c13.325 -45.722 23.865 -91.302 17.462 -135.208c-12 -85 -84 -152 -167 -143
c-63 7 -110 59 -167 84c-101 44 -219 27 -279 -66" />
    <glyph glyph-name="Yacute" unicode="&#xdd;" horiz-adv-x="676" 
d="M87 658c-6.09766 10.1621 -4.70703 21.6162 1.15234 30.0312c5.67285 8.14551 15.5342 13.4443 26.8477 11.9688c7.29395 -0.810547 13.1104 -4.57715 17.4492 -10.1006c6.36719 -8.1084 9.55078 -20.0049 9.55078 -31.8994
c0 -41.8604 -13.0547 -82.002 -26.8477 -121.779c-19.4873 -56.1973 -40.4492 -111.666 -28.1523 -170.221c22 -109 135 -168 251 -168c115 0 228 59 250 168c12.2969 58.5547 -8.66504 114.024 -28.1523 170.221c-13.793 39.7773 -26.8477 79.9189 -26.8477 121.779
c0 13.4736 5.10156 25.873 13.0811 33.8584c7.41699 7.42383 17.3203 11.0322 27.9189 8.1416c7.64258 -2.01074 13.3447 -6.77441 16.6484 -12.7246c4.9082 -8.84375 4.52441 -20.3096 -2.64844 -29.2754M591 421c0 -52.0938 19.7285 -106.543 35.5381 -160.792
c13.3252 -45.7217 23.8652 -91.3018 17.4619 -135.208c-12 -85 -84 -152 -167 -143c-63 7 -110 59 -167 84c-101 44 -219 27 -279 -66M217 785l242 104" />
    <glyph glyph-name="Ycircumflex" unicode="&#x176;" horiz-adv-x="676" 
d="M87 658c-6.09766 10.1621 -4.70703 21.6162 1.15234 30.0312c5.67285 8.14551 15.5342 13.4443 26.8477 11.9688c7.29395 -0.810547 13.1104 -4.57715 17.4492 -10.1006c6.36719 -8.1084 9.55078 -20.0049 9.55078 -31.8994
c0 -41.8604 -13.0547 -82.002 -26.8477 -121.779c-19.4873 -56.1973 -40.4492 -111.666 -28.1523 -170.221c22 -109 135 -168 251 -168c115 0 228 59 250 168c12.2969 58.5547 -8.66504 114.024 -28.1523 170.221c-13.793 39.7773 -26.8477 79.9189 -26.8477 121.779
c0 13.4736 5.10156 25.873 13.0811 33.8584c7.41699 7.42383 17.3203 11.0322 27.9189 8.1416c7.64258 -2.01074 13.3447 -6.77441 16.6484 -12.7246c4.9082 -8.84375 4.52441 -20.3096 -2.64844 -29.2754M591 421c0 -52.0938 19.7285 -106.543 35.5381 -160.792
c13.3252 -45.7217 23.8652 -91.3018 17.4619 -135.208c-12 -85 -84 -152 -167 -143c-63 7 -110 59 -167 84c-101 44 -219 27 -279 -66M217 785l121 104l121 -104" />
    <glyph glyph-name="Ydieresis" unicode="&#x178;" horiz-adv-x="676" 
d="M87 658c-6.09766 10.1621 -4.70703 21.6162 1.15234 30.0312c5.67285 8.14551 15.5342 13.4443 26.8477 11.9688c7.29395 -0.810547 13.1104 -4.57715 17.4492 -10.1006c6.36719 -8.1084 9.55078 -20.0049 9.55078 -31.8994
c0 -41.8604 -13.0547 -82.002 -26.8477 -121.779c-19.4873 -56.1973 -40.4492 -111.666 -28.1523 -170.221c22 -109 135 -168 251 -168c115 0 228 59 250 168c12.2969 58.5547 -8.66504 114.024 -28.1523 170.221c-13.793 39.7773 -26.8477 79.9189 -26.8477 121.779
c0 13.4736 5.10156 25.873 13.0811 33.8584c7.41699 7.42383 17.3203 11.0322 27.9189 8.1416c7.64258 -2.01074 13.3447 -6.77441 16.6484 -12.7246c4.9082 -8.84375 4.52441 -20.3096 -2.64844 -29.2754M591 421c0 -52.0938 19.7285 -106.543 35.5381 -160.792
c13.3252 -45.7217 23.8652 -91.3018 17.4619 -135.208c-12 -85 -84 -152 -167 -143c-63 7 -110 59 -167 84c-101 44 -219 27 -279 -66M248 930c23 0 34 -25 34 -51c0 -25 -11 -51 -34 -51c-22 0 -34 26 -34 51c0 26 12 51 34 51M428 930c23 0 34 -25 34 -51
c0 -25 -11 -51 -34 -51c-22 0 -34 26 -34 51c0 26 12 51 34 51" />
    <glyph glyph-name="Z" unicode="Z" horiz-adv-x="634" 
d="M73 658c-2.1435 10.717 0.6751 20.883 6.5649 28.607c7.8491 10.294 21.1521 16.25 35.4351 13.393c20 -4 30 -24 42 -42c81 -127 266 -127 348 0c11 18 22 38 42 42c25 5 47 -17 42 -42l-558 -613c-5 -25 17 -47 42 -42c20 4 31 24 42 42c93 149 311 149 404 0
c11 -18 22 -38 42 -42c11.4 -2.2801 21.969 1.05451 29.714 7.7279c9.24 7.9607 14.462 20.6725 12.286 34.2721" />
    <glyph glyph-name="Zacute" unicode="&#x179;" horiz-adv-x="634" 
d="M73 658c-2.14355 10.7168 0.674805 20.8828 6.56445 28.6074c7.84961 10.2939 21.1523 16.25 35.4355 13.3926c20 -4 30 -24 42 -42c81 -127 266 -127 348 0c11 18 22 38 42 42c25 5 47 -17 42 -42l-558 -613c-5 -25 17 -47 42 -42c20 4 31 24 42 42
c93 149 311 149 404 0c11 -18 22 -38 42 -42c11.4004 -2.28027 21.9688 1.05469 29.7139 7.72754c9.24023 7.96094 14.4619 20.6729 12.2861 34.2725M196 785l242 104" />
    <glyph glyph-name="Zcaron" unicode="&#x17d;" horiz-adv-x="634" 
d="M73 658c-2.14355 10.7168 0.674805 20.8828 6.56445 28.6074c7.84961 10.2939 21.1523 16.25 35.4355 13.3926c20 -4 30 -24 42 -42c81 -127 266 -127 348 0c11 18 22 38 42 42c25 5 47 -17 42 -42l-558 -613c-5 -25 17 -47 42 -42c20 4 31 24 42 42
c93 149 311 149 404 0c11 -18 22 -38 42 -42c11.4004 -2.28027 21.9688 1.05469 29.7139 7.72754c9.24023 7.96094 14.4619 20.6729 12.2861 34.2725M438 889l-121 -104l-121 104" />
    <glyph glyph-name="a" unicode="a" horiz-adv-x="523" 
d="M55.906 381.365M55.906 381.365c22.1261 79.2092 94.2619 134.621 177.094 133.635c111 -1 197 -95 188 -205v-257c-6.087 -15.2183 -1.799 -31.1777 8.579 -41.3368c6.67 -6.52976 15.857 -10.6632 26.421 -10.6632c12.639 0 23.387 6.38015 29.948 15.8093
c6.935 9.968 9.191 23.3434 4.052 36.1907M421 310c0 -215 -310 -23 -376 -137c-54 -92 50 -208 188 -182c93 18 167 89 188 182" />
    <glyph glyph-name="aacute" unicode="&#xe1;" horiz-adv-x="523" 
d="M55 378c21 81 94 138 178 137c111 -1 197 -95 188 -205v-257c-6.08691 -15.2188 -1.79883 -31.1777 8.5791 -41.3369c6.66992 -6.5293 15.8564 -10.6631 26.4209 -10.6631c12.6387 0 23.3867 6.37988 29.9482 15.8096c6.93457 9.96777 9.19043 23.3428 4.05176 36.1904z
M421 310c0 -215 -310 -23 -376 -137c-54 -92 50 -208 188 -182c93 18 167 89 188 182M112 585l242 104" />
    <glyph glyph-name="acircumflex" unicode="&#xe2;" horiz-adv-x="523" 
d="M55 378c21 81 94 138 178 137c111 -1 197 -95 188 -205v-257c-6.08691 -15.2188 -1.79883 -31.1777 8.5791 -41.3369c6.66992 -6.5293 15.8564 -10.6631 26.4209 -10.6631c12.6387 0 23.3867 6.37988 29.9482 15.8096c6.93457 9.96777 9.19043 23.3428 4.05176 36.1904z
M421 310c0 -215 -310 -23 -376 -137c-54 -92 50 -208 188 -182c93 18 167 89 188 182M122 585l121 104l121 -104" />
    <glyph glyph-name="acute" unicode="&#xb4;" horiz-adv-x="260" 
d="M9 585l242 104" />
    <glyph glyph-name="adieresis" unicode="&#xe4;" horiz-adv-x="523" 
d="M55 378c21 81 94 138 178 137c111 -1 197 -95 188 -205v-257c-6.08691 -15.2188 -1.79883 -31.1777 8.5791 -41.3369c6.66992 -6.5293 15.8564 -10.6631 26.4209 -10.6631c12.6387 0 23.3867 6.37988 29.9482 15.8096c6.93457 9.96777 9.19043 23.3428 4.05176 36.1904z
M421 310c0 -215 -310 -23 -376 -137c-54 -92 50 -208 188 -182c93 18 167 89 188 182M142 730c23 0 34 -25 34 -51c0 -25 -11 -51 -34 -51c-22 0 -34 26 -34 51c0 26 12 51 34 51M322 730c23 0 34 -25 34 -51c0 -25 -11 -51 -34 -51c-22 0 -34 26 -34 51c0 26 12 51 34 51
" />
    <glyph glyph-name="ae" unicode="&#xe6;" horiz-adv-x="870" 
d="M55 378c21 81 94 138 178 137c111 -1 197 -95 188 -205v-87M421 310c0 -215 -310 -23 -376 -137c-54 -92 50 -208 188 -182c88 17 163 80 184 167c4 18 5 20 6 36M829 171c-17 -95 -93 -168 -188 -181c-124 -16 -202 69 -214 184
c-2.90234 28.2988 44.4785 39.6602 107.423 51c110.547 19.916 269.1 39.8555 287.577 152c14 88 -80 154 -181 137c-78 -14 -142 -47 -189 -138c-52 -101 -31 -237 4 -297" />
    <glyph glyph-name="agrave" unicode="&#xe0;" horiz-adv-x="523" 
d="M55 378c21 81 94 138 178 137c111 -1 197 -95 188 -205v-257c-6.08691 -15.2188 -1.79883 -31.1777 8.5791 -41.3369c6.66992 -6.5293 15.8564 -10.6631 26.4209 -10.6631c12.6387 0 23.3867 6.37988 29.9482 15.8096c6.93457 9.96777 9.19043 23.3428 4.05176 36.1904z
M421 310c0 -215 -310 -23 -376 -137c-54 -92 50 -208 188 -182c93 18 167 89 188 182M365 585l-242 104" />
    <glyph glyph-name="amacron" unicode="&#x101;" horiz-adv-x="523" 
d="M55 378c21 81 94 138 178 137c111 -1 197 -95 188 -205v-257c-6.08691 -15.2188 -1.79883 -31.1777 8.5791 -41.3369c6.66992 -6.5293 15.8564 -10.6631 26.4209 -10.6631c12.6387 0 23.3867 6.37988 29.9482 15.8096c6.93457 9.96777 9.19043 23.3428 4.05176 36.1904z
M421 310c0 -215 -310 -23 -376 -137c-54 -92 50 -208 188 -182c93 18 167 89 188 182M93.6592 580h335.993" />
    <glyph glyph-name="ampersand" unicode="&#x26;" horiz-adv-x="689" 
d="M639 0l-453 513c-68.948 68.948 -11.331 186.944 84 195c80 7 146 -60 139 -140c-15 -169 -263 -147 -335 -279c-88 -163 88 -355 279 -279c126 50 168.173 194.447 168.173 333.447M437 317c-11 29 11 59 42 56c35 -3 45.627 -52.861 84 -56c30.049 -2.458 53 28 42 56
" />
    <glyph glyph-name="aring" unicode="&#xe5;" horiz-adv-x="523" 
d="M55 378c21 81 94 138 178 137c111 -1 197 -95 188 -205v-257c-6.08691 -15.2188 -1.79883 -31.1777 8.5791 -41.3369c6.66992 -6.5293 15.8564 -10.6631 26.4209 -10.6631c12.6387 0 23.3867 6.37988 29.9482 15.8096c6.93457 9.96777 9.19043 23.3428 4.05176 36.1904z
M421 310c0 -215 -310 -23 -376 -137c-54 -92 50 -208 188 -182c93 18 167 89 188 182" />
    <glyph glyph-name="asterisk" unicode="*" horiz-adv-x="522" 
d="M260.869 537.86v221.769M260.874 537.85l-210.913 68.5352M261.223 537.857l-130.366 -179.407M261.228 537.87l130.343 -179.431M261.219 537.867l210.938 68.5107" />
    <glyph glyph-name="at" unicode="@" horiz-adv-x="909" 
d="M625.932 500.057v-388.556c0.111 -28.1264 14.488 -66.1728 53.419 -66.1728c73.317 0 135.567 115.497 134.381 256.386c-1.964 233.16 -154.611 366.744 -350.878 366.744c-196.861 0 -367.375 -142.298 -367.375 -383.062
c0 -237.632 154.517 -389.526 340.475 -389.526c19.477 0 43.027 1.733 67.482 6.0947M440.761 513.964c-111.646 1.75879 -187.248 -108.129 -189.007 -228.565c-1.75781 -123.953 73.8447 -239.115 189.007 -237.357c112.524 1.75781 184.611 116.041 182.853 237.357
c-2.63672 117.799 -72.9648 226.808 -182.853 228.565" />
    <glyph glyph-name="atilde" unicode="&#xe3;" horiz-adv-x="523" 
d="M55 378c21 81 94 138 178 137c111 -1 197 -95 188 -205v-257c-6.08691 -15.2188 -1.79883 -31.1777 8.5791 -41.3369c6.66992 -6.5293 15.8564 -10.6631 26.4209 -10.6631c12.6387 0 23.3867 6.37988 29.9482 15.8096c6.93457 9.96777 9.19043 23.3428 4.05176 36.1904z
M421 310c0 -215 -310 -23 -376 -137c-54 -92 50 -208 188 -182c93 18 167 89 188 182M113 576c-1.65723 35.627 20.8838 64.04 60.0479 63.9678c56.6787 -0.104492 59.5254 -66.7773 122.689 -66.9082c41.0303 -0.0849609 60.9062 28.5947 59.2627 63.9404" />
    <glyph glyph-name="b" unicode="b" horiz-adv-x="536" 
d="M97.312 292.112c16.704 121.568 103.008 226.432 217.152 217.152c114.144 -10.208 180.96 -127.136 182.816 -249.632c2.784 -128.064 -64.96 -253.344 -182.816 -263.552c-141.984 -12.064 -239.424 138.272 -217.152 296.032M94 -1v647
c5.8126 14.532 2.165 30.077 -7.2116 40.548c-6.7547 7.543 -16.4825 12.452 -27.7884 12.452c-11.9948 0 -22.4107 -5.526 -29.3189 -13.86c-8.6419 -10.426 -11.7943 -25.246 -5.6811 -39.14" />
    <glyph glyph-name="backslash" unicode="\" horiz-adv-x="372" 
d="M321 0l-260 700" />
    <glyph glyph-name="bar" unicode="|" horiz-adv-x="401" 
d="M225.358 -40v780" />
    <glyph glyph-name="bullet" unicode="&#x2022;" horiz-adv-x="524" 
d="M455 629c63 -142 49 -309 -41 -437c-81 -115 -213 -187 -358 -193l-26 28c108 74 200 169 273 276c63 92 111 192 138 300l-14 83l28 14v-71" />
    <glyph glyph-name="c" unicode="c" horiz-adv-x="482" 
d="M421 433c-37 49 -89 80 -152 80c-126 0 -209 -126 -209 -261c0 -136 83 -262 209 -262c63 0 115 32 152 80" />
    <glyph glyph-name="cacute" unicode="&#x107;" horiz-adv-x="482" 
d="M421 433c-37 49 -89 80 -152 80c-126 0 -209 -126 -209 -261c0 -136 83 -262 209 -262c63 0 115 32 152 80M120 585l242 104" />
    <glyph glyph-name="caron" unicode="&#x2c7;" horiz-adv-x="382" 
d="M312 689l-121 -104l-121 104" />
    <glyph glyph-name="ccaron" unicode="&#x10d;" horiz-adv-x="482" 
d="M421 433c-37 49 -89 80 -152 80c-126 0 -209 -126 -209 -261c0 -136 83 -262 209 -262c63 0 115 32 152 80M362 689l-121 -104l-121 104" />
    <glyph glyph-name="ccedilla" unicode="&#xe7;" horiz-adv-x="482" 
d="M421 433c-37 49 -89 80 -152 80c-126 0 -209 -126 -209 -261c0 -136 83 -262 209 -262c63 0 115 32 152 80M260 -10c0 -35 -38 -55 -38 -83c-1 -20 13 -42 35 -42c38 0 37 93 89 93c40 1 73 -49 50 -105c-13 -31 -38 -55 -68 -68c-59 -26 -127 -12 -171 34" />
    <glyph glyph-name="ccircumflex" unicode="&#x109;" horiz-adv-x="482" 
d="M421 433c-37 49 -89 80 -152 80c-126 0 -209 -126 -209 -261c0 -136 83 -262 209 -262c63 0 115 32 152 80M144 585l121 104l121 -104" />
    <glyph glyph-name="cedilla" unicode="&#xb8;" horiz-adv-x="260" 
d="M125 -10c0 -35 -38 -55 -38 -83c-1 -20 13 -42 35 -42c38 0 37 93 89 93c40 1 73 -49 50 -105c-13 -31 -38 -55 -68 -68c-59 -26 -127 -12 -171 34" />
    <glyph glyph-name="circumflex" unicode="&#x2c6;" horiz-adv-x="418" 
d="M84 585.091l121 103.909l121 -103.909" />
    <glyph glyph-name="colon" unicode=":" horiz-adv-x="268" 
d="M145 501c23 0 34 -25 34 -51c0 -25 -11 -51 -34 -51c-22 0 -34 26 -34 51c0 26 12 51 34 51M145 97c23 0 34 -25 34 -51c0 -25 -11 -51 -34 -51c-22 0 -34 26 -34 51c0 26 12 51 34 51" />
    <glyph glyph-name="comma" unicode="," horiz-adv-x="268" 
d="M109.11 44.4383c0 -25.3925 11.173 -50.785 33.518 -50.785c22.345 0 33.518 25.3925 33.518 50.785s-11.173 50.785 -33.518 50.785c-22.345 0 -33.518 -25.3925 -33.518 -50.785M176.146 44.4383c0 -78.2089 -23.361 -155.402 -67.036 -220.407" />
    <glyph glyph-name="d" unicode="d" horiz-adv-x="536" 
d="M438.688 292.112c-16.704 121.568 -103.008 226.432 -217.152 217.152c-114.144 -10.208 -180.96 -127.136 -182.816 -249.632c-2.784 -128.064 64.96 -253.344 182.816 -263.552c141.984 -12.064 239.424 138.272 217.152 296.032M512 52
c5.715 -12.9894 3.332 -26.7887 -4.065 -37.0497c-6.839 -9.48772 -17.964 -15.9503 -30.935 -15.9503c-11.749 0 -21.793 5.30163 -28.568 13.3508c-8.795 10.4488 -12.081 25.5276 -6.432 39.6492v647" />
    <glyph glyph-name="degree" unicode="&#xb0;" horiz-adv-x="428" 
d="M255.677 711.407c-75.33 0.935 -126.342 -57.485 -127.528 -121.514c-1.186 -65.898 49.825 -127.123 127.528 -126.188c75.924 0.934 124.563 61.692 123.376 126.188c-1.779 62.627 -49.231 120.58 -123.376 121.514" />
    <glyph glyph-name="dieresis" unicode="&#xa8;" horiz-adv-x="328" 
d="M74 730c23 0 34 -25 34 -51c0 -25 -11 -51 -34 -51c-22 0 -34 26 -34 51c0 26 12 51 34 51M254 730c23 0 34 -25 34 -51c0 -25 -11 -51 -34 -51c-22 0 -34 26 -34 51c0 26 12 51 34 51" />
    <glyph glyph-name="divide" unicode="&#xf7;" horiz-adv-x="572" 
d="M295 501c23 0 34 -25 34 -51c0 -25 -11 -51 -34 -51c-22 0 -34 26 -34 51c0 26 12 51 34 51M295 97c23 0 34 -25 34 -51c0 -25 -11 -51 -34 -51c-22 0 -34 26 -34 51c0 26 12 51 34 51M99.1602 250h398.368" />
    <glyph glyph-name="dollar" unicode="$" horiz-adv-x="572" 
d="M290.755 -70l3.067 847.324M538.461 497.354c-25.1914 119.654 -125.952 208.87 -247.706 219.366c-119.654 10.4961 -228.812 -67.1738 -219.366 -175.283c20.9922 -235.11 408.294 -122.803 467.072 -321.178c39.8848 -131.199 -92.3652 -251.903 -247.706 -234.061
c-120.704 13.6445 -220.416 100.762 -248.755 219.367" />
    <glyph glyph-name="dotlessi" unicode="&#x131;" horiz-adv-x="192" 
d="M33 454c-5.0742 12.178 -2.9385 24.781 3.7933 34.288c6.5348 9.229 17.4008 15.54 30.2067 15.712c12.3861 0.167 22.6815 -5.524 29.2205 -14.053c7.6875 -10.027 10.1835 -22.978 4.7795 -35.947v-407c-4.9948 -11.9874 -3.0042 -24.4738 3.48 -33.9701
c6.497 -9.51628 17.506 -16.0299 30.52 -16.0299c13.159 0 24.268 6.65956 30.736 16.349c6.312 9.4559 8.203 21.7974 3.264 33.651" />
    <glyph glyph-name="e" unicode="e" horiz-adv-x="488" 
d="M447 171c-17 -95 -93 -168 -188 -181c-124 -16 -202 69 -214 184c-2.9025 28.299 44.4783 39.66 107.423 51c110.547 19.916 269.099 39.855 287.577 152c14 88 -80 154 -181 137c-78 -14 -142 -47 -189 -138c-52 -101 -31 -237 4 -297" />
    <glyph glyph-name="eacute" unicode="&#xe9;" horiz-adv-x="488" 
d="M447 171c-17 -95 -93 -168 -188 -181c-124 -16 -202 69 -214 184c-2.90234 28.2988 44.4785 39.6602 107.423 51c110.547 19.916 269.1 39.8555 287.577 152c14 88 -80 154 -181 137c-78 -14 -142 -47 -189 -138c-52 -101 -31 -237 4 -297M122 585l242 104" />
    <glyph glyph-name="ecaron" unicode="&#x11b;" horiz-adv-x="488" 
d="M447 171c-17 -95 -93 -168 -188 -181c-124 -16 -202 69 -214 184c-2.90234 28.2988 44.4785 39.6602 107.423 51c110.547 19.916 269.1 39.8555 287.577 152c14 88 -80 154 -181 137c-78 -14 -142 -47 -189 -138c-52 -101 -31 -237 4 -297M365 689l-121 -104l-121 104z
" />
    <glyph glyph-name="ecircumflex" unicode="&#xea;" horiz-adv-x="488" 
d="M447 171c-17 -95 -93 -168 -188 -181c-124 -16 -202 69 -214 184c-2.90234 28.2988 44.4785 39.6602 107.423 51c110.547 19.916 269.1 39.8555 287.577 152c14 88 -80 154 -181 137c-78 -14 -142 -47 -189 -138c-52 -101 -31 -237 4 -297M146 585l121 104l121 -104z
" />
    <glyph glyph-name="edieresis" unicode="&#xeb;" horiz-adv-x="488" 
d="M447 171c-17 -95 -93 -168 -188 -181c-124 -16 -202 69 -214 184c-2.90234 28.2988 44.4785 39.6602 107.423 51c110.547 19.916 269.1 39.8555 287.577 152c14 88 -80 154 -181 137c-78 -14 -142 -47 -189 -138c-52 -101 -31 -237 4 -297M170 730c23 0 34 -25 34 -51
c0 -25 -11 -51 -34 -51c-22 0 -34 26 -34 51c0 26 12 51 34 51M350 730c23 0 34 -25 34 -51c0 -25 -11 -51 -34 -51c-22 0 -34 26 -34 51c0 26 12 51 34 51" />
    <glyph glyph-name="egrave" unicode="&#xe8;" horiz-adv-x="488" 
d="M447 171c-17 -95 -93 -168 -188 -181c-124 -16 -202 69 -214 184c-2.90234 28.2988 44.4785 39.6602 107.423 51c110.547 19.916 269.1 39.8555 287.577 152c14 88 -80 154 -181 137c-78 -14 -142 -47 -189 -138c-52 -101 -31 -237 4 -297M365 585l-242 104" />
    <glyph glyph-name="eight" unicode="8" horiz-adv-x="493" 
d="M247 705c-113 0 -213 -72 -199 -170c11 -71 71 -114 145 -114c16 0 29 -13 29 -28s-13 -29 -29 -29c-98 0 -170 -73 -173 -169c-2 -115 105 -199 227 -199c121 0 230 84 226 199c-2 96 -74 169 -173 169c-16 0 -29 14 -29 29s13 28 29 28c74 0 134 43 145 114
c15 98 -86 170 -198 170" />
    <glyph glyph-name="emacron" unicode="&#x113;" horiz-adv-x="488" 
d="M447 171c-17 -95 -93 -168 -188 -181c-124 -16 -202 69 -214 184c-2.90234 28.2988 44.4785 39.6602 107.423 51c110.547 19.916 269.1 39.8555 287.577 152c14 88 -80 154 -181 137c-78 -14 -142 -47 -189 -138c-52 -101 -31 -237 4 -297M86.6592 580h335.993" />
    <glyph glyph-name="emdash" unicode="&#x2014;" horiz-adv-x="1000" 
d="M70 270h745.878" />
    <glyph glyph-name="endash" unicode="&#x2013;" horiz-adv-x="500" 
d="M70 270h322.077" />
    <glyph glyph-name="equal" unicode="=" horiz-adv-x="572" 
d="M80 270h406M80 437h406" />
    <glyph glyph-name="exclam" unicode="!" horiz-adv-x="186" 
d="M61 214c-2 -24 18 -44 42 -42c26 2 42 28 42 56c0 178 -84 238 -84 416c0 28 16 54 42 56c24 2 44 -18 42 -42M104 97c23 0 34 -25 34 -51c0 -25 -11 -51 -34 -51c-22 0 -34 26 -34 51c0 26 12 51 34 51" />
    <glyph glyph-name="exclamdown" unicode="&#xa1;" horiz-adv-x="269" 
d="M175 286c2 24 -18 44 -42 42c-26 -2 -42 -28 -42 -56c0 -178 84 -238 84 -416c0 -28 -16 -54 -42 -56c-24 -2 -44 18 -42 42M132 403c-23 0 -34 25 -34 51c0 25 11 51 34 51c22 0 34 -26 34 -51c0 -26 -12 -51 -34 -51" />
    <glyph glyph-name="f" unicode="f" horiz-adv-x="340" 
d="M90 2v523c-17 89 49 172 139 175c66 2 124 -41 140 -105M20 493h209" />
    <glyph glyph-name="five" unicode="5" horiz-adv-x="507" 
d="M422 700h-382v-311c11 -13 31 -13 42 0c127 150 384 50 382 -170c-1 -124 -101 -224 -226 -226c-82 -2 -158 42 -198 113" />
    <glyph glyph-name="four" unicode="4" horiz-adv-x="620" 
d="M325 693c5 10 16 15 28 14c9.306 -0.931 17.314 -5.759 22.611 -12.671c6.088 -7.942 8.597 -18.635 5.389 -29.329l-381 -494c-5 -25 17 -47 42 -42c21 3 31 24 43 42c94 151 314 151 409 0c11 -18 22 -39 42 -42c11.006 -2.201 21.43 0.83 29.226 7.047
c9.912 7.905 15.573 20.959 12.774 34.953M325 425v-423" />
    <glyph glyph-name="g" unicode="g" horiz-adv-x="556" 
d="M49 292c17 123 103 229 219 220c117 -10 184 -129 186 -254c3 -130 -65 -256 -186 -267c-143 -12 -242 140 -219 301M522 451c8.222 10.572 8.511 24.248 2.892 34.95c-3.948 7.521 -10.813 13.574 -19.892 16.05c-14.353 3.721 -27.858 -1.883 -37.361 -12.757
c-8.373 -9.582 -13.639 -23.254 -13.639 -38.243v-412c0 -34.6688 22.78 -54.4517 50.452 -71.6668c30.595 -19.0337 67.17 -34.9285 85.548 -64.3332c43 -69 -11 -160 -102 -169c-117 -11 -192 117 -304 135c-93 16 -181 -43 -203 -135" />
    <glyph glyph-name="gcircumflex" unicode="&#x11d;" horiz-adv-x="556" 
d="M49 292c17 123 103 229 219 220c117 -10 184 -129 186 -254c3 -130 -65 -256 -186 -267c-143 -12 -242 140 -219 301M522 451c8.22168 10.5723 8.51074 24.248 2.8916 34.9502c-3.94727 7.52051 -10.8125 13.5742 -19.8916 16.0498
c-14.3525 3.7207 -27.8584 -1.88281 -37.3613 -12.7568c-8.37305 -9.58203 -13.6387 -23.2539 -13.6387 -38.2432v-412c0 -34.6689 22.7803 -54.4521 50.4521 -71.667c30.5947 -19.0332 67.1699 -34.9287 85.5479 -64.333c43 -69 -11 -160 -102 -169
c-117 -11 -192 117 -304 135c-93 16 -181 -43 -203 -135M127 585l121 104l121 -104" />
    <glyph glyph-name="grave" unicode="`" horiz-adv-x="281" 
d="M261 585l-242 104" />
    <glyph glyph-name="greater" unicode="&#x3e;" horiz-adv-x="320" 
d="M20 499c61 -81 141 -145 233 -186c23 -10 47 -23 47 -47s-24 -36 -47 -47c-92 -41 -172 -105 -233 -186" />
    <glyph glyph-name="guillemotleft" unicode="&#xab;" horiz-adv-x="430" 
d="M293.731 468.33c-53.094 -70.503 -122.726 -126.208 -202.803 -161.895c-20.0192 -8.704 -40.9088 -20.019 -40.9088 -40.909c0 -20.889 20.8896 -31.334 40.9088 -40.908c80.077 -35.687 149.709 -91.392 202.803 -161.895M409.494 468.33
c-53.094 -70.503 -122.726 -126.208 -202.803 -161.895c-20.019 -8.704 -40.909 -20.019 -40.909 -40.909c0 -20.889 20.89 -31.334 40.909 -40.908c80.077 -35.687 149.709 -91.392 202.803 -161.895" />
    <glyph glyph-name="guillemotright" unicode="&#xbb;" horiz-adv-x="430" 
d="M136.782 468.33c53.0938 -70.5029 122.726 -126.208 202.803 -161.896c20.0195 -8.70312 40.9092 -20.0186 40.9092 -40.9082s-20.8896 -31.334 -40.9092 -40.9082c-80.0771 -35.6875 -149.709 -91.3926 -202.803 -161.895M21.0186 468.33
c53.0947 -70.5029 122.727 -126.208 202.804 -161.896c20.0186 -8.70312 40.9092 -20.0186 40.9092 -40.9082s-20.8906 -31.334 -40.9092 -40.9082c-80.0771 -35.6875 -149.709 -91.3926 -202.804 -161.895" />
    <glyph glyph-name="guilsinglleft" unicode="&#x2039;" horiz-adv-x="320" 
d="M300 499c-61 -81 -141 -145 -233 -186c-23 -10 -47 -23 -47 -47s24 -36 47 -47c92 -41 172 -105 233 -186" />
    <glyph glyph-name="guilsinglright" unicode="&#x203a;" horiz-adv-x="320" 
d="M20 499c61 -81 141 -145 233 -186c23 -10 47 -23 47 -47s-24 -36 -47 -47c-92 -41 -172 -105 -233 -186" />
    <glyph glyph-name="h" unicode="h" horiz-adv-x="562" 
d="M73 2c0 147 19 298 105 419c42 59 103 108 175 104c75 -3 136 -64 139 -139v-384M3 648c-5.0244 12.561 -2.9804 25.627 3.72218 35.519c6.63752 9.797 17.8436 16.481 31.2778 16.481c11.7224 0 21.9367 -5.089 28.8427 -12.895
c9.0005 -10.173 12.3815 -24.959 6.1573 -39.105v-646" />
    <glyph glyph-name="h_o_f" unicode="&#xf2510;" horiz-adv-x="1164" 
d="M914 2v248M844 493h209M914 493v32c-17 89 49 172 139 175c66 2 124 -41 140 -105M73 2c0 147 19 298 105 419c42 59 103 108 175 104c75 -3 136 -64 139 -139v-384M3 648c-5.02441 12.5605 -2.98047 25.627 3.72266 35.5186
c6.63672 9.79785 17.8428 16.4814 31.2773 16.4814c11.7227 0 21.9365 -5.08887 28.8428 -12.8945c9 -10.1738 12.3818 -24.959 6.15723 -39.1055v-646M706 516c-127 2 -213 -123 -215 -260c-2 -141 84 -272 215 -270c128 2 210 132 208 270c-3 134 -83 258 -208 260" />
    <glyph glyph-name="hcircumflex" unicode="&#x125;" horiz-adv-x="562" 
d="M73 2c0 147 19 298 105 419c42 59 103 108 175 104c75 -3 136 -64 139 -139v-384M3 648c-5.02441 12.5605 -2.98047 25.627 3.72266 35.5186c6.63672 9.79785 17.8428 16.4814 31.2773 16.4814c11.7227 0 21.9365 -5.08887 28.8428 -12.8945
c9 -10.1738 12.3818 -24.959 6.15723 -39.1055v-646M190 585l121 104l121 -104" />
    <glyph glyph-name="hyphen" unicode="-" horiz-adv-x="366" 
d="M70 270h236" />
    <glyph glyph-name="i" unicode="i" horiz-adv-x="232" 
d="M53 454c-5.1643 12.394 -2.8611 25.589 4.1551 35.451c6.5698 9.235 17.2719 15.549 29.8449 15.549c11.24 0 20.985 -5.046 27.619 -12.714c8.711 -10.07 12.058 -24.661 6.381 -38.286v-407c-5.709 -13.7024 -2.292 -28.0568 6.531 -37.8521
c6.63 -7.3614 16.313 -12.1479 27.469 -12.1479c12.461 0 23.085 5.9726 29.669 14.835c7.153 9.6285 9.538 22.6679 4.331 35.165M87 680c-22 0 -34 -25 -34 -51c0 -25 12 -51 34 -51c23 0 34 26 34 51c0 26 -11 51 -34 51" />
    <glyph glyph-name="iacute" unicode="&#xed;" horiz-adv-x="232" 
d="M53 454c-5.07422 12.1777 -2.93848 24.7812 3.79297 34.2881c6.53516 9.22852 17.4014 15.54 30.207 15.7119c12.3857 0.166992 22.6816 -5.52441 29.2207 -14.0527c7.6875 -10.0273 10.1836 -22.9785 4.7793 -35.9473v-407
c-4.99512 -11.9873 -3.00391 -24.4736 3.48047 -33.9697c6.49609 -9.5166 17.5059 -16.0303 30.5195 -16.0303c13.1592 0 24.2676 6.65918 30.7363 16.3486c6.31152 9.45605 8.20312 21.7979 3.26367 33.6514M-35 585l242 104" />
    <glyph glyph-name="icircumflex" unicode="&#xee;" horiz-adv-x="232" 
d="M53 454c-5.07422 12.1777 -2.93848 24.7812 3.79297 34.2881c6.53516 9.22852 17.4014 15.54 30.207 15.7119c12.3857 0.166992 22.6816 -5.52441 29.2207 -14.0527c7.6875 -10.0273 10.1836 -22.9785 4.7793 -35.9473v-407
c-4.99512 -11.9873 -3.00391 -24.4736 3.48047 -33.9697c6.49609 -9.5166 17.5059 -16.0303 30.5195 -16.0303c13.1592 0 24.2676 6.65918 30.7363 16.3486c6.31152 9.45605 8.20312 21.7979 3.26367 33.6514M-31 585l121 104l121 -104" />
    <glyph glyph-name="idieresis" unicode="&#xef;" horiz-adv-x="232" 
d="M53 454c-5.07422 12.1777 -2.93848 24.7812 3.79297 34.2881c6.53516 9.22852 17.4014 15.54 30.207 15.7119c12.3857 0.166992 22.6816 -5.52441 29.2207 -14.0527c7.6875 -10.0273 10.1836 -22.9785 4.7793 -35.9473v-407
c-4.99512 -11.9873 -3.00391 -24.4736 3.48047 -33.9697c6.49609 -9.5166 17.5059 -16.0303 30.5195 -16.0303c13.1592 0 24.2676 6.65918 30.7363 16.3486c6.31152 9.45605 8.20312 21.7979 3.26367 33.6514M4 730c23 0 34 -25 34 -51c0 -25 -11 -51 -34 -51
c-22 0 -34 26 -34 51c0 26 12 51 34 51M184 730c23 0 34 -25 34 -51c0 -25 -11 -51 -34 -51c-22 0 -34 26 -34 51c0 26 12 51 34 51" />
    <glyph glyph-name="igrave" unicode="&#xec;" horiz-adv-x="332" 
d="M292 585l-242 104M115 454c-5.07422 12.1777 -2.93848 24.7812 3.79297 34.2881c6.53516 9.22852 17.4014 15.54 30.207 15.7119c12.3857 0.166992 22.6816 -5.52441 29.2207 -14.0527c7.6875 -10.0273 10.1836 -22.9785 4.7793 -35.9473v-407
c-4.99512 -11.9873 -3.00391 -24.4736 3.48047 -33.9697c6.49609 -9.5166 17.5059 -16.0303 30.5195 -16.0303c13.1592 0 24.2676 6.65918 30.7363 16.3486c6.31152 9.45605 8.20312 21.7979 3.26367 33.6514" />
    <glyph glyph-name="imacron" unicode="&#x12b;" horiz-adv-x="192" 
d="M33 454c-5.07422 12.1777 -2.93848 24.7812 3.79297 34.2881c6.53516 9.22852 17.4014 15.54 30.207 15.7119c12.3857 0.166992 22.6816 -5.52441 29.2207 -14.0527c7.6875 -10.0273 10.1836 -22.9785 4.7793 -35.9473v-407
c-4.99512 -11.9873 -3.00391 -24.4736 3.48047 -33.9697c6.49609 -9.5166 17.5059 -16.0303 30.5195 -16.0303c13.1592 0 24.2676 6.65918 30.7363 16.3486c6.31152 9.45605 8.20312 21.7979 3.26367 33.6514M-72.3408 580h335.993" />
    <glyph glyph-name="itilde" unicode="&#x129;" horiz-adv-x="192" 
d="M33 454c-5.07422 12.1777 -2.93848 24.7812 3.79297 34.2881c6.53516 9.22852 17.4014 15.54 30.207 15.7119c12.3857 0.166992 22.6816 -5.52441 29.2207 -14.0527c7.6875 -10.0273 10.1836 -22.9785 4.7793 -35.9473v-407
c-4.99512 -11.9873 -3.00391 -24.4736 3.48047 -33.9697c6.49609 -9.5166 17.5059 -16.0303 30.5195 -16.0303c13.1592 0 24.2676 6.65918 30.7363 16.3486c6.31152 9.45605 8.20312 21.7979 3.26367 33.6514M-25 576c-1.65723 35.627 20.8838 64.04 60.0479 63.9678
c56.6787 -0.104492 59.5254 -66.7773 122.689 -66.9082c41.0303 -0.0849609 60.9062 28.5947 59.2627 63.9404" />
    <glyph glyph-name="j" unicode="j" horiz-adv-x="246" 
d="M-379 -266c22 92 110 150 203 135c112 -19 187 -146 304 -135c91 9 145 100 102 169c-18.416 29.4652 -55.103 45.6416 -85.737 64.8441c-27.586 17.2928 -50.263 37.0397 -50.263 71.1559l2 412c0 15.139 -5.3715 28.935 -13.891 38.529
c-9.4887 10.686 -22.8824 16.159 -37.109 12.471c-9.7301 -2.654 -16.9173 -9.415 -20.6964 -17.689c-4.7656 -10.434 -4.1117 -23.272 3.6964 -33.311M54 680c23 0 34 -25 34 -51c0 -25 -11 -51 -34 -51c-22 0 -34 26 -34 51c0 26 12 51 34 51" />
    <glyph glyph-name="jcircumflex" unicode="&#x135;" horiz-adv-x="246" 
d="M-319 -266c22 92 110 150 203 135c112 -19 187 -146 304 -135c91 9 145 100 102 169c-17.701 28.3214 -52.283 44.3657 -82.143 62.6206c-29.183 17.8406 -53.857 37.7926 -53.857 73.3794l2 412c0 32 -24 58 -51 51c-22 -6 -31 -33 -17 -51M2 585l121 104l121 -104z
" />
    <glyph glyph-name="k" unicode="k" horiz-adv-x="507" 
d="M93.0216 1.9184v234.045c0 154.431 101.675 291.597 235.004 267.617c66.184 -11.51 115.104 -70.981 99.756 -133.329c-33.572 -146.757 -334.76 -55.633 -334.76 -235.004M23 648c-5.1592 12.898 -2.8656 26.328 4.2717 36.309
c6.6969 9.364 17.6581 15.691 30.7283 15.691c12.3479 0 23.0226 -5.647 29.9198 -14.167c8.1842 -10.111 11.0496 -24.266 5.0802 -37.833v-646M263.759 268.576c83.451 14.388 164.023 -25.898 164.023 -99.757c0 -57.552 11.511 -114.145 33.572 -166.901" />
    <glyph glyph-name="l" unicode="l" horiz-adv-x="168" 
d="M23 648c-5.5803 13.951 -2.4414 28.525 6.1151 38.682c6.7767 8.044 16.9518 13.318 28.8849 13.318c11.752 0 21.9884 -5.115 28.8951 -12.954c8.9612 -10.171 12.3171 -24.927 6.1049 -39.046v-646" />
    <glyph glyph-name="lacute" unicode="&#x13a;" horiz-adv-x="168" 
d="M23 648c-5.58008 13.9512 -2.44141 28.5254 6.11523 38.6816c6.77637 8.04395 16.9521 13.3184 28.8848 13.3184c11.752 0 21.9883 -5.11523 28.8955 -12.9541c8.96094 -10.1709 12.3164 -24.9268 6.10449 -39.0459v-646M-37 705l242 104" />
    <glyph glyph-name="less" unicode="&#x3c;" horiz-adv-x="320" 
d="M300 499c-61 -81 -141 -145 -233 -186c-23 -10 -47 -23 -47 -47s24 -36 47 -47c92 -41 172 -105 233 -186" />
    <glyph glyph-name="m" unicode="m" horiz-adv-x="904" 
d="M90 2c0 142 25 286 101 406c32 50 76 96 135 101c77 6 135 -55.526 135 -135v-372M22 458c-3.4008 12.469 0.5873 24.939 8.8688 33.402c6.3296 6.469 15.1674 10.598 25.1312 10.598c11.2464 0 20.8191 -5.26 27.0814 -13.208
c6.5447 -8.307 9.4737 -19.549 6.9186 -30.792v-456M461 2c0 142 25 286 102 406c32 50 76 96 135 101c77 6 135.39 -55.526 135 -135v-372" />
    <glyph glyph-name="macron" unicode="&#xaf;" horiz-adv-x="304" 
d="M-9.34082 580h335.993" />
    <glyph glyph-name="n" unicode="n" horiz-adv-x="569" 
d="M91 2c0 144 19 291 102 408c41 58 100 105 170 102c74 -3 133 -62 136 -136v-374M23 452c-5.2544 12.611 -2.7783 26.049 4.5269 35.965c6.5977 8.954 17.1346 15.035 29.4731 15.035c11.1501 0 20.5948 -4.605 27.1368 -11.701
c9.2994 -10.088 12.7335 -25.21 6.8632 -39.299v-450" />
    <glyph glyph-name="nacute" unicode="&#x144;" horiz-adv-x="569" 
d="M91 2c0 144 19 291 102 408c41 58 100 105 170 102c74 -3 133 -62 136 -136v-374M23 452c-5.25488 12.6113 -2.77832 26.0488 4.52734 35.9648c6.59766 8.9541 17.1338 15.0352 29.4727 15.0352c11.1504 0 20.5947 -4.60547 27.1367 -11.7012
c9.2998 -10.0879 12.7334 -25.21 6.86328 -39.2988v-450M164 585l242 104" />
    <glyph glyph-name="ncaron" unicode="&#x148;" horiz-adv-x="569" 
d="M91 2c0 144 19 291 102 408c41 58 100 105 170 102c74 -3 133 -62 136 -136v-374M23 452c-5.25488 12.6113 -2.77832 26.0488 4.52734 35.9648c6.59766 8.9541 17.1338 15.0352 29.4727 15.0352c11.1504 0 20.5947 -4.60547 27.1367 -11.7012
c9.2998 -10.0879 12.7334 -25.21 6.86328 -39.2988v-450M406 689l-121 -104l-121 104" />
    <glyph glyph-name="nine" unicode="9" horiz-adv-x="527" 
d="M457 288c6 16 7 35 -10 43s-30 -1 -39 -18c-89 -169 -366 -53 -367 164c-1 125 99 227 223 223c128 -4 223 -119 223 -251c0 -230 -175 -423 -404 -446" />
    <glyph glyph-name="ntilde" unicode="&#xf1;" horiz-adv-x="569" 
d="M91 2c0 144 19 291 102 408c41 58 100 105 170 102c74 -3 133 -62 136 -136v-374M23 452c-5.25488 12.6113 -2.77832 26.0488 4.52734 35.9648c6.59766 8.9541 17.1338 15.0352 29.4727 15.0352c11.1504 0 20.5947 -4.60547 27.1367 -11.7012
c9.2998 -10.0879 12.7334 -25.21 6.86328 -39.2988v-450M148 606c-1.65723 35.627 20.8838 64.04 60.0479 63.9678c56.6787 -0.104492 59.5254 -66.7773 122.689 -66.9082c41.0303 -0.0849609 60.9062 28.5947 59.2627 63.9404" />
    <glyph glyph-name="numbersign" unicode="#" 
d="M86.6221 -0.436523l180.338 699.416M314.622 0.563477l180.338 699.206M552.928 473.182l-459.618 -0.0166016M499.928 243.182l-459.618 -0.0166016" />
    <glyph glyph-name="o" unicode="o" horiz-adv-x="505" 
d="M256 516c-127 2 -213 -123 -215 -260c-2 -141 84 -272 215 -270c128 2 210 132 208 270c-3 134 -83 258 -208 260" />
    <glyph glyph-name="oacute" unicode="&#xf3;" horiz-adv-x="505" 
d="M256 516c-127 2 -213 -123 -215 -260c-2 -141 84 -272 215 -270c128 2 210 132 208 270c-3 134 -83 258 -208 260M131 585l242 104" />
    <glyph glyph-name="ocircumflex" unicode="&#xf4;" horiz-adv-x="505" 
d="M256 516c-127 2 -213 -123 -215 -260c-2 -141 84 -272 215 -270c128 2 210 132 208 270c-3 134 -83 258 -208 260M131 585l121 104l121 -104" />
    <glyph glyph-name="odieresis" unicode="&#xf6;" horiz-adv-x="505" 
d="M256 516c-127 2 -213 -123 -215 -260c-2 -141 84 -272 215 -270c128 2 210 132 208 270c-3 134 -83 258 -208 260M161 731c23 0 34 -25 34 -51c0 -25 -11 -51 -34 -51c-22 0 -34 26 -34 51c0 26 12 51 34 51M341 731c23 0 34 -25 34 -51c0 -25 -11 -51 -34 -51
c-22 0 -34 26 -34 51c0 26 12 51 34 51" />
    <glyph glyph-name="oe" unicode="&#x153;" horiz-adv-x="913" 
d="M256 516c-127 2 -213 -123 -215 -260c-2 -141 84 -272 215 -270c128 2 210 132 208 270c-3 134 -83 258 -208 260M872 171c-17 -95 -93 -168 -188 -181c-124 -16 -202 69 -214 184c-2.90234 28.2988 44.4785 39.6602 107.423 51
c110.547 19.916 269.1 39.8555 287.577 152c14 88 -80 154 -181 137c-78 -14 -142 -47 -189 -138c-52 -101 -31 -237 4 -297" />
    <glyph glyph-name="ograve" unicode="&#xf2;" horiz-adv-x="505" 
d="M256 516c-127 2 -213 -123 -215 -260c-2 -141 84 -272 215 -270c128 2 210 132 208 270c-3 134 -83 258 -208 260M374 585l-242 104" />
    <glyph glyph-name="omacron" unicode="&#x14d;" horiz-adv-x="505" 
d="M256 516c-127 2 -213 -123 -215 -260c-2 -141 84 -272 215 -270c128 2 210 132 208 270c-3 134 -83 258 -208 260M84.6592 580h335.993" />
    <glyph glyph-name="one" unicode="1" horiz-adv-x="311" 
d="M62 395c-34 26 -45 66 -28 105c34 78 175 66 175 160c0 21 10 42 28 42c19 0 28 -21 28 -42v-661" />
    <glyph glyph-name="oslash" unicode="&#xf8;" horiz-adv-x="505" 
d="M455 500l-405 -500M256 516c-127 2 -213 -123 -215 -260c-2 -141 84 -272 215 -270c128 2 210 132 208 270c-3 134 -83 258 -208 260" />
    <glyph glyph-name="otilde" unicode="&#xf5;" horiz-adv-x="505" 
d="M256 516c-127 2 -213 -123 -215 -260c-2 -141 84 -272 215 -270c128 2 210 132 208 270c-3 134 -83 258 -208 260M135 576c-1.65723 35.627 20.8838 64.04 60.0479 63.9678c56.6787 -0.104492 59.5254 -66.7773 122.689 -66.9082
c41.0303 -0.0849609 60.9062 28.5947 59.2627 63.9404" />
    <glyph glyph-name="p" unicode="p" horiz-adv-x="556" 
d="M117.312 217.888c16.704 -121.568 103.008 -226.432 217.152 -217.152c114.144 10.208 180.96 127.136 182.816 249.632c2.784 128.064 -64.96 253.344 -182.816 263.552c-141.984 12.064 -239.424 -138.272 -217.152 -296.032M44 458
c-6.2625 14.233 -2.8013 29.438 6.3241 39.896c6.9031 7.91 17.0476 13.104 28.6759 13.104c10.8637 0 18.6515 -4.209 24.08 -11c8.063 -10.085 10.92 -25.864 10.92 -42v-647" />
    <glyph glyph-name="parenleft" unicode="(" horiz-adv-x="142" 
d="M91 1c-46 111 -70 230 -70 350s24 238 70 349" />
    <glyph glyph-name="parenright" unicode=")" horiz-adv-x="142" 
d="M52 1c46 111 70 230 70 350s-24 238 -70 349" />
    <glyph glyph-name="percent" unicode="%" horiz-adv-x="661" 
d="M497 1c-62 20 -111 74 -112 140c-1 74 43 141 112 140c67 -2 111 -68 112 -140c0 -73 -44 -140 -112 -140c-99 1 -221 126 -251 0l167 699c-29 -122 -152 0 -251 0c-68 0 -112 -67 -112 -140c0 -72 44 -138 112 -139c69 -2 112 66 112 139c0 64 -50 121 -112 140" />
    <glyph glyph-name="period" unicode="." horiz-adv-x="268" 
d="M145 97c23 0 34 -25 34 -51c0 -25 -11 -51 -34 -51c-22 0 -34 26 -34 51c0 26 12 51 34 51" />
    <glyph glyph-name="periodcentered.case" horiz-adv-x="268" 
d="M181 489c22 -50 16.595 -108.714 -15 -154c-28.408 -40.718 -75 -66 -126 -68l-9 10c38 26 70.212 58.856 96 97c22.213 32.857 39 68 49 106l-5 29l10 5v-25" />
    <glyph glyph-name="perthousand" unicode="&#x2030;" horiz-adv-x="943" 
d="M778.2 1c-68.37 0 -111.057 74 -112 140c-1.057 74 43.01 141.523 112 140c67.014 -1.478 111.503 -67.995 112 -140c0.503 -72.9983 -44 -140 -112 -140M497 1c-62 20 -111 74 -112 140c-1 74 43 141 112 140c67 -2 111 -68 112 -140c0 -73 -44 -140 -112 -140
c-99 1 -221 126 -251 0l167 699c-29 -122 -152 0 -251 0c-68 0 -112 -67 -112 -140c0 -72 44 -138 112 -139c69 -2 112 66 112 139c0 64 -50 121 -112 140" />
    <glyph glyph-name="plus" unicode="+" horiz-adv-x="572" 
d="M279 0.3754v499.811M529.625 249h-499.811" />
    <glyph glyph-name="q" unicode="q" horiz-adv-x="556" 
d="M438.688 217.888c-16.704 -121.568 -103.008 -226.432 -217.152 -217.152c-114.144 10.208 -180.96 127.136 -182.816 249.632c-2.784 128.064 64.96 253.344 182.816 263.552c141.984 12.064 239.424 -138.272 217.152 -296.032M512 458
c6.697 15.219 2.275 31.55 -8.301 42c-6.797 6.714 -16.136 11 -26.699 11s-19.749 -4.286 -26.419 -11c-10.38 -10.45 -14.669 -26.781 -8.581 -42v-647" />
    <glyph glyph-name="question" unicode="?" horiz-adv-x="562" 
d="M277 46c0 -26 11 -51 34 -51c22 0 33 25 33 51c0 25 -11 50 -33 50c-23 0 -34 -25 -34 -50M344 223c15 -24 -5 -55 -33 -51c-23 3 -34 27 -34 51v9c0 107 99 105 161 183c29 35 42 76 42 117c0 113 -75 186 -203 182c-106 -3 -197 -59 -197 -188c0 -50 31 -140 134 -137
" />
    <glyph glyph-name="questiondown" unicode="&#xbf;" horiz-adv-x="460" 
d="M233 455c0 26 -11 51 -34 51c-22 0 -33 -25 -33 -51c0 -25 11 -50 33 -50c23 0 34 25 34 50M166 278c-15 24 5 55 33 51c23 -3 34 -27 34 -51v-9c0 -107 -99 -105 -161 -183c-29 -35 -42 -76 -42 -117c0 -113 75 -186 203 -182c106 3 197 59 197 188
c0 50 -31 140 -134 137" />
    <glyph glyph-name="quotedblleft" unicode="&#x201c;" horiz-adv-x="302" 
d="M117.292 539.652c0 25.3916 -11.1729 50.7842 -33.5176 50.7842c-22.3457 0 -33.5186 -25.3926 -33.5186 -50.7842c0 -25.3936 11.1729 -50.7852 33.5186 -50.7852c22.3447 0 33.5176 25.3916 33.5176 50.7852M50.2559 539.652
c0 78.209 23.3613 155.401 67.0361 220.406M251.125 539.652c0 25.3916 -11.1729 50.7842 -33.5176 50.7842c-22.3457 0 -33.5186 -25.3926 -33.5186 -50.7842c0 -25.3936 11.1729 -50.7852 33.5186 -50.7852c22.3447 0 33.5176 25.3916 33.5176 50.7852M184.089 539.652
c0 78.209 23.3613 155.401 67.0361 220.406" />
    <glyph glyph-name="quotedblreversed" unicode="&#x201f;" horiz-adv-x="301" 
d="M117.146 689.438c0 -25.3926 -11.1729 -50.7852 -33.5186 -50.7852c-22.3447 0 -33.5176 25.3926 -33.5176 50.7852s11.1729 50.7842 33.5176 50.7842c22.3457 0 33.5186 -25.3916 33.5186 -50.7842M50.1104 689.438c0 -78.21 23.3604 -155.402 67.0361 -220.407z
M250.063 689.438c0 -25.3926 -11.1729 -50.7852 -33.5186 -50.7852c-22.3447 0 -33.5176 25.3926 -33.5176 50.7852s11.1729 50.7842 33.5176 50.7842c22.3457 0 33.5186 -25.3916 33.5186 -50.7842M183.027 689.438c0 -78.21 23.3604 -155.402 67.0361 -220.407" />
    <glyph glyph-name="quotedblright" unicode="&#x201d;" horiz-adv-x="302" 
d="M50.1104 689.438c0 -25.3926 11.1719 -50.7852 33.5176 -50.7852c22.3447 0 33.5186 25.3926 33.5186 50.7852s-11.1738 50.7842 -33.5186 50.7842c-22.3457 0 -33.5176 -25.3916 -33.5176 -50.7842M117.146 689.438c0 -78.21 -23.3613 -155.402 -67.0361 -220.407z
M184.057 689.438c0 -25.3926 11.1729 -50.7852 33.5186 -50.7852c22.3447 0 33.5176 25.3926 33.5176 50.7852s-11.1729 50.7842 -33.5176 50.7842c-22.3457 0 -33.5186 -25.3916 -33.5186 -50.7842M251.093 689.438c0 -78.21 -23.3604 -155.402 -67.0361 -220.407" />
    <glyph glyph-name="quoteleft" unicode="&#x2018;" horiz-adv-x="168" 
d="M117.292 539.652c0 25.3916 -11.1729 50.7842 -33.5176 50.7842c-22.3457 0 -33.5186 -25.3926 -33.5186 -50.7842c0 -25.3936 11.1729 -50.7852 33.5186 -50.7852c22.3447 0 33.5176 25.3916 33.5176 50.7852M50.2559 539.652
c0 78.209 23.3613 155.401 67.0361 220.406" />
    <glyph glyph-name="quotereversed" unicode="&#x201b;" horiz-adv-x="168" 
d="M117.146 689.438c0 -25.3926 -11.1729 -50.7852 -33.5186 -50.7852c-22.3447 0 -33.5176 25.3926 -33.5176 50.7852s11.1729 50.7842 33.5176 50.7842c22.3457 0 33.5186 -25.3916 33.5186 -50.7842M50.1104 689.438c0 -78.21 23.3604 -155.402 67.0361 -220.407" />
    <glyph glyph-name="quoteright" unicode="&#x2019;" horiz-adv-x="168" 
d="M50.1104 689.438c0 -25.3926 11.1719 -50.7852 33.5176 -50.7852c22.3447 0 33.5186 25.3926 33.5186 50.7852s-11.1738 50.7842 -33.5186 50.7842c-22.3457 0 -33.5176 -25.3916 -33.5176 -50.7842M117.146 689.438c0 -78.21 -23.3613 -155.402 -67.0361 -220.407" />
    <glyph glyph-name="quotesingle" unicode="'" horiz-adv-x="229" 
d="M81.1099 689.438c0 -25.392 11.1727 -50.785 33.5181 -50.785c22.345 0 33.518 25.393 33.518 50.785c0 25.393 -11.173 50.785 -33.518 50.785c-22.3454 0 -33.5181 -25.392 -33.5181 -50.785M148.146 689.438c0 -77.6535 -24.0679 -155.723 -67.146 -220.438" />
    <glyph glyph-name="r" unicode="r" horiz-adv-x="502" 
d="M90 2c0 142 25 285 101 405c32 50 76 96 135 101c77 6 141 -58 135 -135M21.665 458.389M21.665 458.389c-2.55764 11.5367 0.629303 22.4687 7.39045 30.3713c6.3956 7.476 15.9895 12.24 26.9446 12.24c12.0055 0 22.1037 -5.722 28.3037 -14.463
c5.6779 -8.005 8.0864 -18.542 5.6963 -29.537v-455" />
    <glyph glyph-name="racute" unicode="&#x155;" horiz-adv-x="502" 
d="M73.3662 2c0 142 25 285 101 405c32 50 76 96 135 101c77 6 141 -58 135 -135M5.36621 457c-3.14258 12.0449 0.0234375 23.541 7.05469 31.7598c6.39551 7.47656 15.9902 12.2402 26.9453 12.2402c12.0049 0 22.1035 -5.72168 28.3037 -14.4629
c5.67773 -8.00488 8.08594 -18.542 5.69629 -29.5371v-455M130 585l242 104" />
    <glyph glyph-name="rcaron" unicode="&#x159;" horiz-adv-x="502" 
d="M73.3662 2c0 142 25 285 101 405c32 50 76 96 135 101c77 6 141 -58 135 -135M5.36621 457c-3.14258 12.0449 0.0234375 23.541 7.05469 31.7598c6.39551 7.47656 15.9902 12.2402 26.9453 12.2402c12.0049 0 22.1035 -5.72168 28.3037 -14.4629
c5.67773 -8.00488 8.08594 -18.542 5.69629 -29.5371v-455M372 689l-121 -104l-121 104" />
    <glyph glyph-name="registered" unicode="&#xae;" horiz-adv-x="605" 
d="M33 42c-4.2243 -10.0326 -2.3146 -20.6229 3.5208 -28.3846c5.2158 -6.93757 13.5678 -11.6154 23.4792 -11.6154c10.7508 0 19.667 5.50377 24.736 13.4254c4.8325 7.552 6.1685 17.3015 2.264 26.5746v638M33 477c-31 235 279 348 407 149
c147 -229 -151 -482 -353 -299M87 327c103 113 288 84 353 -54c50 -108 39 -277 163 -271c44 1 79 37 81 81" />
    <glyph glyph-name="s" unicode="s" horiz-adv-x="479" 
d="M428 407c-48 65 -125 103 -206 103c-96 0 -185 -56 -171 -137c11 -72 94 -94 171 -103c98 -12 205 -48 211 -138c7 -95 -103 -154 -211 -137c-77 12 -142 56 -187 120" />
    <glyph glyph-name="sacute" unicode="&#x15b;" horiz-adv-x="479" 
d="M428 407c-48 65 -125 103 -206 103c-96 0 -185 -56 -171 -137c11 -72 94 -94 171 -103c98 -12 205 -48 211 -138c7 -95 -103 -154 -211 -137c-77 12 -142 56 -187 120M119 585l242 104" />
    <glyph glyph-name="scaron" unicode="&#x161;" horiz-adv-x="479" 
d="M428 407c-48 65 -125 103 -206 103c-96 0 -185 -56 -171 -137c11 -72 94 -94 171 -103c98 -12 205 -48 211 -138c7 -95 -103 -154 -211 -137c-77 12 -142 56 -187 120M361 689l-121 -104l-121 104" />
    <glyph glyph-name="scedilla" unicode="&#x15f;" horiz-adv-x="479" 
d="M428 407c-48 65 -125 103 -206 103c-96 0 -185 -56 -171 -137c11 -72 94 -94 171 -103c98 -12 205 -48 211 -138c7 -95 -103 -154 -211 -137c-77 12 -142 56 -187 120M219 -5c0 -35 -38 -55 -38 -83c-1 -20 13 -42 35 -42c38 0 37 93 89 93c40 1 73 -49 50 -105
c-13 -31 -38 -55 -68 -68c-59 -26 -127 -12 -171 34" />
    <glyph glyph-name="scircumflex" unicode="&#x15d;" horiz-adv-x="479" 
d="M428 407c-48 65 -125 103 -206 103c-96 0 -185 -56 -171 -137c11 -72 94 -94 171 -103c98 -12 205 -48 211 -138c7 -95 -103 -154 -211 -137c-77 12 -142 56 -187 120M119 585l121 104l121 -104" />
    <glyph glyph-name="semicolon" unicode=";" horiz-adv-x="268" 
d="M109.11 44.4385c0 -25.3926 11.1729 -50.7852 33.5176 -50.7852s33.5186 25.3926 33.5186 50.7852s-11.1738 50.7852 -33.5186 50.7852s-33.5176 -25.3926 -33.5176 -50.7852M176.146 44.4385c0 -78.209 -23.3613 -155.402 -67.0361 -220.407M143 504
c23 0 34 -25 34 -51c0 -25 -11 -51 -34 -51c-22 0 -34 26 -34 51c0 26 12 51 34 51" />
    <glyph glyph-name="seven" unicode="7" horiz-adv-x="572" 
d="M14.7423 650.499M14.7423 650.499c-1.9013 12.5314 2.63335 24.4688 10.7763 32.6464c8.3711 8.406 20.5555 12.838 33.4814 9.855c21 -4 32 -25 44 -44c87 -134 282 -134 369 0c12 19 22 40 44 44c12.926 2.983 25.11 -1.449 33.481 -9.854
c8.467 -8.503 13.033 -21.072 10.519 -34.146l-428 -649M103 340h413" />
    <glyph glyph-name="six" unicode="6" horiz-adv-x="527" 
d="M70 415c-6 -16 -7 -35 10 -43s31 1 39 18c90 169 366 53 367 -164c1 -125 -99 -227 -223 -223c-128 4 -223 119 -223 251c0 230 175 423 404 446" />
    <glyph glyph-name="slash" unicode="/" horiz-adv-x="372" 
d="M61 0l260 700" />
    <glyph glyph-name="space" unicode=" " horiz-adv-x="260" 
 />
    <glyph glyph-name="t" unicode="t" horiz-adv-x="406" 
d="M90 676v-517c-17 -87 48 -169 137 -172c65 -2 122 40 138 104M20 493h314" />
    <glyph glyph-name="thorn" unicode="&#xfe;" horiz-adv-x="556" 
d="M117.312 217.888c16.704 -121.568 103.008 -226.432 217.152 -217.152c114.144 10.208 180.96 127.136 182.816 249.632c2.784 128.064 -64.96 253.344 -182.816 263.552c-141.984 12.064 -239.424 -138.272 -217.152 -296.032M44 648c-11 25 8 53 35 53s45 -28 35 -53
v-837" />
    <glyph glyph-name="three" unicode="3" horiz-adv-x="507" 
d="M30 701h340c20 6 41 -7 42 -28c1 -12 -4 -23 -14 -29l-326 -198c-23 -14 -41 -37 -28 -57c10 -14 31 -13 43 0c123 148 376 46 368 -170c-4 -120 -105 -213 -227 -226c-71 -8 -142 12 -198 56" />
    <glyph glyph-name="tilde" unicode="&#x2dc;" horiz-adv-x="284" 
d="M21 576c-1.6571 35.627 20.8839 64.04 60.0483 63.968c56.6787 -0.105 59.5247 -66.778 122.689 -66.908c41.031 -0.085 60.907 28.594 59.263 63.94" />
    <glyph glyph-name="two" unicode="2" horiz-adv-x="626" 
d="M120 395c-83 149 38 329 208 311c113 -12 193 -120 163 -226c-6 -21 -15 -40 -29 -57l-441 -380c-5 -25 17 -47 42 -43c21 4 32 25 43 43c96 151 318 151 413 0c12 -18 22 -39 43 -43c9.423 -1.5077 18.562 0.6784 26.024 5.32667
c12.336 7.68393 20.091 22.0963 16.976 37.6733" />
    <glyph glyph-name="u" unicode="u" horiz-adv-x="555" 
d="M55.3616 456.401c-6.4551 10.758 -6.3913 22.634 -1.9045 32.242c5.8799 12.591 19.3559 21.287 35.7107 18.467c11.0922 -2.017 19.1162 -9.147 24.5912 -18.668c5.322 -9.255 8.235 -20.769 9.215 -32.041c6.96 -68.607 -25.8519 -134.231 -33.8063 -202.837
c-16.9031 -147.157 84.5153 -281.387 219.74 -267.467c120.31 12.9259 185.934 138.208 185.934 267.467v246.586M494.842 500.15v-500.133" />
    <glyph glyph-name="uacute" unicode="&#xfa;" horiz-adv-x="555" 
d="M55.3613 456.401c-6.45508 10.7578 -6.39062 22.6338 -1.9043 32.2412c5.87988 12.5918 19.3564 21.2871 35.7109 18.4678c11.0918 -2.01758 19.1162 -9.14746 24.5908 -18.668c5.32227 -9.25586 8.23535 -20.7695 9.21484 -32.041
c6.95996 -68.6074 -25.8516 -134.231 -33.8057 -202.837c-16.9033 -147.157 84.5146 -281.388 219.74 -267.468c120.31 12.9258 185.934 138.208 185.934 267.468v246.586M494.842 500.15v-500.134M156 585l242 104" />
    <glyph glyph-name="ucircumflex" unicode="&#xfb;" horiz-adv-x="555" 
d="M55.3613 456.401c-6.45508 10.7578 -6.39062 22.6338 -1.9043 32.2412c5.87988 12.5918 19.3564 21.2871 35.7109 18.4678c11.0918 -2.01758 19.1162 -9.14746 24.5908 -18.668c5.32227 -9.25586 8.23535 -20.7695 9.21484 -32.041
c6.95996 -68.6074 -25.8516 -134.231 -33.8057 -202.837c-16.9033 -147.157 84.5146 -281.388 219.74 -267.468c120.31 12.9258 185.934 138.208 185.934 267.468v246.586M494.842 500.15v-500.134M177 585l121 104l121 -104" />
    <glyph glyph-name="udieresis" unicode="&#xfc;" horiz-adv-x="555" 
d="M55.3613 456.401c-6.45508 10.7578 -6.39062 22.6338 -1.9043 32.2412c5.87988 12.5918 19.3564 21.2871 35.7109 18.4678c11.0918 -2.01758 19.1162 -9.14746 24.5908 -18.668c5.32227 -9.25586 8.23535 -20.7695 9.21484 -32.041
c6.95996 -68.6074 -25.8516 -134.231 -33.8057 -202.837c-16.9033 -147.157 84.5146 -281.388 219.74 -267.468c120.31 12.9258 185.934 138.208 185.934 267.468v246.586M494.842 500.15v-500.134M188 730c23 0 34 -25 34 -51c0 -25 -11 -51 -34 -51c-22 0 -34 26 -34 51
c0 26 12 51 34 51M368 730c23 0 34 -25 34 -51c0 -25 -11 -51 -34 -51c-22 0 -34 26 -34 51c0 26 12 51 34 51" />
    <glyph glyph-name="ugrave" unicode="&#xf9;" horiz-adv-x="555" 
d="M55.3613 456.401c-6.45508 10.7578 -6.39062 22.6338 -1.9043 32.2412c5.87988 12.5918 19.3564 21.2871 35.7109 18.4678c11.0918 -2.01758 19.1162 -9.14746 24.5908 -18.668c5.32227 -9.25586 8.23535 -20.7695 9.21484 -32.041
c6.95996 -68.6074 -25.8516 -134.231 -33.8057 -202.837c-16.9033 -147.157 84.5146 -281.388 219.74 -267.468c120.31 12.9258 185.934 138.208 185.934 267.468v246.586M494.842 500.15v-500.134M399 585l-242 104" />
    <glyph glyph-name="underscore" unicode="_" horiz-adv-x="541" 
d="M520.625 0h-499.811" />
    <glyph glyph-name="utilde" unicode="&#x169;" horiz-adv-x="555" 
d="M55.3613 456.401c-6.45508 10.7578 -6.39062 22.6338 -1.9043 32.2412c5.87988 12.5918 19.3564 21.2871 35.7109 18.4678c11.0918 -2.01758 19.1162 -9.14746 24.5908 -18.668c5.32227 -9.25586 8.23535 -20.7695 9.21484 -32.041
c6.95996 -68.6074 -25.8516 -134.231 -33.8057 -202.837c-16.9033 -147.157 84.5146 -281.388 219.74 -267.468c120.31 12.9258 185.934 138.208 185.934 267.468v246.586M494.842 500.15v-500.134M157 576c-1.65723 35.627 20.8838 64.04 60.0479 63.9678
c56.6787 -0.104492 59.5254 -66.7773 122.689 -66.9082c41.0303 -0.0849609 60.9062 28.5947 59.2627 63.9404" />
    <glyph glyph-name="v" unicode="v" horiz-adv-x="462" 
d="M31 501c91 -134 148 -289 167 -450c2 -24 11 -50 33 -50s30 26 33 50c18 161 75 316 167 450" />
    <glyph glyph-name="w" unicode="w" horiz-adv-x="663" 
d="M306 501.419c68 -140.562 112 -293.619 128 -449.799c3 -24.9888 11 -49.9776 32 -49.9776s30 24.9888 32 49.9776c17 156.18 60 309.237 129 449.799M306 501.419c68 -140.562 112 -293.619 128 -449.799c3 -24.9888 11 -49.9776 32 -49.9776s30 24.9888 32 49.9776
c17 156.18 60 309.237 129 449.799M52 501.419c68 -140.562 112 -293.619 128 -449.799c3 -24.9888 11 -49.9776 32 -49.9776s30 24.9888 32 49.9776c17 156.18 60 309.237 129 449.799" />
    <glyph glyph-name="wacute" unicode="&#x1e83;" horiz-adv-x="663" 
d="M306 501.419c68 -140.562 112 -293.619 128 -449.799c3 -24.9883 11 -49.9775 32 -49.9775s30 24.9893 32 49.9775c17 156.18 60 309.237 129 449.799M306 501.419c68 -140.562 112 -293.619 128 -449.799c3 -24.9883 11 -49.9775 32 -49.9775s30 24.9893 32 49.9775
c17 156.18 60 309.237 129 449.799M52 501.419c68 -140.562 112 -293.619 128 -449.799c3 -24.9883 11 -49.9775 32 -49.9775s30 24.9893 32 49.9775c17 156.18 60 309.237 129 449.799M211 585l242 104" />
    <glyph glyph-name="wcircumflex" unicode="&#x175;" horiz-adv-x="663" 
d="M306 501.419c68 -140.562 112 -293.619 128 -449.799c3 -24.9883 11 -49.9775 32 -49.9775s30 24.9893 32 49.9775c17 156.18 60 309.237 129 449.799M306 501.419c68 -140.562 112 -293.619 128 -449.799c3 -24.9883 11 -49.9775 32 -49.9775s30 24.9893 32 49.9775
c17 156.18 60 309.237 129 449.799M52 501.419c68 -140.562 112 -293.619 128 -449.799c3 -24.9883 11 -49.9775 32 -49.9775s30 24.9893 32 49.9775c17 156.18 60 309.237 129 449.799M211 585l121 104l121 -104" />
    <glyph glyph-name="wdieresis" unicode="&#x1e85;" horiz-adv-x="663" 
d="M306 501.419c68 -140.562 112 -293.619 128 -449.799c3 -24.9883 11 -49.9775 32 -49.9775s30 24.9893 32 49.9775c17 156.18 60 309.237 129 449.799M306 501.419c68 -140.562 112 -293.619 128 -449.799c3 -24.9883 11 -49.9775 32 -49.9775s30 24.9893 32 49.9775
c17 156.18 60 309.237 129 449.799M52 501.419c68 -140.562 112 -293.619 128 -449.799c3 -24.9883 11 -49.9775 32 -49.9775s30 24.9893 32 49.9775c17 156.18 60 309.237 129 449.799M242 730c23 0 34 -25 34 -51c0 -25 -11 -51 -34 -51c-22 0 -34 26 -34 51
c0 26 12 51 34 51M422 730c23 0 34 -25 34 -51c0 -25 -11 -51 -34 -51c-22 0 -34 26 -34 51c0 26 12 51 34 51" />
    <glyph glyph-name="wgrave" unicode="&#x1e81;" horiz-adv-x="663" 
d="M306 501.419c68 -140.562 112 -293.619 128 -449.799c3 -24.9883 11 -49.9775 32 -49.9775s30 24.9893 32 49.9775c17 156.18 60 309.237 129 449.799M306 501.419c68 -140.562 112 -293.619 128 -449.799c3 -24.9883 11 -49.9775 32 -49.9775s30 24.9893 32 49.9775
c17 156.18 60 309.237 129 449.799M52 501.419c68 -140.562 112 -293.619 128 -449.799c3 -24.9883 11 -49.9775 32 -49.9775s30 24.9893 32 49.9775c17 156.18 60 309.237 129 449.799M453 585l-242 104" />
    <glyph glyph-name="x" unicode="x" horiz-adv-x="529" 
d="M57 456c-9.3589 12.999 -7.634 28.43 0.2552 39.267c7.2841 10.005 19.823 16.093 33.7448 12.733c22 -5 29 -30 35 -52c45 -163 230 -249 275 -413c6 -22 13 -46 35 -51c14.47 -3.4927 27.446 2.97299 34.58 13.4345c7.165 10.5051 8.439 25.0395 -0.58 37.5655M57 43
c-8.3649 -11.6179 -7.8754 -24.9635 -2.0441 -35.2195c6.7168 -11.8133 20.5209 -19.5275 36.0441 -15.7805c22 5 29 29 35 51c45 164 230 250 275 413c6 22 13 47 35 52c13.978 3.374 26.562 -2.777 33.833 -12.855c7.814 -10.83 9.491 -26.195 0.167 -39.145" />
    <glyph glyph-name="y" unicode="y" horiz-adv-x="532" 
d="M14.2475 448.938c-8.35762 13.581 -6.11912 28.835 2.101 39.362c7.1784 9.192 18.9182 14.779 32.1465 12.499c9.7411 -1.694 17.099 -7.055 22.4706 -14.574c7.0385 -9.853 10.6664 -23.413 11.7763 -37.287c6.8495 -69.473 -26.4195 -124.269 -34.2475 -193.743
c-16.6345 -148.732 86.1076 -284.743 223.098 -270.066c121.334 12.7205 187.872 139.926 187.872 270.066v242.668M-20 -276.131c21.527 92.958 111.549 152.646 205.485 137.969c114.485 -19.57 189.829 -149.711 308.228 -137.969
c91.979 9.785 146.775 101.764 102.742 172.216c-18.527 29.3349 -55.46 45.1358 -86.313 64.3439c-27.808 17.3127 -50.677 37.3934 -50.677 72.6466v222.119" />
    <glyph glyph-name="yacute" unicode="&#xfd;" horiz-adv-x="510" 
d="M34.2471 448.938c-8.35742 13.5801 -6.11914 28.835 2.10156 39.3613c7.17871 9.19238 18.918 14.7793 32.1465 12.499c9.74121 -1.69336 17.0986 -7.05469 22.4707 -14.5742c7.03809 -9.85254 10.666 -23.4131 11.7764 -37.2861
c6.84961 -69.4736 -26.4199 -124.27 -34.248 -193.743c-16.6338 -148.732 86.1074 -284.744 223.098 -270.066c121.334 12.7207 187.872 139.926 187.872 270.066v242.668M0 -276.131c21.5273 92.958 111.549 152.646 205.485 137.969
c114.484 -19.5703 189.829 -149.711 308.228 -137.969c91.9795 9.78516 146.775 101.764 102.742 172.216c-18.5273 29.335 -55.46 45.1357 -86.3135 64.3438c-27.8076 17.3125 -50.6768 37.3936 -50.6768 72.6465v222.12M164 585l242 104" />
    <glyph glyph-name="ycircumflex" unicode="&#x177;" horiz-adv-x="532" 
d="M14.2471 448.938c-8.35742 13.5801 -6.11914 28.835 2.10156 39.3613c7.17871 9.19238 18.918 14.7793 32.1465 12.499c9.74121 -1.69336 17.0986 -7.05469 22.4707 -14.5742c7.03809 -9.85254 10.666 -23.4131 11.7764 -37.2861
c6.84961 -69.4736 -26.4199 -124.27 -34.248 -193.743c-16.6338 -148.732 86.1074 -284.744 223.098 -270.066c121.334 12.7207 187.872 139.926 187.872 270.066v242.668M-20 -276.131c21.5273 92.958 111.549 152.646 205.485 137.969
c114.484 -19.5703 189.829 -149.711 308.228 -137.969c91.9795 9.78516 146.775 101.764 102.742 172.216c-18.5273 29.335 -55.46 45.1357 -86.3135 64.3438c-27.8076 17.3125 -50.6768 37.3936 -50.6768 72.6465v222.12M145 585l121 104l121 -104" />
    <glyph glyph-name="ydieresis" unicode="&#xff;" horiz-adv-x="510" 
d="M34.2471 448.938c-8.35742 13.5801 -6.11914 28.835 2.10156 39.3613c7.17871 9.19238 18.918 14.7793 32.1465 12.499c9.74121 -1.69336 17.0986 -7.05469 22.4707 -14.5742c7.03809 -9.85254 10.666 -23.4131 11.7764 -37.2861
c6.84961 -69.4736 -26.4199 -124.27 -34.248 -193.743c-16.6338 -148.732 86.1074 -284.744 223.098 -270.066c121.334 12.7207 187.872 139.926 187.872 270.066v242.668M0 -276.131c21.5273 92.958 111.549 152.646 205.485 137.969
c114.484 -19.5703 189.829 -149.711 308.228 -137.969c91.9795 9.78516 146.775 101.764 102.742 172.216c-18.5273 29.335 -55.46 45.1357 -86.3135 64.3438c-27.8076 17.3125 -50.6768 37.3936 -50.6768 72.6465v222.12M195 730c23 0 34 -25 34 -51
c0 -25 -11 -51 -34 -51c-22 0 -34 26 -34 51c0 26 12 51 34 51M375 730c23 0 34 -25 34 -51c0 -25 -11 -51 -34 -51c-22 0 -34 26 -34 51c0 26 12 51 34 51" />
    <glyph glyph-name="z" unicode="z" horiz-adv-x="546" 
d="M80.381 453.866c-8.7916 11.568 -8.2849 25.35 -2.1872 35.731c6.6467 11.317 19.9368 18.593 35.0682 14.558c12.928 -2.938 18.001 -14.444 22.811 -26.927c3.107 -8.062 6.105 -16.531 11.038 -23.362c42.552 -58.026 193.42 -58.026 235.005 0
c7.737 20.309 12.573 45.454 33.849 50.289c14.68 3.915 27.627 -2.817 34.456 -13.555c6.667 -10.485 7.503 -24.79 -1.575 -36.734l-402.313 -402.314c-13.5503 -15.3981 -7.4872 -34.3266 5.9478 -44.544c7.6601 -5.82555 17.7166 -8.81925 27.9007 -6.71225
c20.309 4.83551 20.309 30.9472 32.881 51.2563c51.257 84.1376 251.446 84.1376 302.703 0c12.572 -20.3091 11.605 -45.4537 32.881 -51.2563c15.357 -3.58339 28.818 4.21398 35.505 15.9336c5.946 10.421 6.537 23.9431 -1.656 35.3227" />
    <glyph glyph-name="zacute" unicode="&#x17a;" horiz-adv-x="546" 
d="M80.3809 453.866c-8.79102 11.5674 -8.28516 25.3496 -2.1875 35.7305c6.64746 11.3174 19.9375 18.5938 35.0684 14.5586c12.9287 -2.93848 18.001 -14.4443 22.8115 -26.9277c3.10645 -8.06152 6.10449 -16.5303 11.0381 -23.3613
c42.5518 -58.0264 193.42 -58.0264 235.005 0c7.73633 20.3086 12.5732 45.4541 33.8486 50.2891c14.6797 3.91504 27.627 -2.81738 34.4561 -13.5557c6.66699 -10.4844 7.50293 -24.79 -1.5752 -36.7334l-402.313 -402.313
c-13.5498 -15.3984 -7.4873 -34.3271 5.94824 -44.5439c7.66016 -5.82617 17.7168 -8.81934 27.9004 -6.71289c20.3096 4.83594 20.3096 30.9473 32.8809 51.2568c51.2568 84.1377 251.446 84.1377 302.703 0c12.5723 -20.3096 11.6055 -45.4541 32.8809 -51.2568
c15.3574 -3.58301 28.8184 4.21387 35.5049 15.9336c5.94629 10.4209 6.53711 23.9434 -1.65527 35.3232M152 585l242 104" />
    <glyph glyph-name="zcaron" unicode="&#x17e;" horiz-adv-x="546" 
d="M80.3809 453.866c-8.79102 11.5674 -8.28516 25.3496 -2.1875 35.7305c6.64746 11.3174 19.9375 18.5938 35.0684 14.5586c12.9287 -2.93848 18.001 -14.4443 22.8115 -26.9277c3.10645 -8.06152 6.10449 -16.5303 11.0381 -23.3613
c42.5518 -58.0264 193.42 -58.0264 235.005 0c7.73633 20.3086 12.5732 45.4541 33.8486 50.2891c14.6797 3.91504 27.627 -2.81738 34.4561 -13.5557c6.66699 -10.4844 7.50293 -24.79 -1.5752 -36.7334l-402.313 -402.313
c-13.5498 -15.3984 -7.4873 -34.3271 5.94824 -44.5439c7.66016 -5.82617 17.7168 -8.81934 27.9004 -6.71289c20.3096 4.83594 20.3096 30.9473 32.8809 51.2568c51.2568 84.1377 251.446 84.1377 302.703 0c12.5723 -20.3096 11.6055 -45.4541 32.8809 -51.2568
c15.3574 -3.58301 28.8184 4.21387 35.5049 15.9336c5.94629 10.4209 6.53711 23.9434 -1.65527 35.3232M394 689l-121 -104l-121 104" />
    <glyph glyph-name="zero" unicode="0" horiz-adv-x="563" 
d="M40 351c0 -182 95 -350 241 -350s242 168 242 350c0 181 -96 349 -242 349s-241 -168 -241 -349" />
    </font>
</defs>
</svg>
